<svg width="62" height="60" viewBox="0 0 62 60" fill="none" xmlns="http://www.w3.org/2000/svg">
<path d="M11.2422 35.4952V2.87851C11.2422 1.80216 12.1228 0.921509 13.1992 0.921509H49.0775C50.1539 0.921509 51.0345 1.80216 51.0345 2.87851V35.4952C51.0345 36.5715 50.1539 37.4522 49.0775 37.4522H13.1992C12.1065 37.4522 11.2422 36.5715 11.2422 35.4952Z" fill="#9288E9"/>
<path d="M12.5469 33.9786V3.31896C12.5469 2.86232 12.9057 2.50354 13.3623 2.50354H48.9145C49.3711 2.50354 49.7299 2.86232 49.7299 3.31896V33.9786C49.7299 34.4353 49.3711 34.794 48.9145 34.794H13.3623C12.9057 34.794 12.5469 34.419 12.5469 33.9786Z" fill="#CEC8FD"/>
<path d="M11.2422 35.4952V2.87851C11.2422 1.80216 12.1228 0.921509 13.1992 0.921509H49.0775C50.1539 0.921509 51.0345 1.80216 51.0345 2.87851V35.4952C51.0345 36.5715 50.1539 37.4522 49.0775 37.4522H13.1992C12.1065 37.4522 11.2422 36.5715 11.2422 35.4952Z" stroke="#3A3842" stroke-miterlimit="10" stroke-linecap="round" stroke-linejoin="round"/>
<path d="M14.1777 29.4122V5.60203C14.1777 4.96601 14.6833 4.46045 15.3193 4.46045H46.9575C47.5935 4.46045 48.0991 4.96601 48.0991 5.60203V29.4122C48.0991 30.0482 47.5935 30.5538 46.9575 30.5538H15.3193C14.6833 30.5538 14.1777 30.0482 14.1777 29.4122Z" fill="#9288E9"/>
<path d="M18.9071 29.0861C16.9338 29.0861 15.3193 27.4715 15.3193 25.4982V9.51606C15.3193 7.54275 16.9338 5.92822 18.9071 5.92822H43.3697C45.343 5.92822 46.9575 7.54275 46.9575 9.51606V25.4982C46.9575 27.4715 45.343 29.0861 43.3697 29.0861H18.9071Z" fill="#3A3842"/>
<path d="M44.0219 40.3878H18.2548C17.5372 40.3878 16.9501 39.8007 16.9501 39.0831V37.4523H45.3266V39.0831C45.3266 39.8007 44.7395 40.3878 44.0219 40.3878Z" fill="#CEC8FD"/>
<path d="M45.3266 37.4523H16.9501V38.92H45.3266V37.4523Z" fill="#9288E9"/>
<path d="M44.0219 40.3878H18.2548C17.5372 40.3878 16.9501 39.8007 16.9501 39.0831V37.4523H45.3266V39.0831C45.3266 39.8007 44.7395 40.3878 44.0219 40.3878Z" stroke="#3A3842" stroke-miterlimit="10" stroke-linecap="round" stroke-linejoin="round"/>
<path d="M59.1887 56.0437H3.08802C2.37046 56.0437 1.78336 55.4566 1.78336 54.739V41.6924C1.78336 40.9748 2.37046 40.3877 3.08802 40.3877H59.1887C59.9063 40.3877 60.4934 40.9748 60.4934 41.6924V54.739C60.4934 55.4566 59.9063 56.0437 59.1887 56.0437Z" fill="#9288E9"/>
<path d="M59.1887 56.0437H3.08802C2.37046 56.0437 1.78336 55.4566 1.78336 54.739V41.6924C1.78336 40.9748 2.37046 40.3877 3.08802 40.3877H59.1887C59.9063 40.3877 60.4934 40.9748 60.4934 41.6924V54.739C60.4934 55.4566 59.9063 56.0437 59.1887 56.0437Z" stroke="#3A3842" stroke-miterlimit="10" stroke-linecap="round" stroke-linejoin="round"/>
<path d="M3.80557 53.4344V42.9971C3.80557 42.2795 4.39267 41.6924 5.11024 41.6924H57.1502C57.8677 41.6924 58.4548 42.2795 58.4548 42.9971V53.4344C58.4548 54.152 57.8677 54.7391 57.1502 54.7391H5.11024C4.39267 54.7391 3.80557 54.152 3.80557 53.4344Z" fill="#CEC8FD"/>
<path d="M42.5868 33.8319C43.2623 33.8319 43.81 33.2842 43.81 32.6087C43.81 31.9333 43.2623 31.3856 42.5868 31.3856C41.9113 31.3856 41.3637 31.9333 41.3637 32.6087C41.3637 33.2842 41.9113 33.8319 42.5868 33.8319Z" fill="#CAB5EA"/>
<path d="M42.5868 33.6687C43.1723 33.6687 43.6469 33.1941 43.6469 32.6086C43.6469 32.0232 43.1723 31.5486 42.5868 31.5486C42.0014 31.5486 41.5268 32.0232 41.5268 32.6086C41.5268 33.1941 42.0014 33.6687 42.5868 33.6687Z" fill="#3A3842"/>
<path d="M42.5868 33.5218C43.0913 33.5218 43.5001 33.113 43.5001 32.6086C43.5001 32.1042 43.0913 31.6953 42.5868 31.6953C42.0826 31.6953 41.6736 32.1042 41.6736 32.6086C41.6736 33.113 42.0826 33.5218 42.5868 33.5218Z" fill="#33313A"/>
<path d="M21.4186 49.1127V53.5975" stroke="#9288E9" stroke-width="6" stroke-miterlimit="10" stroke-linecap="round" stroke-linejoin="round"/>
<path d="M19.7878 49.1127V53.5975" stroke="#9288E9" stroke-width="6" stroke-miterlimit="10" stroke-linecap="round" stroke-linejoin="round"/>
<path d="M18.157 49.1127V53.5975" stroke="#9288E9" stroke-width="6" stroke-miterlimit="10" stroke-linecap="round" stroke-linejoin="round"/>
<path d="M16.5262 49.1127V53.5975" stroke="#9288E9" stroke-width="6" stroke-miterlimit="10" stroke-linecap="round" stroke-linejoin="round"/>
<path d="M14.8953 49.1127V53.5975" stroke="#9288E9" stroke-width="6" stroke-miterlimit="10" stroke-linecap="round" stroke-linejoin="round"/>
<path d="M13.2645 49.1127V53.5975" stroke="#9288E9" stroke-width="6" stroke-miterlimit="10" stroke-linecap="round" stroke-linejoin="round"/>
<path d="M11.6336 49.1127V53.5975" stroke="#9288E9" stroke-width="6" stroke-miterlimit="10" stroke-linecap="round" stroke-linejoin="round"/>
<path d="M10.0028 49.1127V53.5975" stroke="#9288E9" stroke-width="6" stroke-miterlimit="10" stroke-linecap="round" stroke-linejoin="round"/>
<path d="M8.37192 49.1127V53.5975" stroke="#9288E9" stroke-width="6" stroke-miterlimit="10" stroke-linecap="round" stroke-linejoin="round"/>
<path d="M21.5654 49.1127V53.5975" stroke="#3A3842" stroke-miterlimit="10" stroke-linecap="round" stroke-linejoin="round"/>
<path d="M19.9345 49.1127V53.5975" stroke="#3A3842" stroke-miterlimit="10" stroke-linecap="round" stroke-linejoin="round"/>
<path d="M18.3037 49.1127V53.5975" stroke="#3A3842" stroke-miterlimit="10" stroke-linecap="round" stroke-linejoin="round"/>
<path d="M16.6729 49.1127V53.5975" stroke="#3A3842" stroke-miterlimit="10" stroke-linecap="round" stroke-linejoin="round"/>
<path d="M15.0421 49.1127V53.5975" stroke="#3A3842" stroke-miterlimit="10" stroke-linecap="round" stroke-linejoin="round"/>
<path d="M13.4112 49.1127V53.5975" stroke="#3A3842" stroke-miterlimit="10" stroke-linecap="round" stroke-linejoin="round"/>
<path d="M11.7804 49.1127V53.5975" stroke="#3A3842" stroke-miterlimit="10" stroke-linecap="round" stroke-linejoin="round"/>
<path d="M10.1496 49.1127V53.5975" stroke="#3A3842" stroke-miterlimit="10" stroke-linecap="round" stroke-linejoin="round"/>
<path d="M8.51871 49.1127V53.5975" stroke="#3A3842" stroke-miterlimit="10" stroke-linecap="round" stroke-linejoin="round"/>
<path d="M8.76243 43.7147H7.65436V44.8228H8.76243V43.7147Z" fill="#F26640"/>
<path d="M10.0997 43.7147H8.99164V44.8228H10.0997V43.7147Z" fill="#5EB755"/>
<path d="M8.76243 45.0029H7.65436V46.111H8.76243V45.0029Z" fill="#6A82EA"/>
<path d="M10.0997 45.0029H8.99164V46.111H10.0997V45.0029Z" fill="#EFAD43"/>
<path d="M24.6477 8.58655H33.6662" stroke="white" stroke-width="8" stroke-miterlimit="10" stroke-linecap="round" stroke-linejoin="round"/>
<path d="M19.429 8.58655H22.0383" stroke="white" stroke-width="8" stroke-miterlimit="10" stroke-linecap="round" stroke-linejoin="round"/>
<path d="M43.3697 5.92822H42.1302C41.3637 16.3493 32.6714 24.5687 22.0547 24.5687H15.3193V25.4982C15.3193 27.4715 16.9338 29.0861 18.9071 29.0861H43.3697C45.343 29.0861 46.9575 27.4715 46.9575 25.4982V9.51606C46.9575 7.54275 45.343 5.92822 43.3697 5.92822Z" fill="#33313A"/>
<path opacity="0.34" d="M14.6833 44.2528H10.6388V44.8399H14.6833V44.2528Z" fill="#3A3842"/>
<path opacity="0.34" d="M12.6611 45.2639H10.6388V45.5738H12.6611V45.2639Z" fill="#3A3842"/>
<path d="M31.9864 53.7117H15.0257V55.6687H31.9864V53.7117Z" fill="#9288E9"/>
<path d="M8.20884 53.7117H4.94717V55.6687H8.20884V53.7117Z" fill="#9288E9"/>
<path d="M13.2481 53.7117H9.98645V55.6687H13.2481V53.7117Z" fill="#9288E9"/>
<path d="M37.0257 53.7117H33.764V55.6687H37.0257V53.7117Z" fill="#9288E9"/>
<path d="M42.0649 53.7117H38.8033V55.6687H42.0649V53.7117Z" fill="#9288E9"/>
<path d="M47.1206 53.7117H43.8589V55.6687H47.1206V53.7117Z" fill="#9288E9"/>
<path d="M31.9864 53.7117H15.0257V55.6687H31.9864V53.7117Z" stroke="#3A3842" stroke-miterlimit="10" stroke-linecap="round" stroke-linejoin="round"/>
<path d="M8.20884 53.7117H4.94717V55.6687H8.20884V53.7117Z" stroke="#3A3842" stroke-miterlimit="10" stroke-linecap="round" stroke-linejoin="round"/>
<path d="M13.2481 53.7117H9.98645V55.6687H13.2481V53.7117Z" stroke="#3A3842" stroke-miterlimit="10" stroke-linecap="round" stroke-linejoin="round"/>
<path d="M37.0257 53.7117H33.764V55.6687H37.0257V53.7117Z" stroke="#3A3842" stroke-miterlimit="10" stroke-linecap="round" stroke-linejoin="round"/>
<path d="M42.0649 53.7117H38.8033V55.6687H42.0649V53.7117Z" stroke="#3A3842" stroke-miterlimit="10" stroke-linecap="round" stroke-linejoin="round"/>
<path d="M47.1206 53.7117H43.8589V55.6687H47.1206V53.7117Z" stroke="#3A3842" stroke-miterlimit="10" stroke-linecap="round" stroke-linejoin="round"/>
<path d="M50.2192 58.6042H1.94646C1.58768 58.6042 1.29413 58.3107 1.29413 57.9519V56.321C1.29413 55.9623 1.58768 55.6687 1.94646 55.6687H50.2192C50.5779 55.6687 50.8715 55.9623 50.8715 56.321V57.9519C50.8715 58.3107 50.5779 58.6042 50.2192 58.6042Z" fill="#9288E9"/>
<path d="M50.2192 58.6042H1.94646C1.58768 58.6042 1.29413 58.3107 1.29413 57.9519V56.321C1.29413 55.9623 1.58768 55.6687 1.94646 55.6687H50.2192C50.5779 55.6687 50.8715 55.9623 50.8715 56.321V57.9519C50.8715 58.3107 50.5779 58.6042 50.2192 58.6042Z" stroke="#3A3842" stroke-miterlimit="10" stroke-linecap="round" stroke-linejoin="round"/>
<path d="M60.7054 58.6042H54.6224V57.8214C54.6224 56.6309 55.5846 55.6687 56.7751 55.6687H58.569C59.7595 55.6687 60.7217 56.6309 60.7217 57.8214V58.6042H60.7054Z" fill="#CEC8FD"/>
<path d="M60.7054 58.6042H54.6224V57.8214C54.6224 56.6309 55.5846 55.6687 56.7751 55.6687H58.569C59.7595 55.6687 60.7217 56.6309 60.7217 57.8214V58.6042H60.7054Z" stroke="#3A3842" stroke-miterlimit="10" stroke-linecap="round" stroke-linejoin="round"/>
<path d="M54.3941 47.0253H39.5046C39.3904 47.0253 39.2762 46.9275 39.2762 46.797V45.4923C39.2762 45.3782 39.3741 45.264 39.5046 45.264H54.3941C54.5082 45.264 54.6224 45.3619 54.6224 45.4923V46.797C54.6224 46.9275 54.5245 47.0253 54.3941 47.0253Z" fill="#9288E9"/>
<path d="M48.8819 47.6776H45.0168C44.9026 47.6776 44.8211 47.5797 44.8211 47.4819V44.8236C44.8211 44.7095 44.919 44.6279 45.0168 44.6279H48.8819C48.996 44.6279 49.0776 44.7258 49.0776 44.8236V47.4819C49.0939 47.596 48.996 47.6776 48.8819 47.6776Z" fill="#9288E9"/>
<path d="M53.9701 45.4924H39.9449V46.7971H53.9701V45.4924Z" fill="#3A3842"/>
<path d="M48.9145 45.0031H45.0005V47.2862H48.9145V45.0031Z" fill="#3A3842"/>
<path d="M40.2711 46.1448C40.2711 45.9654 40.4179 45.8186 40.5973 45.8186H53.3178C53.4972 45.8186 53.644 45.9654 53.644 46.1448C53.644 46.3242 53.4972 46.4709 53.3178 46.4709H40.5973C40.4179 46.4709 40.2711 46.3242 40.2711 46.1448Z" fill="#33313A"/>
<path d="M54.3941 51.1512H39.5046C39.3904 51.1512 39.2762 51.0533 39.2762 50.9229V49.6182C39.2762 49.5041 39.3741 49.3899 39.5046 49.3899H54.3941C54.5082 49.3899 54.6224 49.4877 54.6224 49.6182V50.9229C54.6224 51.0533 54.5245 51.1512 54.3941 51.1512Z" fill="#9288E9"/>
<path d="M48.8819 51.8199H45.0168C44.9026 51.8199 44.8211 51.7221 44.8211 51.6242V48.966C44.8211 48.8518 44.919 48.7703 45.0168 48.7703H48.8819C48.996 48.7703 49.0776 48.8681 49.0776 48.966V51.6242C49.0939 51.7221 48.996 51.8199 48.8819 51.8199Z" fill="#9288E9"/>
<path d="M53.9701 49.6346H39.9449V50.9393H53.9701V49.6346Z" fill="#3A3842"/>
<path d="M48.9145 49.1454H45.0005V51.4286H48.9145V49.1454Z" fill="#3A3842"/>
<path d="M40.2711 50.287C40.2711 50.1076 40.4179 49.9608 40.5973 49.9608H53.3178C53.4972 49.9608 53.644 50.1076 53.644 50.287C53.644 50.4664 53.4972 50.6131 53.3178 50.6131H40.5973C40.4179 50.6131 40.2711 50.4664 40.2711 50.287Z" fill="#33313A"/>
</svg>
