<svg xmlns="http://www.w3.org/2000/svg" width="1920" height="1000" viewBox="0 0 1920 1000" fill="none"><rect opacity="0.5" width="1920" height="1000" fill="url(#paint0_linear_844_27385)"></rect><mask id="mask0_844_27385" style="mask-type:alpha" maskUnits="userSpaceOnUse" x="1570" y="788" width="351" height="212"><rect x="1570" y="788" width="351" height="212" fill="white"></rect></mask><g mask="url(#mask0_844_27385)"><path fill-rule="evenodd" clip-rule="evenodd" d="M1585.11 859.05C1583.96 857.942 1582.15 857.995 1581.06 859.165C1579.98 860.343 1580.02 862.19 1581.17 863.298C1582.33 864.406 1584.14 864.357 1585.22 863.179C1586.32 862.005 1586.27 860.158 1585.11 859.05Z" fill="#AABAFE"></path><path fill-rule="evenodd" clip-rule="evenodd" d="M1598.23 844.024C1597.08 842.911 1595.26 842.965 1594.17 844.139C1593.09 845.305 1593.14 847.161 1594.29 848.27C1595.44 849.379 1597.26 849.325 1598.34 848.151C1599.43 846.976 1599.38 845.129 1598.23 844.024Z" fill="#AABAFE"></path><path fill-rule="evenodd" clip-rule="evenodd" d="M1612.16 828.99C1611.01 827.886 1609.19 827.931 1608.1 829.105C1607.02 830.283 1607.07 832.138 1608.22 833.234C1609.37 834.347 1611.19 834.298 1612.27 833.124C1613.37 831.954 1613.31 830.098 1612.16 828.99Z" fill="#AABAFE"></path><path fill-rule="evenodd" clip-rule="evenodd" d="M1626.85 818.902C1627.38 818.455 1627.7 817.912 1627.81 817.349C1625.87 817.946 1623.97 818.576 1622.07 819.273C1623.54 820.121 1625.59 820.004 1626.85 818.902Z" fill="#AABAFE"></path><path fill-rule="evenodd" clip-rule="evenodd" d="M1583.48 884.936C1582.33 883.827 1580.51 883.88 1579.43 885.055C1578.33 886.229 1578.38 888.081 1579.54 889.19C1580.69 890.291 1582.51 890.241 1583.59 889.067C1584.68 887.892 1584.62 886.048 1583.48 884.936Z" fill="#AABAFE"></path><path fill-rule="evenodd" clip-rule="evenodd" d="M1596.59 870.733C1595.44 869.63 1593.63 869.688 1592.53 870.865C1591.45 872.029 1591.5 873.883 1592.65 874.991C1593.81 876.098 1595.62 876.045 1596.7 874.872C1597.8 873.699 1597.74 871.845 1596.59 870.733Z" fill="#AABAFE"></path><path fill-rule="evenodd" clip-rule="evenodd" d="M1611.33 855.708C1610.19 854.604 1608.37 854.654 1607.29 855.823C1606.2 857.001 1606.25 858.848 1607.4 859.965C1608.55 861.065 1610.36 861.016 1611.45 859.842C1612.55 858.668 1612.49 856.817 1611.33 855.708Z" fill="#AABAFE"></path><path fill-rule="evenodd" clip-rule="evenodd" d="M1624.45 840.674C1623.31 839.578 1621.49 839.619 1620.39 840.801C1619.31 841.966 1619.36 843.821 1620.51 844.925C1621.67 846.042 1623.48 845.98 1624.57 844.815C1625.66 843.637 1625.6 841.794 1624.45 840.674Z" fill="#AABAFE"></path><path fill-rule="evenodd" clip-rule="evenodd" d="M1638.38 826.491C1637.23 825.378 1635.42 825.427 1634.33 826.601C1633.25 827.78 1633.29 829.635 1634.44 830.731C1635.6 831.84 1637.41 831.795 1638.5 830.616C1639.59 829.446 1639.54 827.591 1638.38 826.491Z" fill="#AABAFE"></path><path fill-rule="evenodd" clip-rule="evenodd" d="M1647.55 815.735C1648.7 816.799 1650.53 816.751 1651.61 815.624C1652.5 814.71 1652.63 813.374 1652.02 812.333C1650.32 812.31 1648.63 812.353 1646.95 812.487C1646.42 813.559 1646.62 814.879 1647.55 815.735Z" fill="#AABAFE"></path><path fill-rule="evenodd" clip-rule="evenodd" d="M1581.84 911.656C1580.7 910.548 1578.87 910.597 1577.78 911.775C1576.7 912.949 1576.74 914.796 1577.9 915.905C1579.05 917.013 1580.86 916.959 1581.96 915.79C1583.04 914.612 1582.99 912.765 1581.84 911.656Z" fill="#AABAFE"></path><path fill-rule="evenodd" clip-rule="evenodd" d="M1596.59 897.463C1595.44 896.352 1593.63 896.405 1592.54 897.574C1591.45 898.751 1591.5 900.605 1592.65 901.712C1593.81 902.82 1595.61 902.762 1596.71 901.589C1597.79 900.416 1597.74 898.575 1596.59 897.463Z" fill="#AABAFE"></path><path fill-rule="evenodd" clip-rule="evenodd" d="M1609.7 882.431C1608.55 881.322 1606.74 881.376 1605.65 882.546C1604.56 883.713 1604.61 885.574 1605.76 886.683C1606.91 887.788 1608.72 887.734 1609.81 886.564C1610.9 885.389 1610.86 883.54 1609.7 882.431Z" fill="#AABAFE"></path><path fill-rule="evenodd" clip-rule="evenodd" d="M1624.45 867.396C1623.3 866.289 1621.49 866.35 1620.4 867.519C1619.31 868.689 1619.36 870.543 1620.51 871.655C1621.67 872.759 1623.48 872.701 1624.57 871.536C1625.65 870.363 1625.61 868.516 1624.45 867.396Z" fill="#AABAFE"></path><path fill-rule="evenodd" clip-rule="evenodd" d="M1636.75 853.202C1635.6 852.094 1633.78 852.152 1632.69 853.329C1631.6 854.498 1631.65 856.344 1632.81 857.46C1633.97 858.563 1635.78 858.506 1636.86 857.341C1637.95 856.168 1637.9 854.314 1636.75 853.202Z" fill="#AABAFE"></path><path fill-rule="evenodd" clip-rule="evenodd" d="M1649.86 838.176C1648.71 837.068 1646.89 837.117 1645.8 838.291C1644.71 839.461 1644.77 841.317 1645.92 842.421C1647.07 843.533 1648.89 843.48 1649.97 842.306C1651.06 841.128 1651.01 839.281 1649.86 838.176Z" fill="#AABAFE"></path><path fill-rule="evenodd" clip-rule="evenodd" d="M1664.61 823.147C1663.46 822.035 1661.65 822.092 1660.56 823.265C1659.47 824.439 1659.51 826.285 1660.67 827.397C1661.82 828.501 1663.64 828.452 1664.72 827.274C1665.81 826.105 1665.76 824.254 1664.61 823.147Z" fill="#AABAFE"></path><path fill-rule="evenodd" clip-rule="evenodd" d="M1594.94 923.349C1593.8 922.23 1591.99 922.296 1590.9 923.468C1589.81 924.641 1589.86 926.486 1591 927.593C1592.16 928.708 1593.97 928.647 1595.06 927.474C1596.16 926.301 1596.1 924.456 1594.94 923.349Z" fill="#AABAFE"></path><path fill-rule="evenodd" clip-rule="evenodd" d="M1608.06 909.151C1606.91 908.042 1605.1 908.096 1604.01 909.265C1602.92 910.439 1602.97 912.282 1604.13 913.395C1605.28 914.511 1607.1 914.454 1608.17 913.28C1609.27 912.106 1609.21 910.263 1608.06 909.151Z" fill="#AABAFE"></path><path fill-rule="evenodd" clip-rule="evenodd" d="M1622.81 894.113C1621.66 893.009 1619.85 893.071 1618.76 894.236C1617.68 895.406 1617.72 897.257 1618.87 898.374C1620.03 899.478 1621.85 899.425 1622.93 898.247C1624.02 897.081 1623.96 895.23 1622.81 894.113Z" fill="#AABAFE"></path><path fill-rule="evenodd" clip-rule="evenodd" d="M1635.92 879.091C1634.77 877.983 1632.96 878.032 1631.87 879.21C1630.79 880.376 1630.83 882.228 1631.99 883.337C1633.14 884.449 1634.95 884.392 1636.03 883.226C1637.13 882.052 1637.08 880.204 1635.92 879.091Z" fill="#AABAFE"></path><path fill-rule="evenodd" clip-rule="evenodd" d="M1649.85 864.904C1648.71 863.784 1646.89 863.841 1645.8 865.011C1644.72 866.184 1644.77 868.035 1645.92 869.147C1647.07 870.25 1648.88 870.205 1649.97 869.019C1651.06 867.846 1651.01 866.004 1649.85 864.904Z" fill="#AABAFE"></path><path fill-rule="evenodd" clip-rule="evenodd" d="M1662.97 849.865C1661.82 848.757 1660 848.81 1658.91 849.984C1657.83 851.154 1657.88 853.006 1659.03 854.114C1660.17 855.223 1662 855.169 1663.08 853.999C1664.17 852.821 1664.12 850.978 1662.97 849.865Z" fill="#AABAFE"></path><path fill-rule="evenodd" clip-rule="evenodd" d="M1676.09 834.838C1674.94 833.726 1673.11 833.779 1672.03 834.953C1670.94 836.119 1670.99 837.974 1672.14 839.083C1673.3 840.191 1675.12 840.142 1676.2 838.968C1677.28 837.79 1677.23 835.942 1676.09 834.838Z" fill="#AABAFE"></path><path fill-rule="evenodd" clip-rule="evenodd" d="M1687.11 825.477C1688.41 826.471 1690.36 826.55 1691.73 825.703C1690.78 825.147 1689.87 824.584 1688.86 824.008C1687.95 823.494 1687.02 823.052 1686.12 822.584C1685.79 823.586 1686.12 824.705 1687.11 825.477Z" fill="#AABAFE"></path><path fill-rule="evenodd" clip-rule="evenodd" d="M1606.42 935.873C1605.28 934.764 1603.46 934.814 1602.37 935.979C1601.28 937.153 1601.33 939.012 1602.48 940.116C1603.64 941.228 1605.45 941.175 1606.54 940.005C1607.63 938.823 1607.57 936.981 1606.42 935.873Z" fill="#AABAFE"></path><path fill-rule="evenodd" clip-rule="evenodd" d="M1621.17 920.839C1620.03 919.735 1618.21 919.785 1617.12 920.954C1616.03 922.123 1616.08 923.986 1617.24 925.093C1618.39 926.201 1620.2 926.144 1621.29 924.966C1622.38 923.797 1622.32 921.951 1621.17 920.839Z" fill="#AABAFE"></path><path fill-rule="evenodd" clip-rule="evenodd" d="M1634.29 905.812C1633.14 904.704 1631.32 904.753 1630.24 905.927C1629.14 907.105 1629.2 908.947 1630.34 910.059C1631.5 911.171 1633.31 911.11 1634.4 909.949C1635.49 908.775 1635.44 906.92 1634.29 905.812Z" fill="#AABAFE"></path><path fill-rule="evenodd" clip-rule="evenodd" d="M1649.04 891.617C1647.9 890.509 1646.08 890.558 1644.98 891.732C1643.9 892.902 1643.94 894.757 1645.09 895.861C1646.25 896.973 1648.06 896.92 1649.16 895.75C1650.24 894.572 1650.19 892.721 1649.04 891.617Z" fill="#AABAFE"></path><path fill-rule="evenodd" clip-rule="evenodd" d="M1662.15 876.585C1661 875.474 1659.19 875.532 1658.09 876.704C1657.01 877.877 1657.06 879.722 1658.21 880.829C1659.37 881.944 1661.18 881.891 1662.26 880.714C1663.35 879.537 1663.31 877.696 1662.15 876.585Z" fill="#AABAFE"></path><path fill-rule="evenodd" clip-rule="evenodd" d="M1676.08 861.556C1674.93 860.447 1673.12 860.5 1672.03 861.675C1670.94 862.845 1670.99 864.705 1672.14 865.805C1673.3 866.914 1675.11 866.86 1676.19 865.686C1677.28 864.52 1677.24 862.664 1676.08 861.556Z" fill="#AABAFE"></path><path fill-rule="evenodd" clip-rule="evenodd" d="M1689.2 847.363C1688.04 846.251 1686.23 846.304 1685.14 847.482C1684.05 848.656 1684.1 850.502 1685.26 851.61C1686.4 852.718 1688.22 852.665 1689.31 851.491C1690.4 850.313 1690.34 848.475 1689.2 847.363Z" fill="#AABAFE"></path><path fill-rule="evenodd" clip-rule="evenodd" d="M1698.45 838.15C1699.7 839.397 1701.66 839.337 1702.85 838.016C1702.98 837.864 1703.1 837.698 1703.21 837.527C1701.8 836.106 1700.26 834.661 1698.64 833.202C1698.53 833.299 1698.42 833.391 1698.32 833.502C1697.13 834.827 1697.2 836.899 1698.45 838.15Z" fill="#AABAFE"></path><path fill-rule="evenodd" clip-rule="evenodd" d="M1619.54 949.233C1618.38 948.125 1616.57 948.174 1615.48 949.34C1614.4 950.522 1614.44 952.373 1615.6 953.482C1616.74 954.586 1618.56 954.537 1619.65 953.363C1620.74 952.189 1620.68 950.337 1619.54 949.233Z" fill="#AABAFE"></path><path fill-rule="evenodd" clip-rule="evenodd" d="M1632.65 934.202C1631.5 933.094 1629.69 933.143 1628.6 934.316C1627.51 935.486 1627.56 937.341 1628.71 938.449C1629.86 939.557 1631.67 939.507 1632.77 938.33C1633.85 937.156 1633.8 935.314 1632.65 934.202Z" fill="#AABAFE"></path><path fill-rule="evenodd" clip-rule="evenodd" d="M1647.4 919.17C1646.25 918.059 1644.44 918.116 1643.34 919.301C1642.26 920.462 1642.3 922.311 1643.46 923.415C1644.61 924.534 1646.42 924.473 1647.51 923.3C1648.6 922.127 1648.55 920.277 1647.4 919.17Z" fill="#AABAFE"></path><path fill-rule="evenodd" clip-rule="evenodd" d="M1660.51 904.144C1659.37 903.031 1657.55 903.085 1656.45 904.259C1655.37 905.437 1655.42 907.28 1656.57 908.389C1657.72 909.497 1659.53 909.448 1660.62 908.27C1661.72 907.1 1661.66 905.248 1660.51 904.144Z" fill="#AABAFE"></path><path fill-rule="evenodd" clip-rule="evenodd" d="M1674.44 889.94C1673.29 888.836 1671.48 888.893 1670.39 890.063C1669.3 891.236 1669.35 893.087 1670.5 894.194C1671.66 895.302 1673.47 895.249 1674.56 894.084C1675.65 892.902 1675.59 891.052 1674.44 889.94Z" fill="#AABAFE"></path><path fill-rule="evenodd" clip-rule="evenodd" d="M1687.55 873.247C1686.41 872.139 1684.59 872.189 1683.5 873.354C1682.42 874.54 1682.46 876.383 1683.61 877.495C1684.77 878.603 1686.58 878.55 1687.67 877.376C1688.76 876.202 1688.71 874.36 1687.55 873.247Z" fill="#AABAFE"></path><path fill-rule="evenodd" clip-rule="evenodd" d="M1702.31 859.049C1701.16 857.945 1699.34 857.991 1698.25 859.168C1697.17 860.34 1697.21 862.194 1698.37 863.301C1699.52 864.408 1701.33 864.351 1702.41 863.186C1703.51 862.005 1703.46 860.156 1702.31 859.049Z" fill="#AABAFE"></path><path fill-rule="evenodd" clip-rule="evenodd" d="M1711.48 849.79C1712.37 850.816 1713.64 850.994 1714.68 850.397C1713.68 848.597 1712.56 846.747 1711.31 844.893C1710.28 846.303 1710.34 848.473 1711.48 849.79Z" fill="#AABAFE"></path><path fill-rule="evenodd" clip-rule="evenodd" d="M1632.64 960.927C1631.5 959.811 1629.68 959.864 1628.59 961.042C1627.51 962.207 1627.56 964.065 1628.71 965.169C1629.86 966.277 1631.68 966.227 1632.77 965.054C1633.85 963.881 1633.8 962.035 1632.64 960.927Z" fill="#AABAFE"></path><path fill-rule="evenodd" clip-rule="evenodd" d="M1645.76 945.892C1644.61 944.784 1642.79 944.833 1641.71 946.006C1640.62 947.175 1640.67 949.025 1641.82 950.145C1642.97 951.252 1644.78 951.191 1645.87 950.018C1646.96 948.849 1646.92 946.999 1645.76 945.892Z" fill="#AABAFE"></path><path fill-rule="evenodd" clip-rule="evenodd" d="M1658.88 930.86C1657.72 929.751 1655.91 929.805 1654.82 930.983C1653.73 932.153 1653.77 934.004 1654.93 935.109C1656.08 936.217 1657.9 936.164 1658.99 935.002C1660.07 933.815 1660.02 931.968 1658.88 930.86Z" fill="#AABAFE"></path><path fill-rule="evenodd" clip-rule="evenodd" d="M1673.63 916.664C1672.47 915.557 1670.66 915.61 1669.57 916.783C1668.48 917.957 1668.53 919.803 1669.68 920.919C1670.84 922.027 1672.65 921.965 1673.73 920.792C1674.83 919.618 1674.77 917.772 1673.63 916.664Z" fill="#AABAFE"></path><path fill-rule="evenodd" clip-rule="evenodd" d="M1686.74 901.63C1685.59 900.526 1683.77 900.584 1682.68 901.754C1681.6 902.928 1681.64 904.779 1682.8 905.887C1683.94 906.996 1685.76 906.938 1686.86 905.764C1687.94 904.594 1687.88 902.743 1686.74 901.63Z" fill="#AABAFE"></path><path fill-rule="evenodd" clip-rule="evenodd" d="M1700.67 886.603C1699.52 885.5 1697.71 885.549 1696.61 886.722C1695.53 887.895 1695.58 889.749 1696.73 890.857C1697.88 891.965 1699.69 891.907 1700.78 890.738C1701.87 889.565 1701.82 887.715 1700.67 886.603Z" fill="#AABAFE"></path><path fill-rule="evenodd" clip-rule="evenodd" d="M1713.78 872.412C1712.62 871.303 1710.82 871.356 1709.71 872.518C1708.64 873.697 1708.69 875.55 1709.84 876.65C1710.99 877.767 1712.81 877.718 1713.89 876.544C1714.98 875.369 1714.93 873.517 1713.78 872.412Z" fill="#AABAFE"></path><path fill-rule="evenodd" clip-rule="evenodd" d="M1644.12 972.604C1642.97 971.5 1641.15 971.561 1640.07 972.723C1638.98 973.898 1639.03 975.746 1640.18 976.867C1641.34 977.963 1643.15 977.918 1644.23 976.74C1645.32 975.573 1645.28 973.717 1644.12 972.604Z" fill="#AABAFE"></path><path fill-rule="evenodd" clip-rule="evenodd" d="M1658.87 957.58C1657.73 956.477 1655.91 956.522 1654.82 957.699C1653.73 958.873 1653.78 960.719 1654.93 961.827C1656.09 962.943 1657.9 962.882 1658.99 961.712C1660.08 960.547 1660.02 958.684 1658.87 957.58Z" fill="#AABAFE"></path><path fill-rule="evenodd" clip-rule="evenodd" d="M1671.99 942.551C1670.83 941.442 1669.02 941.496 1667.93 942.67C1666.84 943.844 1666.89 945.691 1668.05 946.808C1669.19 947.904 1671.01 947.858 1672.1 946.68C1673.19 945.506 1673.14 943.659 1671.99 942.551Z" fill="#AABAFE"></path><path fill-rule="evenodd" clip-rule="evenodd" d="M1686.74 928.355C1685.58 927.247 1683.77 927.3 1682.69 928.474C1681.59 929.636 1681.65 931.496 1682.79 932.604C1683.95 933.713 1685.77 933.66 1686.85 932.49C1687.94 931.311 1687.89 929.464 1686.74 928.355Z" fill="#AABAFE"></path><path fill-rule="evenodd" clip-rule="evenodd" d="M1699.85 913.326C1698.69 912.214 1696.88 912.272 1695.8 913.446C1694.71 914.611 1694.75 916.462 1695.91 917.575C1697.06 918.683 1698.88 918.63 1699.96 917.456C1701.06 916.282 1700.99 914.431 1699.85 913.326Z" fill="#AABAFE"></path><path fill-rule="evenodd" clip-rule="evenodd" d="M1712.15 898.297C1710.99 897.189 1709.17 897.239 1708.08 898.404C1707 899.586 1707.05 901.433 1708.2 902.545C1709.36 903.653 1711.17 903.599 1712.25 902.426C1713.35 901.252 1713.29 899.401 1712.15 898.297Z" fill="#AABAFE"></path><path fill-rule="evenodd" clip-rule="evenodd" d="M1723.02 884.204C1721.91 885.383 1721.97 887.242 1723.14 888.355C1723.92 889.105 1725.01 889.311 1725.98 889.023C1725.78 887.225 1725.63 885.325 1725.47 883.322C1724.59 883.223 1723.68 883.507 1723.02 884.204Z" fill="#AABAFE"></path><path fill-rule="evenodd" clip-rule="evenodd" d="M1657.23 984.3C1656.09 983.192 1654.27 983.246 1653.18 984.419C1652.09 985.592 1652.14 987.438 1653.29 988.553C1654.45 989.661 1656.26 989.603 1657.35 988.426C1658.43 987.257 1658.39 985.407 1657.23 984.3Z" fill="#AABAFE"></path><path fill-rule="evenodd" clip-rule="evenodd" d="M1670.34 969.269C1669.2 968.164 1667.38 968.214 1666.29 969.388C1665.21 970.562 1665.25 972.41 1666.4 973.518C1667.56 974.627 1669.37 974.577 1670.46 973.403C1671.55 972.225 1671.5 970.381 1670.34 969.269Z" fill="#AABAFE"></path><path fill-rule="evenodd" clip-rule="evenodd" d="M1685.1 955.079C1683.95 953.966 1682.13 954.02 1681.04 955.19C1679.95 956.36 1680.01 958.216 1681.16 959.325C1682.31 960.433 1684.13 960.38 1685.21 959.206C1686.3 958.031 1686.25 956.184 1685.1 955.079Z" fill="#AABAFE"></path><path fill-rule="evenodd" clip-rule="evenodd" d="M1698.21 940.04C1697.06 938.936 1695.24 938.993 1694.15 940.167C1693.07 941.333 1693.12 943.193 1694.26 944.297C1695.42 945.405 1697.25 945.348 1698.32 944.178C1699.41 943.008 1699.36 941.153 1698.21 940.04Z" fill="#AABAFE"></path><path fill-rule="evenodd" clip-rule="evenodd" d="M1712.14 925.021C1710.99 923.913 1709.17 923.954 1708.09 925.128C1707 926.305 1707.05 928.148 1708.19 929.264C1709.36 930.371 1711.17 930.322 1712.25 929.149C1713.35 927.975 1713.29 926.129 1712.14 925.021Z" fill="#AABAFE"></path><path fill-rule="evenodd" clip-rule="evenodd" d="M1725.25 910.822C1724.1 909.711 1722.28 909.764 1721.19 910.941C1720.11 912.109 1720.16 913.962 1721.31 915.073C1722.46 916.18 1724.28 916.123 1725.37 914.946C1726.46 913.774 1726.4 911.933 1725.25 910.822Z" fill="#AABAFE"></path><path fill-rule="evenodd" clip-rule="evenodd" d="M1668.71 995.991C1667.56 994.883 1665.75 994.936 1664.66 996.11C1663.57 997.284 1663.61 999.132 1664.77 1000.24C1665.93 1001.35 1667.73 1001.3 1668.82 1000.13C1669.91 998.96 1669.85 997.1 1668.71 995.991Z" fill="#AABAFE"></path><path fill-rule="evenodd" clip-rule="evenodd" d="M1683.46 980.961C1682.31 979.852 1680.49 979.906 1679.41 981.08C1678.31 982.254 1678.37 984.101 1679.52 985.21C1680.67 986.318 1682.48 986.265 1683.58 985.095C1684.66 983.917 1684.61 982.069 1683.46 980.961Z" fill="#AABAFE"></path><path fill-rule="evenodd" clip-rule="evenodd" d="M1696.57 966.761C1695.43 965.657 1693.6 965.714 1692.51 966.88C1691.43 968.058 1691.48 969.913 1692.63 971.017C1693.79 972.125 1695.6 972.068 1696.69 970.894C1697.77 969.724 1697.72 967.873 1696.57 966.761Z" fill="#AABAFE"></path><path fill-rule="evenodd" clip-rule="evenodd" d="M1711.32 951.738C1710.17 950.63 1708.36 950.675 1707.26 951.857C1706.18 953.018 1706.23 954.877 1707.38 955.985C1708.53 957.093 1710.35 957.04 1711.43 955.866C1712.53 954.693 1712.47 952.846 1711.32 951.738Z" fill="#AABAFE"></path><path fill-rule="evenodd" clip-rule="evenodd" d="M1724.44 936.706C1723.29 935.599 1721.47 935.648 1720.38 936.821C1719.29 937.998 1719.34 939.843 1720.49 940.947C1721.65 942.066 1723.46 942.009 1724.54 940.836C1725.64 939.667 1725.59 937.813 1724.44 936.706Z" fill="#AABAFE"></path><path fill-rule="evenodd" clip-rule="evenodd" d="M1738.37 922.51C1737.21 921.402 1735.4 921.456 1734.3 922.629C1733.23 923.806 1733.27 925.655 1734.42 926.754C1735.58 927.874 1737.39 927.812 1738.48 926.64C1739.57 925.475 1739.52 923.625 1738.37 922.51Z" fill="#AABAFE"></path><path fill-rule="evenodd" clip-rule="evenodd" d="M1749.87 912.535C1749.07 912.26 1748.28 911.972 1747.51 911.667C1747.53 911.696 1747.56 911.73 1747.58 911.755C1748.22 912.368 1749.05 912.623 1749.87 912.535Z" fill="#AABAFE"></path><path fill-rule="evenodd" clip-rule="evenodd" d="M1694.93 993.486C1693.77 992.377 1691.97 992.431 1690.88 993.601C1689.79 994.779 1689.84 996.622 1690.99 997.735C1692.14 998.839 1693.95 998.794 1695.04 997.616C1696.13 996.442 1696.08 994.594 1694.93 993.486Z" fill="#AABAFE"></path><path fill-rule="evenodd" clip-rule="evenodd" d="M1709.69 978.46C1708.53 977.352 1706.72 977.393 1705.63 978.579C1704.54 979.74 1704.59 981.598 1705.75 982.706C1706.89 983.814 1708.71 983.76 1709.79 982.587C1710.88 981.414 1710.84 979.563 1709.69 978.46Z" fill="#AABAFE"></path><path fill-rule="evenodd" clip-rule="evenodd" d="M1722.8 963.426C1721.64 962.315 1719.83 962.372 1718.74 963.549C1717.65 964.71 1717.71 966.567 1718.85 967.675C1720.01 968.786 1721.82 968.729 1722.91 967.556C1724 966.383 1723.95 964.537 1722.8 963.426Z" fill="#AABAFE"></path><path fill-rule="evenodd" clip-rule="evenodd" d="M1737.55 949.231C1736.39 948.126 1734.58 948.171 1733.48 949.346C1732.4 950.525 1732.46 952.368 1733.6 953.477C1734.76 954.586 1736.57 954.537 1737.65 953.366C1738.75 952.188 1738.7 950.336 1737.55 949.231Z" fill="#AABAFE"></path><path fill-rule="evenodd" clip-rule="evenodd" d="M1749.84 934.207C1748.69 933.091 1746.87 933.144 1745.78 934.314C1744.69 935.487 1744.75 937.342 1745.9 938.45C1747.05 939.557 1748.86 939.508 1749.96 938.322C1751.04 937.157 1750.99 935.307 1749.84 934.207Z" fill="#AABAFE"></path><path fill-rule="evenodd" clip-rule="evenodd" d="M1764.59 919.173C1763.44 918.066 1761.63 918.111 1760.54 919.292C1759.45 920.469 1759.5 922.31 1760.65 923.417C1761.81 924.533 1763.62 924.471 1764.7 923.306C1765.79 922.134 1765.74 920.28 1764.59 919.173Z" fill="#AABAFE"></path><path fill-rule="evenodd" clip-rule="evenodd" d="M1721.16 990.146C1720 989.037 1718.19 989.091 1717.1 990.261C1716.02 991.427 1716.06 993.274 1717.22 994.395C1718.37 995.499 1720.18 995.454 1721.27 994.276C1722.36 993.102 1722.31 991.254 1721.16 990.146Z" fill="#AABAFE"></path><path fill-rule="evenodd" clip-rule="evenodd" d="M1735.91 975.114C1734.75 974.006 1732.94 974.06 1731.85 975.237C1730.77 976.406 1730.81 978.259 1731.97 979.367C1733.12 980.474 1734.94 980.416 1736.02 979.252C1737.11 978.079 1737.06 976.221 1735.91 975.114Z" fill="#AABAFE"></path><path fill-rule="evenodd" clip-rule="evenodd" d="M1749.02 960.923C1747.87 959.812 1746.05 959.865 1744.96 961.038C1743.88 962.211 1743.93 964.056 1745.08 965.163C1746.23 966.283 1748.05 966.225 1749.13 965.048C1750.22 963.876 1750.17 962.026 1749.02 960.923Z" fill="#AABAFE"></path><path fill-rule="evenodd" clip-rule="evenodd" d="M1762.95 945.897C1761.8 944.781 1759.98 944.834 1758.9 946.008C1757.81 947.186 1757.86 949.029 1759.01 950.141C1760.16 951.246 1761.98 951.196 1763.07 950.027C1764.15 948.844 1764.1 946.997 1762.95 945.897Z" fill="#AABAFE"></path><path fill-rule="evenodd" clip-rule="evenodd" d="M1776.06 930.86C1774.91 929.752 1773.09 929.805 1772.01 930.979C1770.92 932.148 1770.97 933.999 1772.12 935.111C1773.27 936.219 1775.09 936.165 1776.18 934.988C1777.26 933.822 1777.22 931.968 1776.06 930.86Z" fill="#AABAFE"></path><path fill-rule="evenodd" clip-rule="evenodd" d="M1790.07 920.479C1788.71 920.241 1787.34 919.999 1785.98 919.773C1786.1 919.974 1786.24 920.17 1786.41 920.341C1787.44 921.372 1789.01 921.406 1790.07 920.479Z" fill="#AABAFE"></path><path fill-rule="evenodd" clip-rule="evenodd" d="M1747.38 987.637C1746.23 986.537 1744.41 986.582 1743.32 987.756C1742.24 988.93 1742.28 990.789 1743.43 991.885C1744.59 993.002 1746.41 992.944 1747.49 991.77C1748.58 990.592 1748.53 988.749 1747.38 987.637Z" fill="#AABAFE"></path><path fill-rule="evenodd" clip-rule="evenodd" d="M1762.13 972.609C1760.97 971.502 1759.17 971.555 1758.08 972.728C1756.98 973.897 1757.04 975.746 1758.19 976.857C1759.34 977.965 1761.16 977.919 1762.24 976.743C1763.33 975.562 1763.29 973.716 1762.13 972.609Z" fill="#AABAFE"></path><path fill-rule="evenodd" clip-rule="evenodd" d="M1775.24 957.581C1774.1 956.472 1772.28 956.526 1771.19 957.7C1770.1 958.866 1770.15 960.722 1771.31 961.83C1772.45 962.939 1774.27 962.885 1775.36 961.715C1776.45 960.545 1776.39 958.689 1775.24 957.581Z" fill="#AABAFE"></path><path fill-rule="evenodd" clip-rule="evenodd" d="M1789.18 942.552C1788.03 941.444 1786.2 941.493 1785.13 942.671C1784.03 943.832 1784.08 945.691 1785.23 946.803C1786.39 947.911 1788.2 947.853 1789.29 946.68C1790.38 945.514 1790.32 943.66 1789.18 942.552Z" fill="#AABAFE"></path><path fill-rule="evenodd" clip-rule="evenodd" d="M1802.29 928.358C1801.14 927.25 1799.32 927.299 1798.23 928.465C1797.15 929.642 1797.2 931.497 1798.35 932.605C1799.5 933.713 1801.31 933.66 1802.4 932.486C1803.49 931.313 1803.44 929.462 1802.29 928.358Z" fill="#AABAFE"></path><path fill-rule="evenodd" clip-rule="evenodd" d="M1760.5 1000.17C1759.34 999.057 1757.53 999.111 1756.43 1000.28C1755.35 1001.46 1755.4 1003.31 1756.55 1004.41C1757.71 1005.52 1759.52 1005.47 1760.61 1004.31C1761.7 1003.13 1761.64 1001.27 1760.5 1000.17Z" fill="#AABAFE"></path><path fill-rule="evenodd" clip-rule="evenodd" d="M1775.23 984.3C1774.09 983.193 1772.28 983.246 1771.19 984.415C1770.1 985.592 1770.15 987.437 1771.3 988.549C1772.45 989.656 1774.27 989.611 1775.35 988.426C1776.45 987.253 1776.4 985.407 1775.23 984.3Z" fill="#AABAFE"></path><path fill-rule="evenodd" clip-rule="evenodd" d="M1787.54 969.27C1786.38 968.166 1784.57 968.211 1783.48 969.389C1782.39 970.555 1782.44 972.411 1783.59 973.52C1784.75 974.629 1786.57 974.575 1787.65 973.401C1788.74 972.235 1788.68 970.379 1787.54 969.27Z" fill="#AABAFE"></path><path fill-rule="evenodd" clip-rule="evenodd" d="M1800.65 955.079C1799.5 953.963 1797.68 954.021 1796.59 955.198C1795.51 956.37 1795.56 958.219 1796.71 959.326C1797.86 960.433 1799.68 960.38 1800.76 959.203C1801.85 958.031 1801.8 956.19 1800.65 955.079Z" fill="#AABAFE"></path><path fill-rule="evenodd" clip-rule="evenodd" d="M1815.4 940.046C1814.25 938.938 1812.44 938.987 1811.34 940.173C1810.26 941.334 1810.31 943.179 1811.46 944.291C1812.62 945.407 1814.43 945.349 1815.51 944.176C1816.6 943.007 1816.55 941.157 1815.4 940.046Z" fill="#AABAFE"></path><path fill-rule="evenodd" clip-rule="evenodd" d="M1827.77 930.148C1826.41 929.614 1825.04 929.109 1823.67 928.633C1823.81 929.088 1824.02 929.497 1824.36 929.852C1825.32 930.816 1826.73 930.912 1827.77 930.148Z" fill="#AABAFE"></path><path fill-rule="evenodd" clip-rule="evenodd" d="M1786.71 997.658C1785.56 996.555 1783.75 996.604 1782.66 997.781C1781.57 998.955 1781.63 1000.81 1782.78 1001.91C1783.93 1003.02 1785.74 1002.96 1786.83 1001.79C1787.92 1000.62 1787.87 998.766 1786.71 997.658Z" fill="#AABAFE"></path><path fill-rule="evenodd" clip-rule="evenodd" d="M1800.65 982.631C1799.5 981.523 1797.68 981.576 1796.6 982.746C1795.51 983.916 1795.56 985.772 1796.71 986.88C1797.86 987.989 1799.68 987.935 1800.76 986.761C1801.85 985.587 1801.8 983.74 1800.65 982.631Z" fill="#AABAFE"></path><path fill-rule="evenodd" clip-rule="evenodd" d="M1813.76 968.441C1812.61 967.326 1810.8 967.379 1809.7 968.552C1808.62 969.733 1808.67 971.582 1809.82 972.681C1810.97 973.796 1812.79 973.739 1813.87 972.566C1814.96 971.394 1814.91 969.54 1813.76 968.441Z" fill="#AABAFE"></path><path fill-rule="evenodd" clip-rule="evenodd" d="M1826.88 953.412C1825.72 952.292 1823.91 952.354 1822.82 953.519C1821.73 954.692 1821.78 956.55 1822.94 957.653C1824.09 958.765 1825.9 958.712 1826.98 957.526C1828.08 956.365 1828.03 954.515 1826.88 953.412Z" fill="#AABAFE"></path><path fill-rule="evenodd" clip-rule="evenodd" d="M1841.62 938.375C1840.47 937.271 1838.66 937.316 1837.57 938.498C1836.48 939.667 1836.53 941.513 1837.68 942.629C1838.83 943.737 1840.64 943.676 1841.73 942.506C1842.83 941.337 1842.77 939.495 1841.62 938.375Z" fill="#AABAFE"></path><path fill-rule="evenodd" clip-rule="evenodd" d="M1812.12 994.328C1810.97 993.209 1809.15 993.266 1808.07 994.435C1806.98 995.616 1807.03 997.465 1808.19 998.572C1809.33 999.675 1811.15 999.626 1812.24 998.453C1813.33 997.281 1813.27 995.431 1812.12 994.328Z" fill="#AABAFE"></path><path fill-rule="evenodd" clip-rule="evenodd" d="M1826.87 980.129C1825.72 979.02 1823.91 979.065 1822.82 980.248C1821.73 981.41 1821.78 983.274 1822.93 984.37C1824.09 985.483 1825.9 985.433 1826.99 984.259C1828.07 983.085 1828.03 981.233 1826.87 980.129Z" fill="#AABAFE"></path><path fill-rule="evenodd" clip-rule="evenodd" d="M1839.98 965.094C1838.83 963.99 1837.02 964.039 1835.93 965.213C1834.84 966.387 1834.89 968.239 1836.05 969.343C1837.2 970.452 1839.01 970.402 1840.1 969.228C1841.19 968.054 1841.13 966.202 1839.98 965.094Z" fill="#AABAFE"></path><path fill-rule="evenodd" clip-rule="evenodd" d="M1854.73 950.063C1853.59 948.959 1851.77 949.008 1850.68 950.186C1849.6 951.355 1849.64 953.201 1850.79 954.317C1851.95 955.425 1853.77 955.368 1854.85 954.194C1855.94 953.029 1855.89 951.17 1854.73 950.063Z" fill="#AABAFE"></path><path fill-rule="evenodd" clip-rule="evenodd" d="M1838.34 991.814C1837.19 990.707 1835.38 990.76 1834.29 991.933C1833.2 993.106 1833.26 994.964 1834.41 996.067C1835.56 997.166 1837.38 997.125 1838.46 995.952C1839.55 994.775 1839.5 992.922 1838.34 991.814Z" fill="#AABAFE"></path><path fill-rule="evenodd" clip-rule="evenodd" d="M1853.09 976.785C1851.94 975.68 1850.13 975.729 1849.04 976.904C1847.95 978.078 1848 979.93 1849.16 981.035C1850.31 982.144 1852.12 982.09 1853.21 980.92C1854.3 979.754 1854.25 977.897 1853.09 976.785Z" fill="#AABAFE"></path><path fill-rule="evenodd" clip-rule="evenodd" d="M1866.21 961.754C1865.07 960.65 1863.24 960.699 1862.16 961.873C1861.07 963.047 1861.11 964.894 1862.27 966.011C1863.43 967.111 1865.24 967.061 1866.33 965.887C1867.41 964.718 1867.36 962.862 1866.21 961.754Z" fill="#AABAFE"></path><path fill-rule="evenodd" clip-rule="evenodd" d="M1864.57 988.475C1863.42 987.371 1861.61 987.416 1860.51 988.594C1859.43 989.768 1859.48 991.614 1860.63 992.722C1861.79 993.83 1863.6 993.785 1864.68 992.607C1865.78 991.434 1865.72 989.583 1864.57 988.475Z" fill="#AABAFE"></path><path fill-rule="evenodd" clip-rule="evenodd" d="M1879.32 974.28C1878.18 973.172 1876.36 973.225 1875.27 974.399C1874.18 975.574 1874.23 977.421 1875.38 978.526C1876.53 979.638 1878.35 979.585 1879.44 978.415C1880.52 977.236 1880.47 975.389 1879.32 974.28Z" fill="#AABAFE"></path><path fill-rule="evenodd" clip-rule="evenodd" d="M1877.68 1000.16C1876.53 999.06 1874.72 999.109 1873.62 1000.28C1872.54 1001.46 1872.59 1003.31 1873.74 1004.42C1874.9 1005.52 1876.71 1005.47 1877.79 1004.3C1878.89 1003.13 1878.83 1001.28 1877.68 1000.16Z" fill="#AABAFE"></path><path fill-rule="evenodd" clip-rule="evenodd" d="M1890.79 985.972C1889.64 984.864 1887.83 984.913 1886.74 986.091C1885.66 987.265 1885.7 989.112 1886.85 990.22C1888.01 991.328 1889.82 991.275 1890.91 990.105C1892 988.927 1891.95 987.08 1890.79 985.972Z" fill="#AABAFE"></path><path fill-rule="evenodd" clip-rule="evenodd" d="M1899.85 997.774C1898.76 998.953 1898.82 1000.8 1899.96 1001.91C1901.12 1003.02 1902.94 1002.97 1904.03 1001.8C1904.55 1001.23 1904.8 1000.51 1904.8 999.791C1904.49 999.051 1904.16 998.324 1903.82 997.585C1902.67 996.562 1900.92 996.628 1899.85 997.774Z" fill="#AABAFE"></path></g><path opacity="0.5" d="M338 1000C338 827.154 199.861 687 29.5 687C19.5497 687 9.70935 687.478 -3.27778e-06 688.413L0 1000L338 1000Z" fill="white"></path><mask id="mask1_844_27385" style="mask-type:alpha" maskUnits="userSpaceOnUse" x="1605" y="0" width="236" height="81"><rect x="1605" width="236" height="81" fill="#C4C4C4"></rect></mask><g mask="url(#mask1_844_27385)"><path fill-rule="evenodd" clip-rule="evenodd" d="M1615.88 -12.0348C1617.07 -13.1973 1617.01 -15.0582 1615.75 -16.1674C1614.47 -17.2765 1612.47 -17.2354 1611.28 -16.0482C1611.17 -15.9496 1611.09 -15.8305 1611 -15.7114C1611.53 -14.1997 1612.07 -12.7085 1612.64 -11.2625C1613.75 -10.938 1615.02 -11.1845 1615.88 -12.0348Z" fill="#728DF4"></path><path fill-rule="evenodd" clip-rule="evenodd" d="M1628.96 -31.2023C1627.8 -32.3108 1625.98 -32.2574 1624.9 -31.0832C1623.81 -29.9089 1623.85 -28.0613 1625.01 -26.9527C1626.16 -25.8442 1627.98 -25.8975 1629.06 -27.0718C1630.15 -28.2461 1630.1 -30.0937 1628.96 -31.2023Z" fill="#728DF4"></path><path fill-rule="evenodd" clip-rule="evenodd" d="M1627.31 -4.47564C1626.15 -5.59099 1624.34 -5.5377 1623.25 -4.36904C1622.17 -3.19629 1622.21 -1.33874 1623.37 -0.231592C1624.53 0.875553 1626.34 0.822235 1627.43 -0.350519C1628.51 -1.52327 1628.46 -3.3685 1627.31 -4.47564Z" fill="#728DF4"></path><path fill-rule="evenodd" clip-rule="evenodd" d="M1642.06 -19.5031C1640.91 -20.6219 1639.1 -20.5686 1638 -19.3965C1636.92 -18.2121 1636.97 -16.3678 1638.12 -15.2612C1639.27 -14.1546 1641.09 -14.2079 1642.18 -15.3801C1643.26 -16.5522 1643.21 -18.3965 1642.06 -19.5031Z" fill="#728DF4"></path><path fill-rule="evenodd" clip-rule="evenodd" d="M1640.42 7.20709C1639.27 6.09967 1637.46 6.153 1636.36 7.32605C1635.28 8.5073 1635.33 10.3571 1636.48 11.4645C1637.64 12.5597 1639.45 12.5145 1640.54 11.3456C1641.63 10.1725 1641.57 8.31452 1640.42 7.20709Z" fill="#728DF4"></path><path fill-rule="evenodd" clip-rule="evenodd" d="M1653.53 -7.81282C1652.38 -8.93194 1650.58 -8.87863 1649.48 -7.70622C1648.39 -6.53381 1648.44 -4.68911 1649.6 -3.56999C1650.75 -2.46317 1652.56 -2.51647 1653.65 -3.70118C1654.74 -4.8613 1654.68 -6.70599 1653.53 -7.81282Z" fill="#728DF4"></path><path fill-rule="evenodd" clip-rule="evenodd" d="M1667.46 -22.0244C1666.31 -23.1254 1664.5 -23.0679 1663.41 -21.9053C1662.32 -20.7303 1662.38 -18.8693 1663.53 -17.7725C1664.67 -16.6633 1666.5 -16.7085 1667.58 -17.8793C1668.67 -19.0542 1668.62 -20.907 1667.46 -22.0244Z" fill="#728DF4"></path><path fill-rule="evenodd" clip-rule="evenodd" d="M1653.54 18.894C1652.38 17.7947 1650.57 17.8398 1649.47 19.0129C1648.4 20.186 1648.44 22.044 1649.6 23.1392C1650.75 24.2589 1652.56 24.2015 1653.65 23.0325C1654.73 21.8472 1654.69 20.0096 1653.54 18.894Z" fill="#728DF4"></path><path fill-rule="evenodd" clip-rule="evenodd" d="M1666.64 4.70239C1665.49 3.59449 1663.68 3.64786 1662.59 4.82141C1661.5 5.99496 1661.56 7.85377 1662.7 8.95346C1663.86 10.0614 1665.68 10.0039 1666.76 8.84268C1667.85 7.66913 1667.8 5.81029 1666.64 4.70239Z" fill="#728DF4"></path><path fill-rule="evenodd" clip-rule="evenodd" d="M1679.76 -10.3285C1678.61 -11.4352 1676.8 -11.382 1675.7 -10.2096C1674.62 -9.03723 1674.67 -7.19259 1675.81 -6.07351C1676.97 -4.96674 1678.79 -5.02412 1679.87 -6.20468C1680.96 -7.37704 1680.91 -9.22168 1679.76 -10.3285Z" fill="#728DF4"></path><path fill-rule="evenodd" clip-rule="evenodd" d="M1693.69 -25.355C1692.54 -26.4626 1690.73 -26.4175 1689.63 -25.236C1688.55 -24.0628 1688.59 -22.2168 1689.75 -21.1051C1690.9 -19.9975 1692.72 -20.0549 1693.8 -21.2281C1694.9 -22.4014 1694.84 -24.2474 1693.69 -25.355Z" fill="#728DF4"></path><path fill-rule="evenodd" clip-rule="evenodd" d="M1665.01 30.5874C1663.85 29.4797 1662.05 29.533 1660.95 30.7064C1659.87 31.8798 1659.91 33.726 1661.07 34.8338C1662.22 35.9415 1664.03 35.8964 1665.12 34.7271C1666.21 33.5414 1666.16 31.6952 1665.01 30.5874Z" fill="#728DF4"></path><path fill-rule="evenodd" clip-rule="evenodd" d="M1679.76 16.3927C1678.61 15.2845 1676.79 15.3378 1675.71 16.5117C1674.62 17.6855 1674.66 19.5448 1675.82 20.6447C1676.97 21.7529 1678.78 21.6954 1679.87 20.5216C1680.96 19.3478 1680.91 17.5008 1679.76 16.3927Z" fill="#728DF4"></path><path fill-rule="evenodd" clip-rule="evenodd" d="M1692.05 1.3629C1690.9 0.25433 1689.09 0.307682 1688 1.48195C1686.91 2.65622 1686.96 4.50384 1688.11 5.61241C1689.26 6.72099 1691.08 6.6676 1692.17 5.49333C1693.25 4.31907 1693.2 2.47147 1692.05 1.3629Z" fill="#728DF4"></path><path fill-rule="evenodd" clip-rule="evenodd" d="M1706.81 -13.6667C1705.65 -14.7747 1703.84 -14.7213 1702.74 -13.5559C1701.66 -12.374 1701.71 -10.5274 1702.86 -9.41529C1704.01 -8.3073 1705.83 -8.36475 1706.91 -9.5384C1708.01 -10.712 1707.95 -12.5587 1706.81 -13.6667Z" fill="#728DF4"></path><path fill-rule="evenodd" clip-rule="evenodd" d="M1719.91 -27.8611C1718.76 -28.9694 1716.95 -28.916 1715.86 -27.7543C1714.78 -26.568 1714.82 -24.729 1715.97 -23.6125C1717.12 -22.5042 1718.94 -22.5576 1720.03 -23.7316C1721.12 -24.9056 1721.07 -26.7527 1719.91 -27.8611Z" fill="#728DF4"></path><path fill-rule="evenodd" clip-rule="evenodd" d="M1678.12 43.1127C1676.97 42.0047 1675.16 42.058 1674.07 43.2317C1672.97 44.4053 1673.03 46.252 1674.18 47.36C1675.34 48.468 1677.15 48.4229 1678.23 47.2411C1679.32 46.0674 1679.27 44.2207 1678.12 43.1127Z" fill="#728DF4"></path><path fill-rule="evenodd" clip-rule="evenodd" d="M1691.23 28.0851C1690.08 26.9777 1688.26 27.0229 1687.18 28.204C1686.09 29.377 1686.14 31.2266 1687.29 32.334C1688.44 33.4413 1690.26 33.3839 1691.34 32.2233C1692.44 31.0503 1692.38 29.2047 1691.23 28.0851Z" fill="#728DF4"></path><path fill-rule="evenodd" clip-rule="evenodd" d="M1705.16 13.0529C1704.02 11.9443 1702.2 11.9977 1701.11 13.172C1700.02 14.3463 1700.07 16.1939 1701.23 17.3025C1702.37 18.411 1704.19 18.3576 1705.28 17.1834C1706.36 16.0091 1706.32 14.1615 1705.16 13.0529Z" fill="#728DF4"></path><path fill-rule="evenodd" clip-rule="evenodd" d="M1718.28 -1.14241C1717.12 -2.25057 1715.31 -2.19722 1714.22 -1.02339C1713.13 0.15044 1713.18 1.99738 1714.34 3.10964C1715.48 4.2178 1717.3 4.16033 1718.39 2.9865C1719.48 1.81267 1719.42 -0.0342484 1718.28 -1.14241Z" fill="#728DF4"></path><path fill-rule="evenodd" clip-rule="evenodd" d="M1733.02 -16.1792C1731.88 -17.2743 1730.06 -17.2332 1728.97 -16.0479C1727.89 -14.8872 1727.93 -13.0292 1729.09 -11.9218C1730.24 -10.8144 1732.06 -10.8677 1733.14 -12.0407C1734.23 -13.2138 1734.18 -15.0677 1733.02 -16.1792Z" fill="#728DF4"></path><path fill-rule="evenodd" clip-rule="evenodd" d="M1746.14 -31.2033C1744.99 -32.3104 1743.18 -32.2571 1742.08 -31.0844C1741 -29.9117 1741.05 -28.0543 1742.2 -26.9472C1743.35 -25.8401 1745.16 -25.9058 1746.25 -27.0661C1747.34 -28.2511 1747.29 -30.0839 1746.14 -31.2033Z" fill="#728DF4"></path><path fill-rule="evenodd" clip-rule="evenodd" d="M1689.59 54.8031C1688.44 53.6945 1686.64 53.7479 1685.54 54.9222C1684.45 56.0964 1684.5 57.9441 1685.65 59.0526C1686.81 60.1612 1688.62 60.1078 1689.71 58.9336C1690.8 57.7593 1690.74 55.9117 1689.59 54.8031Z" fill="#728DF4"></path><path fill-rule="evenodd" clip-rule="evenodd" d="M1704.34 39.7727C1703.19 38.6646 1701.38 38.718 1700.29 39.8918C1699.2 41.0656 1699.25 42.9166 1700.4 44.0248C1701.56 45.133 1703.37 45.0755 1704.46 43.9017C1705.55 42.7402 1705.49 40.885 1704.34 39.7727Z" fill="#728DF4"></path><path fill-rule="evenodd" clip-rule="evenodd" d="M1716.64 24.738C1715.49 23.6265 1713.67 23.6962 1712.58 24.8692C1711.49 26.0299 1711.55 27.8879 1712.7 28.9953C1713.84 30.1027 1715.67 30.0453 1716.75 28.8722C1717.84 27.7033 1717.79 25.8454 1716.64 24.738Z" fill="#728DF4"></path><path fill-rule="evenodd" clip-rule="evenodd" d="M1731.39 10.5491C1730.24 9.44018 1728.43 9.49355 1727.34 10.6599C1726.24 11.8304 1726.3 13.695 1727.45 14.8039C1728.6 15.9005 1730.42 15.8553 1731.5 14.6807C1732.59 13.5061 1732.54 11.6621 1731.39 10.5491Z" fill="#728DF4"></path><path fill-rule="evenodd" clip-rule="evenodd" d="M1744.5 -4.48746C1743.36 -5.58673 1741.53 -5.54161 1740.44 -4.35621C1739.36 -3.19542 1739.41 -1.34964 1740.56 -0.229864C1741.71 0.877605 1743.52 0.820187 1744.62 -0.352911C1745.7 -1.52191 1745.65 -3.38 1744.5 -4.48746Z" fill="#728DF4"></path><path fill-rule="evenodd" clip-rule="evenodd" d="M1759.25 -19.5149C1758.1 -20.6216 1756.28 -20.5683 1755.2 -19.3837C1754.11 -18.2237 1754.16 -16.379 1755.31 -15.26C1756.47 -14.1532 1758.28 -14.2065 1759.37 -15.3912C1760.45 -16.5635 1760.4 -18.4081 1759.25 -19.5149Z" fill="#728DF4"></path><path fill-rule="evenodd" clip-rule="evenodd" d="M1702.64 66.9277C1701.39 65.8004 1699.43 65.8547 1698.25 67.0488C1698.1 67.2032 1697.98 67.3702 1697.87 67.5372C1699.77 68.2303 1701.68 68.8482 1703.58 69.4494C1703.69 68.5434 1703.39 67.6041 1702.64 66.9277Z" fill="#728DF4"></path><path fill-rule="evenodd" clip-rule="evenodd" d="M1715.82 51.4654C1714.66 50.3578 1712.85 50.4029 1711.76 51.5843C1710.68 52.7576 1710.72 54.6077 1711.87 55.7152C1713.03 56.8228 1714.85 56.7654 1715.93 55.5922C1717.02 54.419 1716.97 52.5771 1715.82 51.4654Z" fill="#728DF4"></path><path fill-rule="evenodd" clip-rule="evenodd" d="M1729.75 37.2734C1728.6 36.1537 1726.78 36.2193 1725.69 37.38C1724.61 38.553 1724.66 40.411 1725.81 41.5184C1726.96 42.6258 1728.78 42.5725 1729.86 41.3995C1730.95 40.2264 1730.9 38.3808 1729.75 37.2734Z" fill="#728DF4"></path><path fill-rule="evenodd" clip-rule="evenodd" d="M1742.86 22.2338C1741.71 21.1348 1739.89 21.1799 1738.8 22.3527C1737.72 23.5255 1737.77 25.3831 1738.91 26.4779C1740.07 27.5974 1741.89 27.5441 1742.97 26.3713C1744.06 25.1986 1744.01 23.3533 1742.86 22.2338Z" fill="#728DF4"></path><path fill-rule="evenodd" clip-rule="evenodd" d="M1757.61 7.19992C1756.46 6.10007 1754.65 6.15754 1753.56 7.31894C1752.47 8.49265 1752.52 10.3394 1753.67 11.4598C1754.83 12.5678 1756.65 12.5103 1757.72 11.3366C1758.82 10.167 1758.76 8.31617 1757.61 7.19992Z" fill="#728DF4"></path><path fill-rule="evenodd" clip-rule="evenodd" d="M1770.72 -7.81769C1769.58 -8.92708 1767.76 -8.88189 1766.67 -7.70675C1765.58 -6.53573 1765.63 -4.68263 1766.79 -3.57324C1767.94 -2.46385 1769.75 -2.51725 1770.84 -3.69238C1771.93 -4.86752 1771.87 -6.71651 1770.72 -7.81769Z" fill="#728DF4"></path><path fill-rule="evenodd" clip-rule="evenodd" d="M1785.47 -22.0169C1784.32 -23.1278 1782.51 -23.0704 1781.42 -21.898C1780.33 -20.7379 1780.38 -18.881 1781.54 -17.7742C1782.69 -16.6551 1784.5 -16.7124 1785.59 -17.893C1786.68 -19.0654 1786.63 -20.9101 1785.47 -22.0169Z" fill="#728DF4"></path><path fill-rule="evenodd" clip-rule="evenodd" d="M1728.93 64.8226C1727.78 63.714 1725.96 63.7715 1724.87 64.9335C1723.79 66.116 1723.83 67.9677 1724.99 69.064C1726.14 70.1849 1727.95 70.1274 1729.04 68.9531C1730.14 67.7706 1730.08 65.9353 1728.93 64.8226Z" fill="#728DF4"></path><path fill-rule="evenodd" clip-rule="evenodd" d="M1742.05 49.8012C1740.89 48.6817 1739.08 48.7391 1737.99 49.9078C1736.9 51.0805 1736.95 52.938 1738.1 54.0451C1739.25 55.1522 1741.07 55.0988 1742.15 53.9138C1743.25 52.7534 1743.19 50.9083 1742.05 49.8012Z" fill="#728DF4"></path><path fill-rule="evenodd" clip-rule="evenodd" d="M1755.97 35.5974C1754.82 34.4897 1753.01 34.543 1751.91 35.7164C1750.83 36.8898 1750.88 38.736 1752.03 39.8437C1753.19 40.9515 1755 40.9104 1756.09 39.7247C1757.18 38.5637 1757.12 36.7051 1755.97 35.5974Z" fill="#728DF4"></path><path fill-rule="evenodd" clip-rule="evenodd" d="M1769.08 20.5641C1767.93 19.4647 1766.12 19.5098 1765.03 20.6831C1763.94 21.8564 1763.99 23.7026 1765.15 24.8226C1766.3 25.9302 1768.11 25.8646 1769.2 24.7036C1770.29 23.518 1770.24 21.68 1769.08 20.5641Z" fill="#728DF4"></path><path fill-rule="evenodd" clip-rule="evenodd" d="M1783.84 4.70288C1782.68 3.59431 1780.87 3.64769 1779.78 4.82196C1778.7 5.99623 1778.74 7.85617 1779.89 8.95242C1781.05 10.061 1782.87 10.0076 1783.95 8.83334C1785.04 7.6714 1784.99 5.81145 1783.84 4.70288Z" fill="#728DF4"></path><path fill-rule="evenodd" clip-rule="evenodd" d="M1796.94 -10.3258C1795.8 -11.4382 1793.98 -11.3807 1792.89 -10.2068C1791.81 -9.03281 1791.86 -7.18569 1793.01 -6.07742C1794.16 -4.96915 1795.98 -5.02252 1797.06 -6.19647C1798.15 -7.37041 1798.1 -9.21753 1796.94 -10.3258Z" fill="#728DF4"></path><path fill-rule="evenodd" clip-rule="evenodd" d="M1810.88 -25.3572C1809.73 -26.4658 1807.92 -26.4124 1806.82 -25.2382C1805.74 -24.0762 1805.79 -22.2163 1806.94 -21.1077C1808.08 -19.9991 1809.9 -20.0525 1810.99 -21.2268C1812.08 -22.401 1812.04 -24.2487 1810.88 -25.3572Z" fill="#728DF4"></path><path fill-rule="evenodd" clip-rule="evenodd" d="M1737.97 75.4637C1738.84 75.4637 1739.69 75.4554 1740.53 75.4094C1739.72 75.0212 1738.76 75.042 1737.97 75.4637Z" fill="#728DF4"></path><path fill-rule="evenodd" clip-rule="evenodd" d="M1754.33 62.3243C1753.19 61.2035 1751.37 61.2691 1750.28 62.4311C1749.19 63.6054 1749.24 65.4571 1750.39 66.5739C1751.54 67.6742 1753.36 67.6208 1754.44 66.4548C1755.54 65.2805 1755.49 63.4329 1754.33 62.3243Z" fill="#728DF4"></path><path fill-rule="evenodd" clip-rule="evenodd" d="M1769.09 47.287C1767.93 46.1799 1766.12 46.2333 1765.03 47.4059C1763.94 48.5786 1763.99 50.4237 1765.15 51.5431C1766.3 52.6502 1768.11 52.5846 1769.2 51.4242C1770.29 50.2392 1770.23 48.3941 1769.09 47.287Z" fill="#728DF4"></path><path fill-rule="evenodd" clip-rule="evenodd" d="M1782.2 32.2576C1781.05 31.1496 1779.23 31.203 1778.15 32.3766C1777.06 33.5503 1777.1 35.397 1778.25 36.505C1779.41 37.613 1781.22 37.5679 1782.32 36.386C1783.4 35.2123 1783.35 33.3656 1782.2 32.2576Z" fill="#728DF4"></path><path fill-rule="evenodd" clip-rule="evenodd" d="M1795.31 18.063C1794.16 16.9544 1792.34 17.0078 1791.26 18.182C1790.17 19.3563 1790.21 21.2039 1791.37 22.3125C1792.53 23.4211 1794.34 23.3677 1795.42 22.1934C1796.51 21.0191 1796.46 19.1715 1795.31 18.063Z" fill="#728DF4"></path><path fill-rule="evenodd" clip-rule="evenodd" d="M1810.06 3.02208C1808.91 1.92615 1807.09 1.97951 1806 3.15343C1804.92 4.32735 1804.97 6.17443 1806.12 7.28267C1807.28 8.39091 1809.09 8.33754 1810.17 7.16362C1811.27 5.9897 1811.21 4.14264 1810.06 3.02208Z" fill="#728DF4"></path><path fill-rule="evenodd" clip-rule="evenodd" d="M1823.17 -11.9972C1822.03 -13.1058 1820.21 -13.0524 1819.12 -11.8781C1818.03 -10.7162 1818.08 -8.85622 1819.23 -7.74765C1820.39 -6.63908 1822.21 -6.69247 1823.28 -7.86673C1824.38 -9.04099 1824.32 -10.8886 1823.17 -11.9972Z" fill="#728DF4"></path><path fill-rule="evenodd" clip-rule="evenodd" d="M1833.32 -23.1539C1833.44 -23.0211 1833.57 -22.9112 1833.71 -22.815C1834.03 -24.7893 1834.32 -26.7315 1834.58 -28.66C1834.08 -28.5134 1833.59 -28.2202 1833.21 -27.7484C1832.1 -26.4383 1832.15 -24.377 1833.32 -23.1539Z" fill="#728DF4"></path><path fill-rule="evenodd" clip-rule="evenodd" d="M1776.52 57.5695C1775.41 58.9261 1775.46 61.0605 1776.64 62.3412C1776.64 62.3412 1776.64 62.3412 1776.64 62.3554C1778.3 61.236 1779.9 60.0692 1781.46 58.9024C1781.31 58.3616 1781.06 57.8446 1780.68 57.432C1779.5 56.1513 1777.64 56.213 1776.52 57.5695Z" fill="#728DF4"></path><path fill-rule="evenodd" clip-rule="evenodd" d="M1795.31 43.9481C1794.16 42.8395 1792.34 42.8929 1791.25 44.0671C1790.17 45.2414 1790.21 47.089 1791.37 48.1976C1792.53 49.3061 1794.34 49.2528 1795.42 48.0785C1796.52 46.9166 1796.46 45.0566 1795.31 43.9481Z" fill="#728DF4"></path><path fill-rule="evenodd" clip-rule="evenodd" d="M1804.48 34.0025C1805.63 35.1111 1807.45 35.0577 1808.54 33.8835C1809.63 32.7092 1809.57 30.8616 1808.42 29.753C1807.27 28.6444 1805.45 28.6978 1804.37 29.8721C1803.28 31.034 1803.33 32.894 1804.48 34.0025Z" fill="#728DF4"></path><path fill-rule="evenodd" clip-rule="evenodd" d="M1817.43 14.885C1816.41 16.0988 1816.46 18.0418 1817.54 19.1998C1817.77 19.44 1818.03 19.6201 1818.31 19.7702C1819.19 17.9731 1820.01 16.1803 1820.79 14.3618C1819.72 13.6369 1818.32 13.817 1817.43 14.885Z" fill="#728DF4"></path></g><path opacity="0.5" fill-rule="evenodd" clip-rule="evenodd" d="M1921 1000L1282.36 994.194C1193.71 993.364 1123.7 894.419 1126.67 781.135L1147.53 0H1921V1000Z" fill="url(#paint1_linear_844_27385)" fill-opacity="0.8"></path><path opacity="0.5" fill-rule="evenodd" clip-rule="evenodd" d="M1921 828.887L1483.75 938.512C1396.73 960.318 1308.4 910.187 1282.46 801.865L1090.34 0H1921V828.887Z" fill="url(#paint2_linear_844_27385)" fill-opacity="0.5"></path><defs><linearGradient id="paint0_linear_844_27385" x1="1482.49" y1="-57.8227" x2="1110.13" y2="972.568" gradientUnits="userSpaceOnUse"><stop stop-color="#0047FF" stop-opacity="0.31"></stop><stop offset="1" stop-color="#EAEDFF"></stop></linearGradient><linearGradient id="paint1_linear_844_27385" x1="1739.98" y1="-57.8227" x2="1162.79" y2="603.015" gradientUnits="userSpaceOnUse"><stop stop-color="#0047FF" stop-opacity="0.31"></stop><stop offset="1" stop-color="#EAEDFF"></stop></linearGradient><linearGradient id="paint2_linear_844_27385" x1="1731.72" y1="-54.5568" x2="1197.36" y2="623.458" gradientUnits="userSpaceOnUse"><stop stop-color="#5732F9" stop-opacity="0.25"></stop><stop offset="1" stop-color="#EAEDFF"></stop></linearGradient></defs></svg>