<svg width="60" height="50" viewBox="0 0 60 50" fill="none" xmlns="http://www.w3.org/2000/svg">
<path d="M55.4235 9.88081L55.4521 11.8457C55.4583 11.8941 55.4818 11.9386 55.5184 11.9708C55.555 12.003 55.6021 12.0208 55.6509 12.0208C55.6996 12.0208 55.7467 12.003 55.7833 11.9708C55.8199 11.9386 55.8434 11.8941 55.8496 11.8457L55.821 9.88081C55.8148 9.83243 55.7913 9.78796 55.7547 9.75572C55.7181 9.72348 55.671 9.70569 55.6222 9.70569C55.5735 9.70569 55.5264 9.72348 55.4898 9.75572C55.4532 9.78796 55.4297 9.83243 55.4235 9.88081Z" fill="white"/>
<path d="M54.0403 6.41195H55.6586L55.4615 6.21483V7.68056C55.4676 7.72894 55.4912 7.77341 55.5278 7.80565C55.5644 7.83789 55.6115 7.85568 55.6602 7.85568C55.709 7.85568 55.7561 7.83789 55.7926 7.80565C55.8292 7.77341 55.8528 7.72894 55.8589 7.68056V6.21483C55.8581 6.1628 55.8371 6.11314 55.8003 6.07634C55.7635 6.03955 55.7138 6.01852 55.6618 6.0177H54.0498C54.0014 6.02383 53.957 6.0474 53.9247 6.08398C53.8925 6.12057 53.8747 6.16765 53.8747 6.21642C53.8747 6.26518 53.8925 6.31227 53.9247 6.34885C53.957 6.38543 54.0014 6.409 54.0498 6.41513L54.0403 6.41195Z" fill="white"/>
<path d="M1.49005 1.28674H57.9351V48.2665H1.49005V1.28674Z" fill="#EBF0F9"/>
<path d="M1.66504 1.5282H58.1101V3.12111H1.66504V1.5282Z" fill="white"/>
<path d="M1.32471 40.0029H58.2848V48.2759H1.32471V40.0029Z" fill="#B0A9EE"/>
<path d="M58.5202 16.297V47.6688C58.5161 47.9163 58.416 48.1525 58.2409 48.3275C58.0659 48.5025 57.8297 48.6027 57.5822 48.6067H1.72224C1.47476 48.6027 1.23856 48.5025 1.06354 48.3275C0.888525 48.1525 0.788393 47.9163 0.784302 47.6688V1.72237C0.788393 1.47488 0.888525 1.23869 1.06354 1.06367C1.23856 0.888647 1.47476 0.788515 1.72224 0.784424H10.0874" stroke="#312783" stroke-miterlimit="10" stroke-linecap="round"/>
<path d="M23.3332 0.784424H57.5665C57.8167 0.784389 58.057 0.882697 58.2354 1.05815C58.4138 1.23361 58.5161 1.47216 58.5203 1.72237V12.1637" stroke="#312783" stroke-miterlimit="10" stroke-linecap="round"/>
<path d="M13.9026 0.784424H20.5795" stroke="#312783" stroke-miterlimit="10" stroke-linecap="round"/>
<path d="M15.1302 7.8363C15.8713 7.8363 16.472 7.23558 16.472 6.49457C16.472 5.75355 15.8713 5.15283 15.1302 5.15283C14.3892 5.15283 13.7885 5.75355 13.7885 6.49457C13.7885 7.23558 14.3892 7.8363 15.1302 7.8363Z" fill="#25C83A"/>
<path d="M10.7743 7.8363C11.5153 7.8363 12.116 7.23558 12.116 6.49457C12.116 5.75355 11.5153 5.15283 10.7743 5.15283C10.0333 5.15283 9.43256 5.75355 9.43256 6.49457C9.43256 7.23558 10.0333 7.8363 10.7743 7.8363Z" fill="#FFB82A"/>
<path d="M6.42145 7.8363C7.16247 7.8363 7.76318 7.23558 7.76318 6.49457C7.76318 5.75355 7.16247 5.15283 6.42145 5.15283C5.68043 5.15283 5.07971 5.75355 5.07971 6.49457C5.07971 7.23558 5.68043 7.8363 6.42145 7.8363Z" fill="#FF5750"/>
<path opacity="0.15" d="M15.2792 6.33248C15.5038 6.33312 15.7246 6.39024 15.9213 6.49858C16.118 6.60693 16.2842 6.76301 16.4048 6.95247C16.4411 6.83285 16.4604 6.70868 16.462 6.58365C16.4663 6.37283 16.4209 6.16397 16.3294 5.97399C16.2379 5.78401 16.1029 5.61828 15.9354 5.49022C15.7678 5.36217 15.5725 5.2754 15.3651 5.23696C15.1578 5.19852 14.9443 5.20949 14.742 5.26897C14.5397 5.32846 14.3543 5.43478 14.2008 5.57933C14.0473 5.72388 13.93 5.90258 13.8584 6.10093C13.7869 6.29928 13.7631 6.51171 13.789 6.72097C13.8149 6.93024 13.8897 7.13046 14.0074 7.30539C14.0858 7.02755 14.2521 6.78257 14.4813 6.60717C14.7106 6.43177 14.9906 6.33539 15.2792 6.33248Z" fill="white"/>
<path opacity="0.15" d="M10.9711 6.33242C11.1962 6.33252 11.4176 6.38939 11.6149 6.49776C11.8122 6.60613 11.9789 6.7625 12.0998 6.95241C12.1362 6.83279 12.1554 6.70862 12.157 6.58359C12.1584 6.37449 12.1108 6.16796 12.0181 5.9805C11.9255 5.79303 11.7903 5.62982 11.6234 5.50388C11.4564 5.37795 11.2624 5.29277 11.0567 5.25516C10.8509 5.21755 10.6393 5.22853 10.4386 5.28724C10.2379 5.34595 10.0537 5.45076 9.9007 5.59331C9.7477 5.73585 9.63013 5.91218 9.55738 6.10823C9.48464 6.30428 9.45872 6.51462 9.4817 6.72247C9.50468 6.93031 9.57593 7.12991 9.68975 7.30533C9.76854 7.02593 9.93624 6.77981 10.1674 6.60425C10.3987 6.4287 10.6808 6.33327 10.9711 6.33242Z" fill="white"/>
<path opacity="0.15" d="M6.60578 6.33242C6.83034 6.33306 7.05112 6.39018 7.24781 6.49852C7.4445 6.60687 7.61077 6.76295 7.73131 6.95241C7.76768 6.83279 7.78695 6.70862 7.78854 6.58359C7.78988 6.37449 7.74232 6.16796 7.64967 5.9805C7.55701 5.79303 7.42182 5.62982 7.25488 5.50388C7.08794 5.37795 6.89388 5.29277 6.68818 5.25516C6.48248 5.21755 6.27083 5.22853 6.07013 5.28724C5.86943 5.34595 5.68523 5.45076 5.53223 5.59331C5.37923 5.73585 5.26166 5.91218 5.18891 6.10823C5.11617 6.30428 5.09025 6.51462 5.11323 6.72247C5.13621 6.93031 5.20746 7.12991 5.32128 7.30533C5.40022 7.0254 5.5684 6.7789 5.80025 6.6033C6.03209 6.42769 6.31494 6.33258 6.60578 6.33242Z" fill="white"/>
<path d="M53.6271 13.2827H4.40579C3.90358 13.2827 3.49646 13.6898 3.49646 14.192V43.4145C3.49646 43.9167 3.90358 44.3238 4.40579 44.3238H53.6271C54.1293 44.3238 54.5364 43.9167 54.5364 43.4145V14.192C54.5364 13.6898 54.1293 13.2827 53.6271 13.2827Z" fill="white" stroke="#312783" stroke-miterlimit="10" stroke-linecap="round"/>
<path d="M31.0274 29.2278C31.0337 28.5899 31.2502 27.9718 31.6434 27.4695C32.0366 26.9671 32.5844 26.6084 33.2021 26.4489C32.927 25.3606 32.4988 24.3169 31.9303 23.3489C31.3802 23.6682 30.7409 23.7991 30.1095 23.7216C29.4782 23.6442 28.8895 23.3626 28.4329 22.9197C27.9739 22.4727 27.6811 21.8825 27.6031 21.2465C27.525 20.6106 27.6664 19.967 28.0037 19.4223C27.0357 18.8539 25.992 18.4257 24.9037 18.1505C24.7521 18.7736 24.3957 19.3278 23.8915 19.724C23.3873 20.1203 22.7646 20.3357 22.1233 20.3357C21.482 20.3357 20.8593 20.1203 20.3551 19.724C19.8509 19.3278 19.4944 18.7736 19.3428 18.1505C18.2546 18.4257 17.2108 18.8539 16.2429 19.4223C16.5622 19.9724 16.693 20.6118 16.6156 21.2431C16.5381 21.8744 16.2565 22.4631 15.8136 22.9197C15.3666 23.3788 14.7764 23.6715 14.1404 23.7495C13.5045 23.8276 12.8609 23.6863 12.3162 23.3489C11.7478 24.3169 11.3196 25.3606 11.0444 26.4489C11.6675 26.6005 12.2217 26.957 12.6179 27.4612C13.0142 27.9654 13.2296 28.5881 13.2296 29.2294C13.2296 29.8706 13.0142 30.4933 12.6179 30.9975C12.2217 31.5017 11.6675 31.8582 11.0444 32.0098C11.3196 33.0981 11.7478 34.1418 12.3162 35.1098C12.8663 34.7905 13.5057 34.6596 14.137 34.7371C14.7683 34.8146 15.3571 35.0961 15.8136 35.539C16.2727 35.986 16.5654 36.5763 16.6435 37.2122C16.7215 37.8481 16.5802 38.4917 16.2429 39.0364C17.2108 39.6048 18.2546 40.033 19.3428 40.3082C19.4944 39.6851 19.8509 39.1309 20.3551 38.7347C20.8593 38.3384 21.482 38.123 22.1233 38.123C22.7646 38.123 23.3873 38.3384 23.8915 38.7347C24.3957 39.1309 24.7521 39.6851 24.9037 40.3082C25.992 40.033 27.0357 39.6048 28.0037 39.0364C27.6844 38.4863 27.5535 37.847 27.631 37.2156C27.7085 36.5843 27.9901 35.9956 28.4329 35.539C28.8799 35.08 29.4702 34.7872 30.1061 34.7092C30.7421 34.6311 31.3856 34.7724 31.9303 35.1098C32.4988 34.1418 32.927 33.0981 33.2021 32.0098C32.5839 31.8502 32.0356 31.491 31.6424 30.988C31.2492 30.485 31.033 29.8662 31.0274 29.2278ZM22.1249 33.5041C21.2793 33.5029 20.4532 33.251 19.7508 32.7804C19.0484 32.3097 18.5012 31.6414 18.1785 30.8599C17.8558 30.0783 17.7721 29.2187 17.9378 28.3896C18.1035 27.5605 18.5113 26.7991 19.1096 26.2017C19.7079 25.6042 20.4699 25.1976 21.2993 25.0331C22.1286 24.8686 22.9882 24.9537 23.7692 25.2775C24.5502 25.6014 25.2177 26.1495 25.6873 26.8526C26.157 27.5557 26.4076 28.3822 26.4076 29.2278C26.4051 30.3642 25.9516 31.4532 25.1469 32.2556C24.3421 33.058 23.2518 33.5082 22.1153 33.5073L22.1249 33.5041Z" fill="#B0A9EE"/>
<path d="M44.1903 25.0913C44.1943 24.6425 44.3464 24.2075 44.6229 23.854C44.8995 23.5004 45.285 23.248 45.7197 23.136C45.5235 22.3698 45.2195 21.6354 44.8167 20.9549C44.4299 21.1787 43.9807 21.2704 43.5372 21.2158C43.0937 21.1613 42.68 20.9637 42.359 20.6528C42.0364 20.3387 41.8306 19.924 41.7757 19.4771C41.7208 19.0302 41.82 18.5779 42.0569 18.1951C41.3763 17.7923 40.642 17.4882 39.8758 17.2921C39.7666 17.728 39.5149 18.115 39.1606 18.3915C38.8063 18.6679 38.3698 18.8181 37.9204 18.8181C37.4711 18.8181 37.0345 18.6679 36.6803 18.3915C36.326 18.115 36.0743 17.728 35.9651 17.2921C35.1989 17.4882 34.4645 17.7923 33.784 18.1951C34.0078 18.5818 34.0995 19.031 34.0449 19.4746C33.9904 19.9181 33.7928 20.3318 33.4819 20.6528C33.1678 20.9754 32.7531 21.1812 32.3062 21.2361C31.8593 21.291 31.407 21.1918 31.0242 20.9549C30.6214 21.6354 30.3173 22.3698 30.1212 23.136C30.5571 23.2452 30.9441 23.4969 31.2206 23.8512C31.497 24.2054 31.6472 24.6419 31.6472 25.0913C31.6472 25.5407 31.497 25.9772 31.2206 26.3315C30.9441 26.6858 30.5571 26.9375 30.1212 27.0467C30.3173 27.8129 30.6214 28.5472 31.0242 29.2278C31.4109 29.004 31.8601 28.9123 32.3037 28.9668C32.7472 29.0213 33.1609 29.219 33.4819 29.5299C33.8045 29.844 34.0103 30.2587 34.0652 30.7056C34.1201 31.1525 34.0209 31.6047 33.784 31.9876C34.4645 32.3904 35.1989 32.6944 35.9651 32.8906C36.0743 32.4546 36.326 32.0677 36.6803 31.7912C37.0345 31.5147 37.4711 31.3646 37.9204 31.3646C38.3698 31.3646 38.8063 31.5147 39.1606 31.7912C39.5149 32.0677 39.7666 32.4546 39.8758 32.8906C40.642 32.6944 41.3763 32.3904 42.0569 31.9876C41.8331 31.6008 41.7414 31.1516 41.7959 30.7081C41.8504 30.2646 42.0481 29.8509 42.359 29.5299C42.6731 29.2073 43.0878 29.0015 43.5347 28.9466C43.9816 28.8917 44.4338 28.9909 44.8167 29.2278C45.2195 28.5472 45.5235 27.8129 45.7197 27.0467C45.285 26.9347 44.8995 26.6823 44.6229 26.3287C44.3464 25.9752 44.1943 25.5402 44.1903 25.0913ZM37.9204 28.0991C37.3256 28.0991 36.744 27.9227 36.2494 27.5922C35.7548 27.2617 35.3693 26.792 35.1416 26.2424C34.914 25.6928 34.8544 25.088 34.9705 24.5046C35.0865 23.9211 35.373 23.3852 35.7936 22.9645C36.2143 22.5439 36.7502 22.2574 37.3337 22.1414C37.9171 22.0253 38.5219 22.0849 39.0715 22.3125C39.6211 22.5402 40.0908 22.9257 40.4213 23.4203C40.7518 23.9149 40.9282 24.4965 40.9282 25.0913C40.9257 25.8883 40.608 26.6519 40.0445 27.2154C39.481 27.7789 38.7174 28.0966 37.9204 28.0991Z" fill="#B8E9D0"/>
</svg>
