<svg width="48" height="33" viewBox="0 0 48 33" fill="none" xmlns="http://www.w3.org/2000/svg">
<path fill-rule="evenodd" clip-rule="evenodd" d="M31.0619 12.438C31.2016 12.5773 31.3125 12.7429 31.3881 12.9251C31.4637 13.1073 31.5026 13.3027 31.5026 13.5C31.5026 13.6973 31.4637 13.8927 31.3881 14.0749C31.3125 14.2571 31.2016 14.4227 31.0619 14.562L22.0619 23.562C21.9226 23.7017 21.7571 23.8125 21.5748 23.8881C21.3926 23.9638 21.1972 24.0027 20.9999 24.0027C20.8026 24.0027 20.6073 23.9638 20.425 23.8881C20.2428 23.8125 20.0773 23.7017 19.9379 23.562L15.4379 19.062C15.2985 18.9225 15.1878 18.757 15.1124 18.5747C15.0369 18.3925 14.998 18.1972 14.998 18C14.998 17.8028 15.0369 17.6075 15.1124 17.4252C15.1878 17.243 15.2985 17.0775 15.4379 16.938C15.5774 16.7985 15.743 16.6879 15.9252 16.6124C16.1074 16.5369 16.3027 16.4981 16.4999 16.4981C16.6972 16.4981 16.8925 16.5369 17.0747 16.6124C17.2569 16.6879 17.4225 16.7985 17.5619 16.938L20.9999 20.379L28.9379 12.438C29.0773 12.2983 29.2428 12.1875 29.425 12.1119C29.6073 12.0362 29.8026 11.9973 29.9999 11.9973C30.1972 11.9973 30.3926 12.0362 30.5748 12.1119C30.7571 12.1875 30.9226 12.2983 31.0619 12.438Z" fill="#312783"/>
<path d="M13.218 4.026C16.2164 1.44041 20.0407 0.0124155 24 0C32.07 0 38.769 6 39.498 13.737C44.274 14.412 48 18.411 48 23.319C48 28.707 43.506 33 38.061 33H11.343C5.124 33 0 28.098 0 21.954C0 16.665 3.798 12.285 8.826 11.175C9.255 8.586 10.92 6.006 13.218 4.026ZM15.177 6.297C12.906 8.256 11.718 10.617 11.718 12.465V13.809L10.383 13.956C6.192 14.415 3 17.856 3 21.954C3 26.355 6.69 30 11.343 30H38.061C41.94 30 45 26.964 45 23.319C45 19.671 41.94 16.635 38.061 16.635H36.561V15.135C36.564 8.475 30.984 3 24 3C20.7596 3.01294 17.6305 4.1833 15.177 6.3V6.297Z" fill="#312783"/>
</svg>
