<svg width="40" height="40" viewBox="0 0 40 40" fill="none" xmlns="http://www.w3.org/2000/svg">
<path d="M35.9301 5.98668L34.0134 4.07001C33.7824 3.83619 33.5073 3.65055 33.2041 3.52385C32.9008 3.39715 32.5754 3.33191 32.2467 3.33191C31.9181 3.33191 31.5927 3.39715 31.2894 3.52385C30.9862 3.65055 30.7111 3.83619 30.4801 4.07001L21.6667 12.885V18.3333H27.1167L35.9301 9.52001C36.1639 9.28903 36.3495 9.01394 36.4762 8.71067C36.6029 8.40741 36.6682 8.08201 36.6682 7.75334C36.6682 7.42468 36.6029 7.09928 36.4762 6.79602C36.3495 6.49275 36.1639 6.21766 35.9301 5.98668ZM25.9651 15.75H24.2484V14.0333L30.0001 8.28834L31.7167 10.005L25.9651 15.75Z" fill="#312783"/>
<path d="M31.6667 31.6667H8.33333V8.33333H18.3333V5H8.33333C7.45009 5.00264 6.60378 5.35467 5.97922 5.97922C5.35467 6.60378 5.00264 7.45009 5 8.33333V31.6667C5.00264 32.5499 5.35467 33.3962 5.97922 34.0208C6.60378 34.6453 7.45009 34.9974 8.33333 35H31.6667C32.5499 34.9974 33.3962 34.6453 34.0208 34.0208C34.6453 33.3962 34.9974 32.5499 35 31.6667V21.6667H31.6667V31.6667Z" fill="#312783"/>
</svg>
