<svg width="38" height="38" viewBox="0 0 38 38" fill="none" xmlns="http://www.w3.org/2000/svg">
<path d="M32.5375 17.4562L25.2937 10.2125C24.9375 9.7375 24.3438 9.5 23.75 9.5H14.25C12.9438 9.5 11.875 10.5688 11.875 11.875V33.25C11.875 34.5562 12.9438 35.625 14.25 35.625H30.875C32.1812 35.625 33.25 34.5562 33.25 33.25V19.1188C33.25 18.525 33.0125 17.9312 32.5375 17.4562ZM23.75 11.875L30.7563 19H23.75V11.875ZM14.25 33.25V11.875H21.375V19C21.375 20.3062 22.4438 21.375 23.75 21.375H30.875V33.25H14.25Z" fill="#312783"/>
<path d="M7.125 21.375H4.75V4.75C4.75 3.44375 5.81875 2.375 7.125 2.375H23.75V4.75H7.125V21.375Z" fill="#312783"/>
</svg>
