<svg width="40" height="40" viewBox="0 0 40 40" fill="none" xmlns="http://www.w3.org/2000/svg">
<path d="M10 27.5C10 26.837 10.2634 26.2011 10.7322 25.7322C11.2011 25.2634 11.837 25 12.5 25C13.163 25 13.7989 25.2634 14.2678 25.7322C14.7366 26.2011 15 26.837 15 27.5V30C15 30.663 14.7366 31.2989 14.2678 31.7678C13.7989 32.2366 13.163 32.5 12.5 32.5C11.837 32.5 11.2011 32.2366 10.7322 31.7678C10.2634 31.2989 10 30.663 10 30V27.5ZM25 17.5C25 16.837 25.2634 16.2011 25.7322 15.7322C26.2011 15.2634 26.837 15 27.5 15C28.163 15 28.7989 15.2634 29.2678 15.7322C29.7366 16.2011 30 16.837 30 17.5V30C30 30.663 29.7366 31.2989 29.2678 31.7678C28.7989 32.2366 28.163 32.5 27.5 32.5C26.837 32.5 26.2011 32.2366 25.7322 31.7678C25.2634 31.2989 25 30.663 25 30V17.5ZM17.5 22.5C17.5 21.837 17.7634 21.2011 18.2322 20.7322C18.7011 20.2634 19.337 20 20 20C20.663 20 21.2989 20.2634 21.7678 20.7322C22.2366 21.2011 22.5 21.837 22.5 22.5V30C22.5 30.663 22.2366 31.2989 21.7678 31.7678C21.2989 32.2366 20.663 32.5 20 32.5C19.337 32.5 18.7011 32.2366 18.2322 31.7678C17.7634 31.2989 17.5 30.663 17.5 30V22.5Z" fill="#312783"/>
<path d="M10 3.75H7.5C6.17392 3.75 4.90215 4.27678 3.96447 5.21447C3.02678 6.15215 2.5 7.42392 2.5 8.75V35C2.5 36.3261 3.02678 37.5979 3.96447 38.5355C4.90215 39.4732 6.17392 40 7.5 40H32.5C33.8261 40 35.0979 39.4732 36.0355 38.5355C36.9732 37.5979 37.5 36.3261 37.5 35V8.75C37.5 7.42392 36.9732 6.15215 36.0355 5.21447C35.0979 4.27678 33.8261 3.75 32.5 3.75H30V6.25H32.5C33.163 6.25 33.7989 6.51339 34.2678 6.98223C34.7366 7.45107 35 8.08696 35 8.75V35C35 35.663 34.7366 36.2989 34.2678 36.7678C33.7989 37.2366 33.163 37.5 32.5 37.5H7.5C6.83696 37.5 6.20107 37.2366 5.73223 36.7678C5.26339 36.2989 5 35.663 5 35V8.75C5 8.08696 5.26339 7.45107 5.73223 6.98223C6.20107 6.51339 6.83696 6.25 7.5 6.25H10V3.75Z" fill="#312783"/>
<path d="M23.75 2.5C24.0815 2.5 24.3995 2.6317 24.6339 2.86612C24.8683 3.10054 25 3.41848 25 3.75V6.25C25 6.58152 24.8683 6.89946 24.6339 7.13388C24.3995 7.3683 24.0815 7.5 23.75 7.5H16.25C15.9185 7.5 15.6005 7.3683 15.3661 7.13388C15.1317 6.89946 15 6.58152 15 6.25V3.75C15 3.41848 15.1317 3.10054 15.3661 2.86612C15.6005 2.6317 15.9185 2.5 16.25 2.5H23.75ZM16.25 0C15.2554 0 14.3016 0.395088 13.5983 1.09835C12.8951 1.80161 12.5 2.75544 12.5 3.75V6.25C12.5 7.24456 12.8951 8.19839 13.5983 8.90165C14.3016 9.60491 15.2554 10 16.25 10H23.75C24.7446 10 25.6984 9.60491 26.4017 8.90165C27.1049 8.19839 27.5 7.24456 27.5 6.25V3.75C27.5 2.75544 27.1049 1.80161 26.4017 1.09835C25.6984 0.395088 24.7446 0 23.75 0L16.25 0Z" fill="#312783"/>
</svg>
