<svg width="30" height="36" viewBox="0 0 30 36" fill="none" xmlns="http://www.w3.org/2000/svg">
<path d="M16.6666 15.6666L26.5816 31.5266C26.6311 31.6065 26.6584 31.6981 26.6607 31.792C26.663 31.8859 26.6403 31.9787 26.5948 32.0609C26.5493 32.1431 26.4827 32.2116 26.4018 32.2595C26.321 32.3074 26.2289 32.3329 26.135 32.3333H3.86496C3.77054 32.3328 3.67797 32.3071 3.59688 32.2587C3.51579 32.2103 3.44915 32.1411 3.40388 32.0582C3.35862 31.9754 3.3364 31.8819 3.33952 31.7875C3.34264 31.6931 3.37099 31.6013 3.42163 31.5216L13.3333 15.6666V3.99996H16.6666V15.6666ZM6.66663 0.666626V3.99996H9.99996V14.7666L0.598296 29.75C0.231721 30.3342 0.0282301 31.0059 0.00895551 31.6953C-0.0103191 32.3848 0.155325 33.0668 0.488687 33.6706C0.82205 34.2744 1.31097 34.7779 1.90469 35.1289C2.4984 35.4799 3.17526 35.6656 3.86496 35.6666H26.135C26.8247 35.6656 27.5015 35.4799 28.0952 35.1289C28.6889 34.7779 29.1779 34.2744 29.5112 33.6706C29.8446 33.0668 30.0102 32.3848 29.991 31.6953C29.9717 31.0059 29.7682 30.3342 29.4016 29.75L20.0016 14.7666L20 3.99996H23.3333V0.666626H6.66663Z" fill="#312783"/>
</svg>
