<svg width="53" height="85" viewBox="0 0 53 85" fill="none" xmlns="http://www.w3.org/2000/svg">
<path d="M51.0508 80.7057L48.6911 84.4204L6.27773 84.3212L3.67302 81.6004C2.77187 80.6571 2.08163 79.533 1.64812 78.3025C1.2146 77.0721 1.04773 75.7636 1.15857 74.4637C1.50263 70.3636 2.20526 66.3014 3.25841 62.3239C3.57879 61.1148 3.93687 59.9017 4.55482 58.8136C6.21525 55.8935 9.46965 54.3075 12.5892 53.0676C14.0244 52.4973 17.6171 51.9626 19.3787 51.4647C19.5009 51.6192 19.6407 51.759 19.7953 51.8813C21.8227 53.5755 24.3322 54.4602 26.8189 54.3561C29.3055 54.4553 31.815 53.5755 33.8415 51.8813C34.0299 51.7352 34.1942 51.5605 34.3285 51.3635C35.9155 51.8882 39.1263 52.3554 40.6587 52.9684C43.7812 54.2083 47.0356 55.7943 48.6931 58.7144C49.311 59.8055 49.6691 61.0156 49.9895 62.2248C51.1866 66.7483 51.9306 71.3798 52.2103 76.0508C52.3105 77.6846 51.9057 79.3097 51.0508 80.7057Z" fill="#EDEBFF"/>
<path d="M2.96077 63.911C3.28115 62.7019 3.63923 61.4888 4.25718 60.4007C5.91761 57.4806 9.17201 55.8945 12.2915 54.6547C13.7268 54.0843 17.3194 53.5497 19.081 53.0518C19.2033 53.2063 19.3431 53.3461 19.4976 53.4684C21.525 55.1625 24.0345 56.0473 26.5212 55.9431C29.0079 56.0423 31.5174 55.1625 33.5438 53.4684C33.7322 53.3223 33.8965 53.1476 34.0308 52.9506C35.6179 53.4753 38.8286 53.9425 40.3611 54.5555C43.4836 55.7953 46.738 57.3814 48.3954 60.3015C49.0134 61.3926 49.3715 62.6027 49.6918 63.8118C50.8417 68.1625 51.5724 72.6133 51.874 77.1032C51.9239 76.6533 51.9355 76.2001 51.9087 75.7483C51.629 71.0773 50.885 66.4458 49.6879 61.9223C49.3675 60.7131 49.0094 59.5001 48.3915 58.412C46.731 55.4918 43.4766 53.9058 40.3571 52.6659C38.8247 52.0559 35.6119 51.5857 34.0269 51.061C33.8926 51.258 33.7282 51.4327 33.5399 51.5788C31.5134 53.273 29.0039 54.1577 26.5172 54.0536C24.0306 54.1528 21.5211 53.273 19.4937 51.5788C19.3391 51.4565 19.1993 51.3167 19.0771 51.1622C17.3155 51.6582 13.7208 52.1948 12.2875 52.7651C9.16606 54.005 5.91165 55.591 4.25321 58.5111C3.63526 59.6022 3.27719 60.8123 2.9568 62.0215C1.90471 66.0007 1.2034 70.0645 0.860934 74.1662C0.812764 74.7374 0.817745 75.3119 0.875812 75.8822C1.22466 71.8392 1.92224 67.8339 2.96077 63.911Z" fill="#F4F4F4"/>
<path d="M48.9112 84.5335L48.074 84.0019L50.4337 80.2872C51.2381 78.9813 51.6192 77.4587 51.5248 75.9279C51.2463 71.2898 50.5074 66.6909 49.3189 62.1991C49.0213 61.0653 48.6751 59.8691 48.0711 58.8068C46.4989 56.0414 43.3982 54.5139 40.2827 53.276C39.4674 52.9516 38.1759 52.66 36.9271 52.3833C35.8708 52.1452 34.8729 51.9201 34.1429 51.6741L34.4593 50.7338C35.1397 50.9629 36.1138 51.1831 37.1453 51.4152C38.4348 51.7058 39.761 52.0103 40.6487 52.3585C43.9329 53.6638 47.2101 55.2895 48.934 58.3208C49.5966 59.4862 49.9755 60.8005 50.279 61.9491C51.4827 66.5037 52.2306 71.1667 52.5118 75.8693C52.6193 77.6053 52.1872 79.3321 51.2749 80.8129L48.9112 84.5335Z" fill="#312783"/>
<path d="M5.72124 84.5117L3.11653 81.7909C2.16711 80.7967 1.43984 79.6121 0.982918 78.3155C0.525998 77.019 0.349864 75.6401 0.466191 74.2704C0.813389 70.1416 1.52065 66.051 2.57992 62.0453C2.88344 60.9006 3.26135 59.5824 3.92492 58.4169C5.64883 55.3857 8.92506 53.755 12.2102 52.4547C13.096 52.1025 14.5908 51.7752 16.0409 51.4628C17.2084 51.2069 18.3113 50.9668 18.9948 50.7357L19.3112 51.676C18.5762 51.923 17.4484 52.172 16.2532 52.4319C14.8437 52.7403 13.3866 53.0597 12.5762 53.3811C9.4577 54.613 6.36002 56.1415 4.78688 58.9069C4.18282 59.9692 3.83863 61.1655 3.53908 62.2992C2.49444 66.2483 1.7968 70.2812 1.45412 74.3517C1.3498 75.5815 1.5081 76.8195 1.91851 77.9835C2.32892 79.1476 2.98207 80.2111 3.83466 81.1035L6.43937 83.8243L5.72124 84.5117Z" fill="#312783"/>
<path d="M43.4618 59.9891L46.2817 56.0561L46.5235 56.2295L43.7036 60.1625L43.4618 59.9891Z" fill="#385868"/>
<path d="M44.5211 57.7871L44.2801 57.6125C44.7542 56.9579 44.9625 56.6762 45.1639 56.4024C45.3652 56.1287 45.5725 55.849 46.0447 55.1963L46.2857 55.3709C45.8126 56.0235 45.6043 56.3062 45.4029 56.579C45.2016 56.8518 44.9943 57.1335 44.5211 57.7871Z" fill="#385868"/>
<path d="M34.2034 84.4203V52.1868L18.9283 52.0846V84.4203H34.2034Z" fill="#006633"/>
<path d="M11.4048 52.776H12.1983V68.3031H11.4048V52.776Z" fill="#312783"/>
<path d="M11.7867 71.971C11.1295 71.971 10.4871 71.7761 9.94064 71.411C9.3942 71.0459 8.9683 70.5269 8.7168 69.9198C8.46531 69.3126 8.3995 68.6445 8.52772 67.9999C8.65593 67.3553 8.9724 66.7633 9.43711 66.2986C9.90181 65.8339 10.4939 65.5174 11.1385 65.3892C11.783 65.261 12.4511 65.3268 13.0583 65.5783C13.6655 65.8298 14.1844 66.2556 14.5496 66.8021C14.9147 67.3485 15.1096 67.991 15.1096 68.6482C15.1085 69.5291 14.7581 70.3737 14.1352 70.9966C13.5122 71.6195 12.6677 71.97 11.7867 71.971ZM11.7867 66.1188C11.2865 66.1188 10.7974 66.2672 10.3815 66.5451C9.96555 66.823 9.64136 67.2181 9.44992 67.6802C9.25848 68.1424 9.20839 68.651 9.30598 69.1416C9.40358 69.6323 9.64447 70.0829 9.99821 70.4367C10.3519 70.7904 10.8026 71.0313 11.2933 71.1289C11.7839 71.2265 12.2925 71.1764 12.7546 70.985C13.2168 70.7935 13.6118 70.4693 13.8898 70.0534C14.1677 69.6374 14.316 69.1484 14.316 68.6482C14.3153 67.9776 14.0485 67.3347 13.5743 66.8605C13.1002 66.3864 12.4573 66.1196 11.7867 66.1188Z" fill="#312783"/>
<path d="M11.8383 73.311C10.9064 73.311 9.9955 73.0347 9.2207 72.517C8.4459 71.9993 7.84202 71.2635 7.48541 70.4026C7.12881 69.5417 7.03551 68.5943 7.2173 67.6804C7.3991 66.7664 7.84782 65.9269 8.50674 65.268C9.16565 64.6091 10.0052 64.1604 10.9191 63.9786C11.833 63.7968 12.7804 63.8901 13.6413 64.2467C14.5022 64.6033 15.238 65.2072 15.7557 65.982C16.2734 66.7568 16.5498 67.6677 16.5498 68.5996C16.5484 69.8487 16.0516 71.0463 15.1683 71.9296C14.2851 72.8129 13.0874 73.3097 11.8383 73.311ZM11.8383 64.6816C11.0634 64.6816 10.3059 64.9114 9.66155 65.3419C9.01725 65.7724 8.51507 66.3843 8.21853 67.1002C7.92198 67.8161 7.84439 68.6039 7.99557 69.3639C8.14675 70.1239 8.5199 70.822 9.06784 71.37C9.61578 71.9179 10.3139 72.2911 11.0739 72.4423C11.8339 72.5934 12.6217 72.5158 13.3376 72.2193C14.0535 71.9228 14.6654 71.4206 15.0959 70.7763C15.5265 70.132 15.7562 69.3745 15.7562 68.5996C15.7552 67.5608 15.3421 66.5648 14.6075 65.8303C13.873 65.0958 12.8771 64.6826 11.8383 64.6816Z" fill="#312783"/>
<path d="M42.7337 63.1938V66.6149H38.171V63.1928C38.171 62.8772 38.2964 62.5744 38.5196 62.3512C38.7429 62.128 39.0456 62.0026 39.3613 62.0026H41.5435C41.6999 62.0026 41.8547 62.0334 41.9992 62.0933C42.1437 62.1531 42.2749 62.2409 42.3855 62.3515C42.496 62.4622 42.5837 62.5935 42.6434 62.738C42.7032 62.8826 42.7339 63.0374 42.7337 63.1938Z" fill="#006633"/>
<path d="M41.5435 62.0037H39.3613C39.0456 62.0037 38.7429 62.1291 38.5196 62.3523C38.2964 62.5755 38.171 62.8783 38.171 63.1939V64.1858C38.171 63.8701 38.2964 63.5674 38.5196 63.3442C38.7429 63.121 39.0456 62.9956 39.3613 62.9956H41.5435C41.8591 62.9956 42.1619 63.121 42.3851 63.3442C42.6083 63.5674 42.7337 63.8701 42.7337 64.1858V63.1939C42.7337 62.8783 42.6083 62.5755 42.3851 62.3523C42.1619 62.1291 41.8591 62.0037 41.5435 62.0037Z" fill="#00361B"/>
<path d="M42.7338 66.5167H44.7671V67.1119H42.7338V66.5167Z" fill="#312783"/>
<path d="M36.0385 66.5167H38.171V67.1119H36.0385V66.5167Z" fill="#312783"/>
<path d="M43.0313 67.1109H37.8735V63.3913C37.8735 62.9967 38.0302 62.6182 38.3093 62.3392C38.5883 62.0602 38.9667 61.9034 39.3613 61.9034H41.5435C41.9381 61.9034 42.3165 62.0602 42.5955 62.3392C42.8746 62.6182 43.0313 62.9967 43.0313 63.3913V67.1109ZM38.4686 66.5157H42.4362V63.3913C42.4362 63.1545 42.3421 62.9275 42.1747 62.76C42.0073 62.5926 41.7802 62.4986 41.5435 62.4986H39.3613C39.1246 62.4986 38.8975 62.5926 38.7301 62.76C38.5627 62.9275 38.4686 63.1545 38.4686 63.3913V66.5157Z" fill="#312783"/>
<path d="M33.9059 52.4813V54.4908C31.9612 55.296 29.8951 55.7691 27.7938 55.8904C24.8648 56.0627 21.935 55.5668 19.2258 54.4403V52.3821L33.9059 52.4813Z" fill="#78C1B6"/>
<path d="M40.25 22.9636C41.962 22.6908 43.552 24.1866 44.0192 25.8579C44.4864 27.5293 44.1114 29.3028 43.7405 30.996C43.557 31.8321 43.3358 32.7328 42.6742 33.2773C42.2943 33.5888 41.8122 33.7445 41.3341 33.8605C40.5369 34.056 39.7207 34.1631 38.9 34.1799" fill="#FFCDAA"/>
<path d="M43.2297 28.427C43.2298 29.4894 42.8192 30.5108 42.0836 31.2774C41.348 32.0441 40.3445 32.4966 39.283 32.5404L40.255 24.4703C41.1126 24.7184 41.8665 25.2384 42.403 25.952C42.9395 26.6656 43.2296 27.5342 43.2297 28.427Z" fill="#E0B698"/>
<path d="M38.908 34.3783L38.8922 33.5848C39.6819 33.5693 40.4675 33.4671 41.235 33.2803C41.6318 33.1811 42.087 33.0462 42.4163 32.7764C42.9569 32.332 43.1573 31.5812 43.3477 30.7172C43.6909 29.155 44.0788 27.3845 43.6314 25.7697C43.1176 23.9138 41.5078 22.9705 40.3116 23.162L40.1866 22.3784C42.1555 22.0649 43.9052 23.7849 44.3962 25.5584C44.8921 27.3626 44.4854 29.2353 44.1224 30.8878C43.9518 31.6675 43.7167 32.7347 42.9202 33.3904C42.4679 33.7623 41.9095 33.9339 41.4225 34.052C40.5988 34.2523 39.7556 34.3618 38.908 34.3783Z" fill="#312783"/>
<path d="M41.2439 27.9469C41.0217 28.1477 40.8142 28.3641 40.623 28.5946C40.4677 28.7821 40.3268 28.9811 40.2014 29.1898C39.9892 29.5498 39.9158 29.8028 39.9782 29.8434C40.1151 29.9287 40.7281 29.156 41.6188 28.3635C42.5096 27.571 43.3368 27.0374 43.2664 26.8915C43.2326 26.8241 42.9688 26.8707 42.5929 27.0433C42.3713 27.1454 42.1578 27.2641 41.9541 27.3984C41.7045 27.564 41.4672 27.7473 41.2439 27.9469Z" fill="#312783"/>
<path d="M42.5901 30.294C42.7202 30.2097 42.399 29.4828 41.8727 28.6704C41.3463 27.858 40.8142 27.2678 40.6841 27.3521C40.554 27.4364 40.8752 28.1633 41.4015 28.9757C41.9279 29.788 42.46 30.3783 42.5901 30.294Z" fill="#312783"/>
<path d="M12.4333 22.9636C10.7213 22.6908 9.13128 24.1866 8.6641 25.8579C8.19692 27.5293 8.57186 29.3028 8.94282 30.996C9.12632 31.8321 9.34752 32.7328 10.0091 33.2773C10.389 33.5888 10.8711 33.7445 11.3492 33.8605C12.1451 34.0557 12.96 34.1628 13.7793 34.1799" fill="#FFCDAA"/>
<path d="M9.45074 28.427C9.45061 29.4894 9.86128 30.5108 10.5969 31.2774C11.3324 32.0441 12.3359 32.4966 13.3975 32.5404L12.4254 24.4703C11.5678 24.7184 10.814 25.2384 10.2775 25.952C9.74098 26.6656 9.45084 27.5342 9.45074 28.427Z" fill="#E0B698"/>
<path d="M13.7724 34.3783C12.9245 34.3616 12.081 34.2518 11.257 34.051C10.77 33.932 10.2115 33.7614 9.75924 33.3894C8.96572 32.7348 8.72767 31.6665 8.55706 30.8869C8.19502 29.2344 7.78339 27.3617 8.2833 25.5574C8.77925 23.7839 10.524 22.064 12.4929 22.3774L12.3679 23.161C11.1717 22.9706 9.56185 23.9129 9.04805 25.7687C8.60071 27.3825 8.98953 29.154 9.33173 30.7163C9.52118 31.5802 9.72254 32.3311 10.2631 32.7754C10.5924 33.0462 11.0457 33.1821 11.4445 33.2793C12.2119 33.4665 12.9975 33.569 13.7873 33.5848L13.7724 34.3783Z" fill="#312783"/>
<path d="M11.4415 27.9469C11.6638 28.1476 11.8713 28.3641 12.0625 28.5946C12.2177 28.7821 12.3586 28.9811 12.484 29.1897C12.6963 29.5498 12.7697 29.8027 12.7072 29.8434C12.5703 29.9287 11.9573 29.156 11.0666 28.3635C10.1759 27.571 9.34268 27.0383 9.4131 26.8935C9.44683 26.8261 9.71067 26.8727 10.0866 27.0453C10.3082 27.1474 10.5217 27.2661 10.7254 27.4004C10.9769 27.5651 11.2163 27.7477 11.4415 27.9469Z" fill="#312783"/>
<path d="M11.2781 28.9701C11.8045 28.1577 12.1257 27.4308 11.9956 27.3465C11.8655 27.2622 11.3333 27.8525 10.807 28.6648C10.2806 29.4772 9.95941 30.2041 10.0895 30.2884C10.2196 30.3727 10.7518 29.7825 11.2781 28.9701Z" fill="#312783"/>
<path d="M33.6767 40.8406C33.5652 43.8697 33.756 46.9023 34.246 49.8936C34.3026 50.2368 34.3621 50.5988 34.2619 50.9281C34.1627 51.2733 33.8989 51.5163 33.645 51.7286C31.5848 53.4495 29.0277 54.3333 26.5033 54.1984H26.7414C24.216 54.3333 21.6589 53.4495 19.5997 51.7286C19.3458 51.5163 19.0869 51.2723 18.9828 50.9281C18.8836 50.5988 18.9431 50.2338 18.9987 49.8936C19.4887 46.9023 19.6795 43.8697 19.568 40.8406" fill="#FFCDAA"/>
<path d="M34.0477 47.8353C33.7118 48.0714 33.3722 48.3028 33.029 48.5296C30.9926 49.8558 28.7103 50.9191 26.3575 50.7802C23.6943 50.6235 21.3643 48.9829 19.2318 47.1102C19.2688 46.0476 19.2671 44.9843 19.2268 43.9203H34.0209C33.9706 45.2223 33.9796 46.5273 34.0477 47.8353Z" fill="#E0B698"/>
<path d="M26.2286 54.7123C23.7489 54.7123 21.2999 53.8008 19.2854 52.1136C18.966 51.8467 18.6505 51.5353 18.5117 51.075C18.3788 50.6356 18.4502 50.2002 18.5117 49.8173C18.9965 46.8585 19.1852 43.8587 19.0751 40.8625L20.067 40.8258C20.1793 43.8878 19.9863 46.9533 19.4907 49.977C19.4431 50.2676 19.3915 50.5721 19.4599 50.7874C19.5204 50.9858 19.6811 51.1514 19.9202 51.3508C21.8345 52.9507 24.1665 53.7839 26.5063 53.7155V53.7055H26.7444V53.7155C29.0853 53.7859 31.4162 52.9507 33.3306 51.3508C33.5696 51.1524 33.7273 50.9868 33.7908 50.7874C33.8573 50.5682 33.8077 50.2676 33.7601 49.977C33.2634 46.9534 33.0694 43.8879 33.1808 40.8258L34.1727 40.8625C34.0625 43.8587 34.2513 46.8585 34.7361 49.8173C34.7996 50.2012 34.871 50.6356 34.7361 51.075C34.5972 51.5353 34.2818 51.8457 33.9624 52.1136C31.8368 53.89 29.235 54.8065 26.6224 54.7054C26.4915 54.7064 26.3595 54.7123 26.2286 54.7123Z" fill="#312783"/>
<path d="M26.0997 51.0501C26.2235 51.0361 26.3457 51.0105 26.4647 50.9737C26.5173 50.9529 26.5718 50.938 26.6175 50.9142C26.6403 50.9033 26.6661 50.8953 26.6869 50.8834L26.7494 50.8507C26.9091 50.7664 27.0172 50.6831 27.0827 50.7178C27.1134 50.7347 27.1243 50.7783 27.1144 50.8497C27.1092 50.8923 27.0964 50.9336 27.0767 50.9717C27.0544 51.0232 27.0253 51.0716 26.9904 51.1155C26.9712 51.14 26.9504 51.1655 26.9279 51.1919C26.9034 51.2174 26.8776 51.2416 26.8506 51.2643C26.7913 51.3158 26.7268 51.361 26.6581 51.3992C26.5005 51.485 26.3272 51.538 26.1485 51.555C25.9699 51.5721 25.7896 51.5528 25.6186 51.4984C25.544 51.4729 25.4722 51.4396 25.4044 51.3992C25.3733 51.382 25.3432 51.3631 25.3141 51.3427C25.287 51.3215 25.2615 51.3007 25.2377 51.2802C25.1951 51.2436 25.1574 51.2016 25.1257 51.1552C25.099 51.1218 25.0785 51.0838 25.0652 51.0431C25.0413 50.9747 25.0443 50.9301 25.0711 50.9072C25.1286 50.8606 25.2506 50.9221 25.4242 50.9747L25.4917 50.9955C25.5145 51.0025 25.5413 51.0054 25.5661 51.0124C25.6147 51.0273 25.6712 51.0312 25.7267 51.0421C25.8505 51.0564 25.9754 51.0591 26.0997 51.0501Z" fill="#312783"/>
<path d="M26.5261 8.27957C28.1756 8.36685 30.091 8.41446 31.7365 8.227C33.1361 8.0673 34.7469 7.12699 36.1296 7.62293C36.7704 7.85206 37.2951 8.37082 37.7771 8.90248C38.7869 10.0154 39.7133 11.283 40.2003 12.7798C41.3053 16.184 39.9534 20.0047 40.4513 23.5914L40.4582 23.64C41.0151 27.4104 40.7943 31.2549 39.8095 34.9367L38.8315 38.5383C38.0998 41.2318 36.5021 43.6096 34.2848 45.3049C32.0675 47.0002 29.3539 47.9187 26.5628 47.9186C23.7717 47.9187 21.0581 47.0002 18.8408 45.3049C16.6235 43.6096 15.0258 41.2318 14.2941 38.5383L13.3161 34.9367C12.3315 31.2538 12.1114 27.4083 12.6693 23.6371L12.6763 23.5884C13.1722 20.0037 11.8223 16.183 12.9272 12.7768C13.4143 11.2771 14.3417 10.0134 15.3504 8.8995C15.8325 8.36784 16.3582 7.85008 16.998 7.61996C18.3807 7.12401 19.9915 8.06433 21.3911 8.22402C23.0366 8.41149 24.953 8.36388 26.6015 8.27659" fill="#FFCDAA"/>
<path d="M40.2669 20.3202C40.3581 18.4356 40.6378 16.5332 40.5218 14.7031C40.4295 16.5649 40.1528 18.4664 40.2669 20.3202Z" fill="#E0B698"/>
<path d="M12.4115 14.7031C12.2945 16.5332 12.5752 18.4346 12.6664 20.3202C12.7805 18.4664 12.5038 16.5649 12.4115 14.7031Z" fill="#E0B698"/>
<path d="M39.7105 32.5562L38.7325 36.1577C38.0008 38.8512 36.403 41.2291 34.1857 42.9244C31.9684 44.6197 29.2548 45.5381 26.4637 45.5381C23.6726 45.5381 20.959 44.6197 18.7417 42.9244C16.5245 41.2291 14.9267 38.8512 14.195 36.1577L13.217 32.5562C12.6728 30.542 12.3623 28.4718 12.2915 26.3866C12.19 29.1354 12.502 31.8838 13.217 34.54L14.195 38.1415C14.9267 40.835 16.5245 43.2129 18.7417 44.9082C20.959 46.6034 23.6726 47.5219 26.4637 47.5219C29.2548 47.5219 31.9684 46.6034 34.1857 44.9082C36.403 43.2129 38.0008 40.835 38.7325 38.1415L39.7105 34.54C40.4254 31.8838 40.7374 29.1354 40.6359 26.3866C40.5651 28.4718 40.2546 30.542 39.7105 32.5562Z" fill="#E0B698"/>
<path d="M40.3541 16.9061C36.9014 13.2996 31.9498 11.0411 26.4498 11.0411C20.9229 11.0411 15.9506 13.3224 12.4968 16.9567C12.4879 15.8022 12.5891 14.6674 12.9432 13.5764C13.4302 12.0766 14.3576 10.8119 15.3674 9.70004C15.8494 9.16838 16.3751 8.64962 17.0149 8.4205C18.3976 7.92455 20.0074 8.86486 21.408 9.02456C23.0426 9.21103 24.9441 9.16541 26.5847 9.07911C28.9741 9.21004 31.4023 9.33304 33.7263 8.67343C33.8473 8.63871 33.9683 8.60201 34.0883 8.56333C34.4728 8.44118 34.8792 8.40373 35.2795 8.45356C35.6798 8.50339 36.0646 8.6393 36.4074 8.85197C36.7974 9.11333 37.1609 9.41233 37.4925 9.74467C38.0599 10.3051 38.658 10.8764 39.0885 11.5965C40.008 13.134 40.3293 15.0761 40.3541 16.9061Z" fill="#E0B698"/>
<path d="M20.3259 20.6902C20.0573 20.6931 19.7892 20.714 19.5234 20.7527C19.3935 20.7685 19.2685 20.7943 19.1435 20.8151C19.0186 20.836 18.8995 20.8657 18.7825 20.8985C18.3638 21.0054 17.9547 21.1471 17.5595 21.322C16.8751 21.6196 16.4615 21.8824 16.3692 21.7812C16.3266 21.7346 16.3742 21.6057 16.514 21.4182C16.719 21.1618 16.9599 20.9364 17.2292 20.7487C17.628 20.4626 18.066 20.2355 18.5296 20.0742C18.6595 20.0246 18.7974 19.9879 18.9372 19.9453C19.0771 19.9026 19.2239 19.8728 19.3737 19.8461C19.6827 19.7871 19.9964 19.7556 20.311 19.7518C20.9018 19.7522 21.4907 19.8187 22.0667 19.9502C22.5814 20.0603 23.0318 20.1734 23.4127 20.2815C24.1724 20.4977 24.6317 20.6951 24.6099 20.8221C24.588 20.949 24.0901 20.9828 23.3016 20.9342C22.9048 20.9104 22.4376 20.8628 21.9278 20.8022C21.3969 20.7295 20.8617 20.6921 20.3259 20.6902Z" fill="#E1B79B"/>
<path d="M32.9348 19.7192C33.1956 19.6502 33.4607 19.5989 33.7283 19.5654C33.8573 19.5456 33.9852 19.5377 34.1112 19.5248C34.2372 19.5119 34.3602 19.5079 34.4812 19.5089C34.9125 19.5005 35.3438 19.528 35.7706 19.5912C36.5096 19.6973 36.9788 19.8392 37.0413 19.7162C37.07 19.6597 36.9897 19.5486 36.8052 19.4047C36.5393 19.2121 36.247 19.0587 35.9373 18.9495C35.4766 18.78 34.9938 18.6778 34.504 18.6459C34.3651 18.633 34.2223 18.634 34.0765 18.6311C33.9307 18.6281 33.7789 18.637 33.6301 18.6529C33.3166 18.6787 33.0059 18.7321 32.7017 18.8126C32.1323 18.9702 31.5823 19.1911 31.0621 19.4712C30.5959 19.7142 30.1922 19.9433 29.853 20.1487C29.1785 20.5593 28.7887 20.8717 28.8433 20.9888C28.8978 21.1058 29.3878 21.0057 30.1327 20.7478C30.5047 20.6198 30.9461 20.4502 31.4222 20.2518C31.9141 20.0411 32.4194 19.8631 32.9348 19.7192Z" fill="#E1B79B"/>
<path d="M32.511 18.4714C32.8152 18.3913 33.1259 18.3382 33.4395 18.3127C33.5912 18.2968 33.737 18.2948 33.8858 18.2909C34.0346 18.2869 34.1744 18.2909 34.3133 18.3058C34.8017 18.3374 35.2831 18.4389 35.7426 18.6073C36.0523 18.7166 36.3446 18.8699 36.6105 19.0626C36.795 19.2054 36.8754 19.3175 36.8466 19.374C36.7841 19.497 36.315 19.3552 35.576 19.249C35.1492 19.1859 34.7179 19.1583 34.2865 19.1667C34.1655 19.1667 34.0425 19.1776 33.9166 19.1826C33.7906 19.1875 33.6626 19.2034 33.5337 19.2233C33.2661 19.2564 33.001 19.3074 32.7402 19.376C32.224 19.5209 31.718 19.6998 31.2255 19.9116C30.7504 20.11 30.309 20.2766 29.9361 20.4076C29.1892 20.6645 28.7002 20.7647 28.6466 20.6476C28.5931 20.5306 28.9819 20.2181 29.6564 19.8075C29.9956 19.6022 30.3993 19.373 30.8655 19.13C31.3876 18.8495 31.9396 18.6286 32.511 18.4714Z" fill="#312783"/>
<path d="M20.3991 20.1744C20.1305 20.1774 19.8625 20.1982 19.5967 20.2369C19.4667 20.2528 19.3418 20.2786 19.2168 20.2994C19.0918 20.3202 18.9728 20.35 18.8557 20.3827C18.437 20.4896 18.0279 20.6313 17.6327 20.8063C16.9483 21.1038 16.5347 21.3667 16.4425 21.2655C16.3998 21.2189 16.4474 21.0899 16.5873 20.9025C16.7923 20.6461 17.0331 20.4206 17.3024 20.2329C17.7013 19.9469 18.1392 19.7197 18.6028 19.5584C18.7327 19.5089 18.8706 19.4722 19.0105 19.4295C19.1503 19.3869 19.2971 19.3571 19.4469 19.3303C19.756 19.2714 20.0696 19.2399 20.3842 19.2361C20.975 19.2364 21.5639 19.303 22.1399 19.4345C22.6547 19.5446 23.105 19.6576 23.4859 19.7658C24.2457 19.982 24.7049 20.1794 24.6831 20.3063C24.6613 20.4333 24.1634 20.467 23.3748 20.4184C22.978 20.3946 22.5109 20.347 22.001 20.2865C21.4701 20.2138 20.935 20.1763 20.3991 20.1744Z" fill="#312783"/>
<path d="M26.4664 48.4147C23.5681 48.4096 20.7516 47.4533 18.4493 45.6926C16.1471 43.9319 14.4865 41.4641 13.7226 38.6683L12.7446 35.0668C11.7388 31.3729 11.5166 27.5036 12.082 23.5667L12.0889 23.5201C12.2962 22.0323 12.1683 20.4502 12.0443 18.9217C11.8747 16.8268 11.7001 14.6566 12.3597 12.6262C12.7981 11.2772 13.6006 9.98772 14.8881 8.56931C15.4088 7.99401 15.998 7.41971 16.735 7.15586C17.7893 6.77696 18.929 7.10726 19.9318 7.39888C20.3954 7.54904 20.8704 7.66116 21.3522 7.73414C23.0662 7.93252 25.0778 7.85812 26.4525 7.78572H26.4803C27.8551 7.85812 29.8676 7.92954 31.5806 7.73414C32.0624 7.66116 32.5375 7.54904 33.001 7.39888C34.0028 7.10726 35.1395 6.77696 36.1969 7.15586C36.9329 7.41971 37.5211 7.99401 38.0458 8.56931C39.3353 9.98772 40.1357 11.2772 40.5741 12.6262C41.2347 14.6595 41.0592 16.8268 40.8896 18.9217C40.7656 20.4512 40.6376 22.0323 40.8449 23.5211L40.8519 23.5677C41.4172 27.5036 41.196 31.3729 40.1922 35.0668L39.2142 38.6683C38.4501 41.4648 36.7889 43.933 34.4859 45.6938C32.1829 47.4546 29.3654 48.4105 26.4664 48.4147ZM17.7814 7.97517C17.5393 7.97304 17.2987 8.01298 17.0702 8.0932C16.5673 8.27373 16.1279 8.6814 15.6221 9.23884C14.4318 10.5501 13.6958 11.7245 13.303 12.9356C12.7079 14.7805 12.8636 16.7544 13.0332 18.8453C13.1612 20.4324 13.2931 22.064 13.0719 23.661L13.065 23.7116C12.5184 27.5135 12.7327 31.2499 13.6998 34.8108L14.6778 38.4124C15.3811 41.0006 16.9165 43.2854 19.0472 44.9144C21.1779 46.5434 23.7854 47.426 26.4674 47.426C29.1495 47.426 31.757 46.5434 33.8877 44.9144C36.0183 43.2854 37.5538 41.0006 38.2571 38.4124L39.2351 34.8108C40.2022 31.248 40.4164 27.5145 39.8699 23.7125L39.8629 23.661C39.6408 22.065 39.7737 20.4284 39.9016 18.8463C40.0702 16.7564 40.2299 14.7796 39.6318 12.9366C39.2351 11.7255 38.5021 10.5511 37.3128 9.23983C36.8069 8.68239 36.3675 8.27472 35.8646 8.0942C35.1098 7.82341 34.2211 8.08229 33.2797 8.35506C32.7618 8.52147 32.231 8.64456 31.6927 8.72306C29.9222 8.92143 27.8749 8.85498 26.4654 8.78158C25.056 8.85498 23.0097 8.92441 21.2382 8.72306C20.6999 8.64459 20.169 8.5215 19.6511 8.35506C18.9955 8.15966 18.3617 7.97517 17.7814 7.97517Z" fill="#312783"/>
<path d="M22.5416 1.49995C22.3839 0.706432 22.4632 0.0557503 22.5416 0.058726C22.6199 0.0617017 22.6824 0.687586 22.8332 1.44242C22.984 2.19725 23.1665 2.80032 23.0871 2.83107C23.0078 2.86182 22.6953 2.28949 22.5416 1.49995Z" fill="#312783"/>
<path d="M17.101 1.87192C17.1696 1.69651 17.2853 1.54344 17.4353 1.42953C17.5533 1.34622 17.6456 1.33034 17.6684 1.36109C17.716 1.43152 17.5057 1.65172 17.3777 1.984C17.2498 2.31629 17.2389 2.61683 17.1565 2.63468C17.1179 2.64163 17.0633 2.56624 17.0365 2.4244C17.0066 2.23782 17.0289 2.0466 17.101 1.87192Z" fill="#312783"/>
<path d="M18.6118 1.49126C18.5569 1.19622 18.5569 0.893589 18.6118 0.598551C18.6584 0.374383 18.7258 0.247421 18.7645 0.255356C18.8488 0.27321 18.7863 0.804865 18.9024 1.43571C19.0184 2.06655 19.2506 2.54564 19.1772 2.59126C19.1434 2.61209 19.0363 2.51588 18.9163 2.32147C18.7651 2.06558 18.6619 1.78422 18.6118 1.49126Z" fill="#312783"/>
<path d="M41.8924 18.1114C42.3883 17.5837 42.6274 17.0282 42.7097 17.057C42.7464 17.0699 42.7345 17.2306 42.6442 17.4706C42.3912 18.0972 41.9153 18.6081 41.3082 18.9049C41.0751 19.013 40.9114 19.0368 40.9005 19.0041C40.8648 18.9217 41.4014 18.642 41.8924 18.1114Z" fill="#312783"/>
<path d="M42.5863 12.1757C42.7504 12.1934 42.9052 12.2604 43.0303 12.368C43.1235 12.4532 43.1512 12.5325 43.1294 12.5662C43.0709 12.6267 42.847 12.5057 42.5556 12.476C42.2642 12.4463 42.0194 12.5008 41.9768 12.4274C41.958 12.3928 42.0035 12.3224 42.1145 12.2619C42.2596 12.1865 42.424 12.1565 42.5863 12.1757Z" fill="#312783"/>
<path d="M42.4228 11.7073C42.5569 11.5828 42.7146 11.4865 42.8866 11.4238C43.0204 11.3792 43.1126 11.3812 43.1284 11.4179C43.1601 11.4962 42.8985 11.6736 42.623 11.9273C42.3474 12.181 42.1423 12.4229 42.068 12.3822C42.0333 12.3624 42.0402 12.2702 42.0967 12.1424C42.1753 11.9771 42.2862 11.8291 42.4228 11.7073Z" fill="#312783"/>
<path d="M10.1221 11.1445C9.76795 10.8103 9.38111 10.6654 9.39995 10.5821C9.40888 10.5444 9.52493 10.5295 9.70447 10.5752C9.93579 10.6423 10.1483 10.7624 10.3251 10.926C10.5019 11.0896 10.6382 11.2921 10.7231 11.5175C10.7827 11.692 10.7767 11.8091 10.74 11.821C10.6567 11.8468 10.4831 11.4718 10.1221 11.1445Z" fill="#312783"/>
<path d="M10.0953 11.7115C10.006 11.6543 9.91169 11.6052 9.8136 11.5647C9.73203 11.5324 9.64814 11.5062 9.56265 11.4864C9.41387 11.4517 9.30972 11.4407 9.30079 11.3981C9.29186 11.3554 9.39006 11.2989 9.57555 11.2761C9.68374 11.2671 9.79269 11.2761 9.89791 11.3029C10.1583 11.3692 10.3882 11.5224 10.5496 11.7373C10.6147 11.824 10.665 11.9208 10.6984 12.024C10.7529 12.2015 10.7281 12.3215 10.6914 12.3215C10.6547 12.3215 10.5982 12.2372 10.5089 12.1133C10.4577 12.043 10.4013 11.9767 10.3403 11.9149C10.2649 11.8399 10.1829 11.7719 10.0953 11.7115Z" fill="#385868"/>
<path d="M42.1207 14.8885C41.724 17.8225 40.868 19.8232 40.4742 22.7572C39.8374 20.0186 39.9535 18.128 38.8872 15.5164C37.8209 12.9047 35.8827 10.4577 33.1441 9.6047C31.9538 9.23373 30.6783 9.18612 29.4265 9.1762C27.7899 9.16363 26.1549 9.21885 24.5216 9.34184C22.9445 9.46087 21.3168 9.63941 19.9212 10.3724C17.0447 11.8851 15.91 15.2704 15.0222 18.3383C14.6334 19.6823 14.1295 21.3755 13.7387 22.7195L13.4025 23.6043C13.0057 20.9262 12.3679 17.64 11.8343 14.6009C11.4226 12.2631 11.6144 9.85886 12.3917 7.61595C13.0488 5.72186 14.4259 4.16305 16.2245 3.2774C18.0231 2.39175 20.0983 2.25062 22.0002 2.88462L27.3564 1.43745C29.113 0.962554 30.9559 0.902539 32.7396 1.26214C34.5234 1.62175 36.1991 2.39112 37.6344 3.50951L37.7693 3.61465C39.4487 4.92266 40.7408 6.66271 41.5073 8.64859C42.2738 10.6345 42.4858 12.7914 42.1207 14.8885Z" fill="#231E52"/>
<path opacity="0.5" d="M37.3726 3.51667L37.2377 3.41153C35.2511 1.86436 32.8196 0.997067 30.3024 0.937744C32.1434 1.28217 33.8753 2.06238 35.3531 3.21315L35.488 3.31829C37.1672 4.6262 38.4592 6.3661 39.2257 8.35178C39.9922 10.3375 40.2043 12.4942 39.8394 14.5912C39.6905 15.6531 39.4819 16.7059 39.2145 17.7444C39.5607 19.3185 39.646 20.7915 40.0795 22.6572C40.4762 19.7232 41.3322 17.7226 41.726 14.7885C42.0905 12.6915 41.8779 10.5349 41.1111 8.5494C40.3443 6.5639 39.052 4.82427 37.3726 3.51667Z" fill="#231E52"/>
<path d="M21.3147 2.74199C20.6948 3.7805 19.814 4.68808 18.9084 5.5054C17.5257 6.75618 16.0111 7.91372 14.9993 9.4819C13.5948 11.6541 13.3131 14.3749 13.4798 16.9568C13.5643 18.3062 13.7573 19.6466 14.057 20.9651C13.8775 21.578 13.701 22.1791 13.5432 22.7237L13.207 23.6094C12.8102 20.9264 12.1724 17.6452 11.6388 14.606C11.227 12.2682 11.4188 9.86399 12.1963 7.62111C12.8223 5.80906 14.1093 4.30014 15.7999 3.39608C17.4905 2.49202 19.4601 2.25948 21.3147 2.74496V2.74199Z" fill="#231E52"/>
<path d="M12.6962 25.5623L12.4185 23.6777C12.1477 21.8387 11.7529 19.6715 11.3721 17.5756C11.1985 16.6224 11.0189 15.6354 10.8523 14.6882C10.4278 12.2673 10.6265 9.77821 11.4296 7.4553C12.1209 5.46259 13.5609 3.8173 15.4444 2.86803C17.328 1.91876 19.5071 1.74009 21.5201 2.36986L26.7335 0.960381C28.5647 0.470308 30.4843 0.410125 32.3426 0.784531C34.2009 1.15894 35.9474 1.9578 37.446 3.11874L37.5809 3.22388C39.3317 4.58444 40.6791 6.39606 41.4784 8.46435C42.2777 10.5326 42.4987 12.7795 42.1178 14.9639C41.9194 16.4518 41.596 17.7204 41.2846 18.9444C40.9801 20.1436 40.6647 21.3835 40.4722 22.8227L40.1072 25.5107L39.4952 22.8723C39.2562 21.8427 39.1223 20.9421 38.9933 20.0702C38.782 18.6458 38.5827 17.3008 37.935 15.7059C36.7675 12.8413 34.7877 10.791 32.5034 10.0808C31.3508 9.72277 30.1059 9.68408 28.9325 9.67516C27.3167 9.66226 25.6811 9.71781 24.0723 9.83981C22.5646 9.95289 20.9815 10.1215 19.6663 10.8148C17.007 12.2094 15.905 15.3656 15.0054 18.4782C14.807 19.1507 14.5868 19.9105 14.3636 20.6703C14.1404 21.4301 13.9212 22.1879 13.7228 22.8594L13.71 22.8981L12.6962 25.5623ZM19.092 2.9888C17.6125 2.99193 16.1705 3.45486 14.9657 4.31353C13.7608 5.1722 12.8527 6.38414 12.3669 7.78163C11.6189 9.94491 11.4338 12.263 11.8293 14.5176C11.995 15.4629 12.1745 16.4478 12.3481 17.399C12.599 18.7788 12.8559 20.1892 13.0801 21.5194L13.4114 20.3926C13.6346 19.6348 13.8577 18.876 14.0522 18.2104C15.0123 14.8846 16.2026 11.5131 19.1971 9.93602C20.6849 9.1554 22.3791 8.97091 23.9909 8.84494C25.6295 8.72195 27.2939 8.66541 28.9365 8.6783C30.1873 8.68822 31.5154 8.73087 32.7979 9.12862C35.366 9.9271 37.5729 12.1866 38.8485 15.327C39.5428 17.0291 39.7501 18.4316 39.9703 19.9174L39.9862 20.0275C40.0933 19.5733 40.2054 19.1348 40.3165 18.6964C40.621 17.4972 40.9364 16.2574 41.1289 14.8181V14.7993C41.481 12.791 41.2792 10.7246 40.5452 8.82237C39.8112 6.9201 38.5728 5.2538 36.9629 4.00252L36.834 3.90134C35.4575 2.83465 33.8531 2.10058 32.1461 1.75645C30.4391 1.41233 28.6756 1.46746 26.9934 1.91756L21.4933 3.4054L21.3515 3.35779C20.6231 3.11408 19.8601 2.98949 19.092 2.9888Z" fill="#312783"/>
<path opacity="0.4" d="M20.734 27.5174C22.5188 27.5174 23.9656 26.0705 23.9656 24.2858C23.9656 22.501 22.5188 21.0542 20.734 21.0542C18.9493 21.0542 17.5024 22.501 17.5024 24.2858C17.5024 26.0705 18.9493 27.5174 20.734 27.5174Z" fill="#B5E5F7"/>
<path d="M20.7712 27.9985C20.034 27.9985 19.3133 27.7799 18.7003 27.3703C18.0873 26.9607 17.6096 26.3786 17.3274 25.6975C17.0453 25.0163 16.9715 24.2669 17.1153 23.5438C17.2592 22.8207 17.6142 22.1565 18.1355 21.6352C18.6568 21.1139 19.321 20.7589 20.044 20.6151C20.7671 20.4713 21.5166 20.5451 22.1977 20.8272C22.8788 21.1093 23.461 21.5871 23.8706 22.2001C24.2802 22.8131 24.4988 23.5338 24.4988 24.271C24.4975 25.2592 24.1043 26.2065 23.4056 26.9053C22.7068 27.6041 21.7594 27.9972 20.7712 27.9985ZM20.7712 21.5344C20.2302 21.5344 19.7013 21.6948 19.2514 21.9954C18.8015 22.296 18.4509 22.7232 18.2438 23.2231C18.0368 23.723 17.9826 24.273 18.0882 24.8037C18.1937 25.3344 18.4543 25.8218 18.8368 26.2044C19.2194 26.587 19.7069 26.8475 20.2375 26.9531C20.7682 27.0586 21.3183 27.0045 21.8181 26.7974C22.318 26.5904 22.7452 26.2397 23.0458 25.7898C23.3464 25.34 23.5069 24.8111 23.5069 24.27C23.5061 23.5447 23.2176 22.8493 22.7048 22.3365C22.1919 21.8236 21.4965 21.5351 20.7712 21.5344Z" fill="#312783"/>
<path opacity="0.4" d="M32.3764 27.7135C34.1612 27.7135 35.608 26.2667 35.608 24.482C35.608 22.6972 34.1612 21.2504 32.3764 21.2504C30.5917 21.2504 29.1448 22.6972 29.1448 24.482C29.1448 26.2667 30.5917 27.7135 32.3764 27.7135Z" fill="#B5E5F7"/>
<path d="M32.3765 27.9985C31.6392 27.9985 30.9185 27.7799 30.3056 27.3703C29.6926 26.9607 29.2148 26.3786 28.9327 25.6975C28.6505 25.0163 28.5767 24.2669 28.7206 23.5438C28.8644 22.8207 29.2194 22.1565 29.7407 21.6352C30.262 21.1139 30.9262 20.7589 31.6493 20.6151C32.3723 20.4713 33.1218 20.5451 33.8029 20.8272C34.484 21.1093 35.0662 21.5871 35.4758 22.2001C35.8854 22.8131 36.104 23.5338 36.104 24.271C36.1027 25.2592 35.7095 26.2065 35.0108 26.9053C34.312 27.6041 33.3647 27.9972 32.3765 27.9985ZM32.3765 21.5344C31.8354 21.5344 31.3065 21.6948 30.8566 21.9954C30.4067 22.296 30.0561 22.7232 29.8491 23.2231C29.642 23.723 29.5878 24.273 29.6934 24.8037C29.7989 25.3344 30.0595 25.8218 30.4421 26.2044C30.8247 26.587 31.3121 26.8475 31.8428 26.9531C32.3734 27.0586 32.9235 27.0045 33.4233 26.7974C33.9232 26.5904 34.3505 26.2397 34.6511 25.7898C34.9517 25.34 35.1121 24.8111 35.1121 24.27C35.1113 23.5447 34.8228 22.8493 34.31 22.3365C33.7971 21.8236 33.1018 21.5351 32.3765 21.5344Z" fill="#312783"/>
<path d="M24.1 23.161H29.1447V24.1529H24.1V23.161Z" fill="#312783"/>
<path d="M25.2457 42.4634H28.1718V42.7609H25.2457V42.4634Z" fill="#312783"/>
<path d="M29.9789 7.62709C30.7998 7.72925 31.6107 7.89979 32.4031 8.13692C33.0512 8.33047 33.6816 8.57868 34.2877 8.87885C34.6961 9.08099 35.089 9.31306 35.4631 9.57318C35.726 9.75866 35.8599 9.87075 35.851 9.8886C35.8262 9.92629 35.2469 9.51267 34.2114 9.04549C33.6049 8.77347 32.9794 8.54638 32.3397 8.36605C31.556 8.14541 30.757 7.98394 29.9492 7.88299C28.2273 7.66974 26.6472 7.71735 25.5095 7.77785C24.3718 7.83836 23.6655 7.90978 23.6606 7.87109C23.6606 7.85423 23.8322 7.81555 24.1486 7.76496C24.465 7.71437 24.9252 7.65287 25.4966 7.59931C26.9874 7.44757 28.4902 7.45688 29.9789 7.62709Z" fill="#5A4AD9"/>
<path d="M27.9743 6.81572C28.8015 6.83027 29.626 6.91388 30.4392 7.06567C31.1036 7.1894 31.7563 7.36924 32.3903 7.60328C32.8175 7.75958 33.2325 7.94723 33.6321 8.16469C33.9128 8.32141 34.0596 8.42358 34.0517 8.43647C34.0309 8.47615 33.4109 8.127 32.3317 7.7719C31.6999 7.56574 31.0537 7.40627 30.3985 7.2948C29.596 7.15874 28.7843 7.08315 27.9704 7.06865C26.2356 7.03889 24.6694 7.25413 23.5446 7.43565C22.4197 7.61717 21.7244 7.76297 21.7165 7.72528C21.7165 7.70842 21.8811 7.65188 22.1906 7.56757C22.5001 7.48326 22.9514 7.36919 23.5128 7.25909C24.9797 6.95145 26.4756 6.8028 27.9743 6.81572Z" fill="#5A4AD9"/>
<path d="M13.2655 7.41376C13.5215 6.93486 13.8321 6.48719 14.191 6.07966C14.4869 5.74598 14.8305 5.45787 15.2106 5.22465C15.4674 5.06882 15.7454 4.95089 16.0359 4.87451C16.2422 4.82789 16.3592 4.81995 16.3622 4.83582C16.3751 4.88145 15.9109 4.96477 15.3068 5.37541C14.9571 5.61933 14.6407 5.90775 14.3655 6.2334C14.0289 6.636 13.7344 7.07207 13.4867 7.53477C13.2339 7.99634 13.0189 8.47767 12.844 8.974C12.7018 9.37781 12.602 9.79534 12.5464 10.2198C12.5096 10.5066 12.499 10.7961 12.5147 11.0848C12.5236 11.2901 12.5355 11.4061 12.5147 11.4091C12.4938 11.4121 12.4561 11.303 12.4155 11.0957C12.3609 10.8014 12.3445 10.5014 12.3669 10.203C12.3987 9.76011 12.4843 9.32279 12.6218 8.9006C12.7892 8.38588 13.0047 7.88806 13.2655 7.41376Z" fill="#5A4AD9"/>
<path d="M32.053 2.67445C32.4754 2.82853 32.8828 3.02111 33.27 3.24975C33.4446 3.36084 33.6132 3.46301 33.758 3.57608C33.8314 3.63163 33.9048 3.68122 33.9703 3.73578L34.1578 3.89448C34.2647 3.98547 34.367 4.0818 34.4643 4.18312C34.5079 4.22676 34.5486 4.26743 34.5843 4.30612L34.6775 4.41721C34.7886 4.55211 34.8432 4.63146 34.8303 4.64336C34.7995 4.67212 34.5327 4.40035 34.0447 4.03434L33.8523 3.8925C33.7858 3.84389 33.7114 3.79926 33.637 3.74867C33.4902 3.64948 33.3236 3.55029 33.151 3.4511C32.3915 3.02506 31.5656 2.7303 30.708 2.57923C30.5096 2.54947 30.3221 2.51476 30.1436 2.50186C30.0543 2.49393 29.969 2.48103 29.8867 2.47706L29.6486 2.46516C29.0406 2.44136 28.6567 2.48103 28.6567 2.43937C28.6567 2.42251 28.747 2.39474 28.9176 2.36101L29.0604 2.33423C29.113 2.3263 29.1705 2.32134 29.232 2.31539C29.3713 2.29874 29.5114 2.28914 29.6516 2.28662H29.8966C29.9819 2.28662 30.0702 2.29356 30.1624 2.29753C30.3469 2.29753 30.5413 2.32927 30.7467 2.35407C31.191 2.42066 31.6283 2.5279 32.053 2.67445Z" fill="#5A4AD9"/>
<path d="M16.021 10.7593C16.2738 10.4149 16.5721 10.1063 16.9077 9.84184C17.1822 9.62495 17.4865 9.44888 17.8114 9.31911C18.0293 9.23102 18.2582 9.17296 18.4918 9.14652C18.6564 9.13065 18.7487 9.13958 18.7497 9.15545C18.7556 9.19909 18.3936 9.23579 17.8828 9.48376C17.5857 9.62959 17.3076 9.81113 17.0545 10.0243C16.7444 10.2858 16.4664 10.5832 16.2263 10.9101C15.7145 11.6114 15.3921 12.3434 15.1541 12.8691C14.916 13.3948 14.7682 13.7251 14.7345 13.7122C14.7008 13.6993 14.794 13.3521 14.9884 12.8026C15.2336 12.0759 15.5813 11.3878 16.021 10.7593Z" fill="#5A4AD9"/>
<path d="M16.5566 9.18413C16.7635 9.0566 16.9841 8.95279 17.2142 8.87466C17.3148 8.84173 17.4171 8.81458 17.5207 8.79332C17.6103 8.77347 17.7011 8.75955 17.7925 8.75166C18.1288 8.72092 18.3341 8.76654 18.3331 8.79729C18.3321 8.82804 18.1347 8.85482 17.8223 8.92822C17.7449 8.94707 17.6606 8.9669 17.5733 8.99666C17.486 9.02642 17.3918 9.05816 17.2946 9.09585C16.8745 9.26166 16.4888 9.50379 16.1569 9.81001C16.0825 9.88242 16.0091 9.94888 15.9476 10.0193C15.8861 10.0897 15.8276 10.1522 15.777 10.2177C15.5786 10.4637 15.4725 10.6373 15.4368 10.6204C15.4011 10.6035 15.4566 10.4032 15.6351 10.1135C15.6801 10.0319 15.7305 9.95336 15.7859 9.87845C15.85 9.79423 15.9189 9.71376 15.9922 9.63742C16.1628 9.46569 16.3521 9.31364 16.5566 9.18413Z" fill="#5A4AD9"/>
<path d="M39.5339 11.2841C39.5765 10.7317 39.5639 10.1765 39.4962 9.62664C39.4536 9.19814 39.4347 8.93231 39.4704 8.92239C39.5061 8.91247 39.5845 9.17334 39.6688 9.59986C39.7917 10.1614 39.8295 10.7381 39.7809 11.3109C39.7472 11.6306 39.6691 11.9441 39.5488 12.2423C39.451 12.4866 39.3173 12.7149 39.152 12.9197C38.8634 13.2689 38.6015 13.3849 38.5876 13.3601C38.5738 13.3353 38.7771 13.1617 39.0082 12.8126C39.3017 12.3518 39.4819 11.828 39.5339 11.2841Z" fill="#5A4AD9"/>
<path d="M38.9675 9.09412C38.9292 8.89006 38.8792 8.68837 38.8177 8.49006C38.7582 8.30656 38.6977 8.14389 38.6392 8.00899C38.5251 7.73821 38.4408 7.57256 38.4706 7.55074C38.5003 7.52892 38.6362 7.6648 38.7979 7.92666C38.8917 8.08101 38.9716 8.24332 39.0369 8.4117C39.1981 8.82669 39.2776 9.26891 39.271 9.71406C39.2684 9.89488 39.2498 10.0751 39.2155 10.2527C39.155 10.5552 39.0707 10.7278 39.0399 10.7198C39.0092 10.7119 39.025 10.5215 39.0399 10.2318C39.0478 10.085 39.0478 9.91045 39.0399 9.71802C39.0279 9.50883 39.0037 9.30051 38.9675 9.09412Z" fill="#5A4AD9"/>
<path d="M18.234 51.4895H19.2259V84.4204H18.234V51.4895Z" fill="#312783"/>
<path d="M33.8066 51.0928H34.7985V84.4204H33.8066V51.0928Z" fill="#312783"/>
</svg>
