<svg width="40" height="40" viewBox="0 0 40 40" fill="none" xmlns="http://www.w3.org/2000/svg">
<g clip-path="url(#clip0_195_10910)">
<path d="M35.5555 6.66663H4.44439C3.85502 6.66663 3.28979 6.90075 2.87304 7.3175C2.45629 7.73425 2.22217 8.29948 2.22217 8.88885V31.1111C2.22217 31.7004 2.45629 32.2657 2.87304 32.6824C3.28979 33.0992 3.85502 33.3333 4.44439 33.3333H35.5555C36.1449 33.3333 36.7101 33.0992 37.1269 32.6824C37.5436 32.2657 37.7777 31.7004 37.7777 31.1111V8.88885C37.7777 8.29948 37.5436 7.73425 37.1269 7.3175C36.7101 6.90075 36.1449 6.66663 35.5555 6.66663ZM33.8444 31.1111H6.28883L14.0666 23.0666L12.4666 21.5222L4.44439 29.8222V10.5777L18.2555 24.3222C18.6719 24.7361 19.2351 24.9684 19.8222 24.9684C20.4092 24.9684 20.9725 24.7361 21.3888 24.3222L35.5555 10.2333V29.6777L27.3777 21.5L25.8111 23.0666L33.8444 31.1111ZM5.89995 8.88885H33.7555L19.8222 22.7444L5.89995 8.88885Z" fill="#312783"/>
</g>
<defs>
<clipPath id="clip0_195_10910">
<rect width="40" height="40" fill="white"/>
</clipPath>
</defs>
</svg>
