<svg width="24" height="24" viewBox="0 0 24 24" fill="none" xmlns="http://www.w3.org/2000/svg">
<path d="M21.2754 1.90561C18.1115 4.64386 15.4347 7.25049 12.9841 10.6514C11.9033 12.1514 10.7015 13.9169 9.91585 15.5837C9.46735 16.4676 8.65885 17.8487 8.38322 19.1766C6.87572 17.7741 5.25647 16.1822 3.59972 14.9354C2.41885 14.047 -0.982401 15.8582 0.402099 16.9C2.88347 18.7664 4.9471 21.091 7.3606 23.0406C8.3701 23.8551 10.6073 22.0862 11.1331 21.3441C12.8588 18.8991 13.0947 15.9104 14.3525 13.2434C16.2729 9.16448 19.6786 5.81386 23.0412 2.90424C25.2691 0.82636 22.9681 0.44311 21.2787 1.90561" fill="#006633"/>
</svg>
