<svg width="67" height="67" viewBox="0 0 67 67" fill="none" xmlns="http://www.w3.org/2000/svg">
<path opacity="0.15" d="M41.4992 8.44376L8.73777 41.2051C4.07447 45.8684 4.07447 53.4292 8.73777 58.0925C13.4011 62.7558 20.9618 62.7558 25.6251 58.0925L58.3865 25.3311C63.0498 20.6678 63.0498 13.1071 58.3865 8.44376C53.7232 3.78046 46.1625 3.78046 41.4992 8.44376Z" fill="#006633"/>
<path d="M45.8002 8.66944L45.7572 9.59608C45.716 10.5105 45.9985 11.4103 46.5549 12.1371L47.1185 12.8727C47.6739 13.5992 47.9557 14.4981 47.9147 15.4116C47.8736 16.3252 47.5123 17.1951 46.894 17.8689L46.2683 18.5519C45.6489 19.2262 45.287 20.0972 45.2461 21.0118L45.2031 21.9384C45.1614 22.8524 44.7991 23.7224 44.1798 24.3958C43.5605 25.0692 42.7239 25.503 41.8166 25.6211L40.8995 25.7405C39.9916 25.8589 39.1544 26.2935 38.5352 26.968L37.9095 27.632C37.29 28.3057 36.453 28.7396 35.5455 28.8575C34.6379 28.9754 33.7178 28.7698 32.9467 28.2768L32.1682 27.7991C31.3975 27.3055 30.4775 27.0992 29.5698 27.2164L28.6479 27.2976C27.7412 27.4148 26.8221 27.2091 26.0518 26.7165C25.2815 26.224 24.7091 25.476 24.4351 24.6037L24.1581 23.72C23.884 22.8462 23.3107 22.097 22.5388 21.6041L21.7603 21.1264C20.9893 20.6331 20.4168 19.8838 20.1434 19.0103C19.87 18.1368 19.9131 17.1949 20.2653 16.35L20.6187 15.495C20.9701 14.6498 21.0123 13.7078 20.7381 12.8345L20.4611 11.9509C20.1868 11.0792 20.2279 10.1388 20.5772 9.29431C20.9265 8.44986 21.5617 7.75522 22.3717 7.33204L23.1932 6.90693C24.0048 6.48588 24.6423 5.79258 24.9939 4.94859L25.3474 4.0936C25.6992 3.24902 26.3373 2.55535 27.1496 2.13434C27.9619 1.71334 28.8966 1.5919 29.7895 1.79135L30.7114 1.98241C31.6049 2.18194 32.5401 2.06017 33.3527 1.6385L34.1743 1.2134C34.9879 0.794114 35.9231 0.674892 36.8159 0.876673C37.7086 1.07845 38.5017 1.58834 39.0558 2.31676L39.6338 3.05234C40.1903 3.77907 40.9852 4.28642 41.8787 4.48527L42.7815 4.68588C43.6722 4.88998 44.4627 5.40092 45.0146 6.12921C45.5665 6.85751 45.8446 7.75674 45.8002 8.66944Z" fill="white"/>
<path d="M53.0508 24.8092C52.4566 24.8092 51.8757 24.633 51.3817 24.3029C50.8876 23.9727 50.5025 23.5035 50.2751 22.9545C50.0477 22.4056 49.9882 21.8015 50.1042 21.2187C50.2201 20.6359 50.5062 20.1006 50.9264 19.6804C51.3466 19.2602 51.8819 18.9741 52.4647 18.8581C53.0475 18.7422 53.6516 18.8017 54.2006 19.0291C54.7495 19.2565 55.2188 19.6416 55.5489 20.1357C55.879 20.6297 56.0552 21.2106 56.0552 21.8048C56.0539 22.6012 55.737 23.3647 55.1739 23.9278C54.6107 24.491 53.8472 24.8079 53.0508 24.8092ZM53.0508 20.2286C52.74 20.2286 52.4362 20.3207 52.1778 20.4934C51.9193 20.6661 51.7179 20.9115 51.599 21.1987C51.4801 21.4858 51.4489 21.8018 51.5096 22.1066C51.5702 22.4114 51.7199 22.6914 51.9396 22.9112C52.1594 23.131 52.4394 23.2807 52.7442 23.3413C53.0491 23.4019 53.365 23.3708 53.6522 23.2519C53.9393 23.1329 54.1848 22.9315 54.3574 22.6731C54.5301 22.4147 54.6223 22.1108 54.6223 21.8C54.6198 21.3845 54.4532 20.9867 54.1589 20.6933C53.8646 20.3999 53.4664 20.2346 53.0508 20.2334V20.2286Z" fill="#006633"/>
<path d="M33.5629 28.7736L24.2966 49.298L22.3908 43.9245L17.0937 46.0452L25.4573 26.8773" fill="#E9E7FF"/>
<path d="M33.821 28.7735L43.0825 49.2979L44.9931 43.9244L50.2902 46.0452L41.0239 25.5208" fill="#E9E7FF"/>
<path d="M41.2196 10.8046L41.1909 11.4112C41.1636 12.0092 41.348 12.5978 41.7116 13.0734L42.0794 13.551C42.4423 14.0263 42.6264 14.6141 42.5993 15.2115C42.5722 15.8089 42.3357 16.3777 41.9313 16.8181L41.5444 17.2671C41.1401 17.707 40.9034 18.2752 40.8757 18.872L40.847 19.4786C40.8153 20.0723 40.5767 20.6361 40.1728 21.0723C39.7689 21.5085 39.225 21.7896 38.6355 21.8669L38.0337 21.9433C37.4412 22.0214 36.895 22.3054 36.4909 22.7457L36.0801 23.1899C35.675 23.6297 35.1279 23.9129 34.5349 23.9897C33.9419 24.0666 33.3408 23.9322 32.8369 23.6103L32.3258 23.2855C31.821 22.9637 31.219 22.8301 30.6254 22.9081L30.0045 22.9989C29.4112 23.0757 28.8099 22.9412 28.3059 22.6189C27.802 22.2966 27.4276 21.8071 27.2485 21.2364L27.067 20.6584C26.8879 20.0887 26.5142 19.6001 26.0114 19.278L25.5003 18.9532C25.0011 18.6274 24.632 18.1368 24.4575 17.5668C24.2829 16.9968 24.3139 16.3837 24.545 15.8342L24.779 15.2753C24.9997 14.718 25.0166 14.1006 24.8268 13.5319L24.6549 12.9683C24.4765 12.3977 24.5046 11.7826 24.7343 11.2306C24.964 10.6787 25.3806 10.2252 25.9111 9.9496L26.4508 9.67257C26.9823 9.39776 27.4 8.94455 27.6306 8.39248L27.8646 7.83363C28.0949 7.28169 28.5121 6.82842 29.0431 6.5533C29.5741 6.27819 30.185 6.1988 30.7687 6.32905L31.361 6.46279C31.9443 6.59265 32.5547 6.51318 33.0853 6.2383L33.625 5.96126C34.1558 5.68649 34.7663 5.60722 35.3497 5.73734C35.933 5.86745 36.452 6.19867 36.8157 6.67296L37.1835 7.1506C37.544 7.63231 38.0635 7.97075 38.6499 8.10589L39.2421 8.23963C39.8182 8.37125 40.3305 8.69915 40.6913 9.16712C41.0521 9.6351 41.2389 10.214 41.2196 10.8046Z" fill="#006633"/>
<path d="M24.2202 51.2182L21.9657 44.8655L15.7372 47.3636L24.7981 26.5908L26.1116 27.164L18.4502 44.7318L22.8159 42.9788L24.3778 47.3827L32.9085 28.4823L34.2173 29.0698L24.2202 51.2182Z" fill="#312783"/>
<path d="M43.1637 51.2182L33.1666 29.0698L34.4706 28.4823L43.0061 47.3827L44.568 42.9788L48.905 44.7174L40.3695 25.817L41.6735 25.2295L51.6706 47.3731L45.4182 44.8655L43.1637 51.2182Z" fill="#312783"/>
<path d="M34.5659 29.6095C33.6855 29.6104 32.8234 29.3584 32.0821 28.8835L31.3036 28.4058C30.6745 28.0029 29.9239 27.8339 29.1828 27.9282L28.2657 28.0476C27.1913 28.1881 26.1018 27.9452 25.1888 27.3616C24.2758 26.778 23.5979 25.8911 23.2743 24.8569L22.9973 23.9542C22.7736 23.2426 22.307 22.6323 21.679 22.2299L20.9005 21.7522C19.987 21.1699 19.3083 20.2838 18.9841 19.2501C18.66 18.2164 18.7111 17.1014 19.1284 16.1017L19.4818 15.2467C19.7712 14.5498 19.8033 13.7728 19.5726 13.0543L19.2956 12.1707C18.9704 11.1362 19.0212 10.0201 19.439 9.01945C19.8567 8.01878 20.6145 7.19787 21.5787 6.70164L22.4003 6.28131C23.0641 5.93603 23.585 5.36776 23.8714 4.67642L24.2249 3.82143C24.6395 2.82109 25.3938 1.99911 26.3549 1.50022C27.316 1.00132 28.4223 0.8575 29.479 1.09408L30.3817 1.29469C31.1104 1.46244 31.8749 1.36772 32.5407 1.02721L33.3622 0.602105C34.3237 0.0971998 35.4328 -0.0512514 36.4931 0.183031C37.5535 0.417313 38.4968 1.01922 39.1561 1.88219L39.7197 2.61777C40.1719 3.20973 40.8177 3.62394 41.5443 3.788L42.447 3.98861C43.5046 4.22368 44.4453 4.82451 45.1032 5.6852C45.7612 6.54589 46.0943 7.61121 46.0437 8.69342L45.9959 9.62483C45.9621 10.3707 46.1921 11.1046 46.6455 11.6978L47.2092 12.4334C47.8689 13.2932 48.2039 14.3585 48.155 15.4412C48.106 16.5239 47.6763 17.5546 46.9417 18.3514L46.3207 19.0297C45.8152 19.5795 45.5193 20.2897 45.4849 21.0358L45.4419 21.9624C45.3945 23.0449 44.9665 24.0759 44.2334 24.8737C43.5003 25.6714 42.509 26.1848 41.4344 26.3233L40.5173 26.4427C39.7836 26.5426 39.1078 26.8957 38.6068 27.441L37.9811 28.124C37.5468 28.5961 37.0187 28.972 36.4305 29.2279C35.8424 29.4837 35.2072 29.6137 34.5659 29.6095ZM29.6032 26.4523C30.4834 26.4524 31.3452 26.7043 32.0869 27.1783L32.8655 27.6559C33.4939 28.0583 34.244 28.2261 34.984 28.13C35.7239 28.0339 36.4063 27.68 36.9111 27.1305L37.5368 26.4475C38.2733 25.6569 39.2638 25.1497 40.3358 25.0146L41.2434 24.9095C41.9835 24.8136 42.6661 24.4597 43.171 23.9102C43.676 23.3607 43.971 22.6507 44.0042 21.9051L44.0471 20.9785C44.0976 19.8965 44.5271 18.8668 45.2604 18.0696L45.8861 17.3866C46.3925 16.8375 46.6889 16.1272 46.723 15.381C46.7571 14.6348 46.5267 13.9005 46.0724 13.3075L45.5087 12.5623C44.846 11.703 44.5077 10.6374 44.5535 9.55318L44.5964 8.62655C44.6312 7.88062 44.4016 7.14637 43.9481 6.5531C43.4946 5.95983 42.8463 5.54559 42.1175 5.38334L41.2147 5.18272C40.1579 4.94664 39.2178 4.34641 38.559 3.48708L38.0097 2.75151C37.5565 2.15825 36.9085 1.7439 36.1798 1.58139C35.4512 1.41888 34.6885 1.51863 34.0261 1.86309L33.2046 2.28819C32.2431 2.78539 31.1375 2.92909 30.0808 2.69419L29.1733 2.49358C28.4447 2.32957 27.6816 2.42791 27.0184 2.7713C26.3552 3.11469 25.8345 3.68108 25.5479 4.37073L25.1945 5.22571C24.7776 6.22626 24.0217 7.04809 23.0594 7.54707L22.2379 7.97217C21.5749 8.31549 21.0544 8.88166 20.7678 9.57101C20.4812 10.2604 20.447 11.0287 20.6712 11.7408L20.9482 12.6244C21.2709 13.658 21.2202 14.7721 20.8049 15.7721L20.4515 16.6271C20.1647 17.3161 20.1301 18.0842 20.3537 18.7963C20.5774 19.5083 21.045 20.1186 21.6742 20.5199L22.4528 20.9976C23.3632 21.5823 24.0393 22.4681 24.3634 23.5004L24.6404 24.4318C24.8634 25.1442 25.3306 25.7551 25.9596 26.157C26.5887 26.5589 27.3393 26.726 28.0795 26.629L28.9965 26.5096C29.1973 26.4771 29.3999 26.4579 29.6032 26.4523Z" fill="#312783"/>
<path d="M34.1837 24.747C33.5605 24.747 32.9504 24.5679 32.426 24.2311L31.9149 23.9063C31.553 23.6763 31.1222 23.58 30.6969 23.6341L30.0807 23.7105C29.3206 23.8094 28.5499 23.6371 27.9043 23.2238C27.2587 22.8106 26.7794 22.1829 26.5509 21.4512L26.3694 20.8733C26.2408 20.4632 25.972 20.1114 25.61 19.8798L25.0989 19.555C24.4576 19.1386 23.9833 18.5099 23.7589 17.779C23.5344 17.0481 23.5743 16.2616 23.8713 15.5571L24.1054 14.9982C24.27 14.6022 24.2903 14.161 24.1627 13.7516L23.9812 13.1736C23.7515 12.4424 23.787 11.6536 24.0814 10.946C24.3758 10.2383 24.9103 9.65717 25.5909 9.30469L26.1306 9.02765C26.5117 8.82892 26.811 8.50265 26.976 8.1058L27.2149 7.54218C27.5114 6.83703 28.047 6.25895 28.7275 5.90953C29.408 5.5601 30.1899 5.4617 30.9357 5.6316L31.528 5.76534C31.9482 5.85901 32.3879 5.8015 32.7699 5.60294L33.2857 5.3259C33.9657 4.97287 34.7484 4.87081 35.4962 5.03766C36.2439 5.20451 36.909 5.6296 37.3744 6.2382L37.7422 6.71585C38.0041 7.05722 38.3778 7.29561 38.7978 7.38933L39.39 7.52307C40.1408 7.69014 40.8083 8.11747 41.2742 8.72941C41.7402 9.34135 41.9746 10.0984 41.9359 10.8666L41.9072 11.4732C41.8877 11.9026 42.0195 12.3252 42.2798 12.6673L42.6476 13.145C43.114 13.7539 43.3506 14.508 43.3157 15.2743C43.2807 16.0406 42.9765 16.7699 42.4565 17.3339L42.0458 17.7781C41.7557 18.0953 41.5866 18.5046 41.5681 18.934L41.5442 19.5072C41.5101 20.2732 41.2068 21.0025 40.6878 21.5669C40.1689 22.1314 39.4674 22.4946 38.707 22.5928L38.1052 22.6692C37.6794 22.7258 37.2871 22.9304 36.997 23.2472L36.5863 23.6914C36.2809 24.0243 35.9096 24.2901 35.496 24.4718C35.0824 24.6535 34.6355 24.7472 34.1837 24.747ZM30.9309 22.1868C31.5541 22.1876 32.164 22.3666 32.6887 22.7026L33.1998 23.0274C33.5615 23.26 33.9937 23.3573 34.4201 23.3023C34.8466 23.2472 35.2399 23.0433 35.5307 22.7265L35.9414 22.2823C36.4611 21.7179 37.1628 21.3543 37.9237 21.2554L38.5255 21.179C38.9525 21.1229 39.3459 20.9176 39.6361 20.5994C39.9263 20.2812 40.0947 19.8707 40.1113 19.4403L40.1399 18.8337C40.1777 18.0734 40.4801 17.3502 40.9949 16.7894L41.4057 16.3452C41.6964 16.0291 41.8663 15.6207 41.8855 15.1917C41.9047 14.7627 41.772 14.3407 41.5108 13.9999L41.143 13.5223C40.6765 12.913 40.4397 12.1586 40.4743 11.392L40.503 10.7854C40.5231 10.355 40.3902 9.93143 40.1279 9.58961C39.8657 9.24779 39.4909 9.00981 39.07 8.9178L38.4777 8.78405C37.7302 8.61539 37.0658 8.18934 36.6006 7.58039L36.2328 7.10274C35.972 6.76122 35.5991 6.52269 35.1796 6.4292C34.7602 6.3357 34.3213 6.39324 33.9401 6.59166L33.4243 6.85437C32.7436 7.2067 31.9607 7.30816 31.2128 7.14095L30.6205 7.00721C30.2012 6.91337 29.7622 6.97011 29.3806 7.16749C28.9989 7.36487 28.6989 7.69028 28.5332 8.08669L28.2848 8.66942C27.9901 9.37727 27.4558 9.9589 26.7754 10.3125L26.2596 10.58C25.8778 10.7773 25.578 11.103 25.4128 11.4997C25.2477 11.8964 25.2279 12.3386 25.3568 12.7485L25.5383 13.3265C25.7667 14.0572 25.7312 14.845 25.438 15.5523L25.204 16.1111C25.0387 16.5075 25.0185 16.9494 25.1469 17.3591C25.2754 17.7689 25.5442 18.1202 25.9061 18.3513L26.4172 18.6761C27.0633 19.0892 27.5436 19.7166 27.7737 20.4482L27.9552 21.0261C28.084 21.4355 28.3526 21.7867 28.7141 22.0181C29.0756 22.2495 29.5069 22.3464 29.9327 22.2919L30.5345 22.2154C30.6659 22.1978 30.7983 22.1882 30.9309 22.1868Z" fill="#312783"/>
<path d="M15.0973 41.2258C14.4511 41.2258 13.8194 41.0342 13.2822 40.6752C12.7449 40.3162 12.3261 39.806 12.0789 39.209C11.8316 38.612 11.7669 37.9551 11.8929 37.3214C12.019 36.6876 12.3302 36.1055 12.7871 35.6486C13.244 35.1917 13.8261 34.8805 14.4599 34.7544C15.0936 34.6284 15.7505 34.6931 16.3475 34.9403C16.9445 35.1876 17.4548 35.6064 17.8138 36.1436C18.1727 36.6809 18.3644 37.3126 18.3644 37.9587C18.3631 38.8248 18.0185 39.6551 17.4061 40.2675C16.7936 40.88 15.9634 41.2246 15.0973 41.2258ZM15.0973 36.1246C14.7345 36.1246 14.3799 36.2322 14.0783 36.4337C13.7766 36.6352 13.5415 36.9217 13.4027 37.2568C13.2639 37.592 13.2276 37.9608 13.2984 38.3166C13.3691 38.6724 13.5438 38.9992 13.8003 39.2557C14.0568 39.5122 14.3836 39.6869 14.7394 39.7577C15.0952 39.8284 15.464 39.7921 15.7992 39.6533C16.1343 39.5145 16.4208 39.2794 16.6223 38.9778C16.8239 38.6761 16.9314 38.3215 16.9314 37.9587C16.9302 37.4731 16.7364 37.0078 16.3925 36.6649C16.0487 36.322 15.5829 36.1294 15.0973 36.1294V36.1246Z" fill="#312783"/>
<path d="M30.5251 47.889C31.3007 47.889 31.9294 47.2603 31.9294 46.4847C31.9294 45.7092 31.3007 45.0804 30.5251 45.0804C29.7496 45.0804 29.1209 45.7092 29.1209 46.4847C29.1209 47.2603 29.7496 47.889 30.5251 47.889Z" fill="#006633"/>
<path d="M20.8336 4.02682C21.6091 4.02682 22.2379 3.3981 22.2379 2.62254C22.2379 1.84698 21.6091 1.21826 20.8336 1.21826C20.058 1.21826 19.4293 1.84698 19.4293 2.62254C19.4293 3.3981 20.058 4.02682 20.8336 4.02682Z" fill="#006633"/>
<path d="M49.397 10.1455C50.1726 10.1455 50.8013 9.51675 50.8013 8.74119C50.8013 7.96563 50.1726 7.33691 49.397 7.33691C48.6215 7.33691 47.9927 7.96563 47.9927 8.74119C47.9927 9.51675 48.6215 10.1455 49.397 10.1455Z" fill="#C8C1FF"/>
<g opacity="0.3">
<path opacity="0.3" d="M28.8553 15.0072L33.7001 9.90536L34.7392 10.8921L29.8943 15.9939L28.8553 15.0072Z" fill="#3E6177"/>
<path opacity="0.3" d="M32.1677 15.7773L35.2293 12.4607L36.2822 13.4326L33.2206 16.7493L32.1677 15.7773Z" fill="#3E6177"/>
</g>
<path d="M26.1771 36.1654L29.1599 29.6774L30.0278 30.0764L27.0451 36.5644L26.1771 36.1654Z" fill="white"/>
<path d="M24.4742 39.8737L25.7531 37.0918L26.621 37.4909L25.3421 40.2727L24.4742 39.8737Z" fill="white"/>
<path d="M23.6204 41.7196L24.0473 40.7918L24.9144 41.1908L24.4875 42.1186L23.6204 41.7196Z" fill="white"/>
<path d="M48.384 42.1476H49.3393V48.2089H48.384V42.1476Z" fill="white"/>
<path d="M48.384 49.0735H49.3393V51.6719H48.384V49.0735Z" fill="white"/>
<path d="M48.384 52.5363H49.3386V53.4001H48.384V52.5363Z" fill="white"/>
<path d="M48.0496 53.7257C54.9532 53.7257 60.5496 48.1292 60.5496 41.2257C60.5496 34.3221 54.9532 28.7257 48.0496 28.7257C41.1461 28.7257 35.5497 34.3221 35.5497 41.2257C35.5497 48.1292 41.1461 53.7257 48.0496 53.7257Z" fill="white"/>
<path d="M48.4844 51.3661C54.0848 51.3661 58.6248 46.8261 58.6248 41.2257C58.6248 35.6253 54.0848 31.0853 48.4844 31.0853C42.884 31.0853 38.344 35.6253 38.344 41.2257C38.344 46.8261 42.884 51.3661 48.4844 51.3661Z" fill="#006633"/>
<path d="M48.0501 52.0827C45.9028 52.0827 43.8037 51.4459 42.0183 50.2529C40.2329 49.06 38.8413 47.3644 38.0196 45.3805C37.1979 43.3967 36.9829 41.2137 37.4018 39.1077C37.8207 37.0017 38.8547 35.0672 40.3731 33.5488C41.8914 32.0304 43.826 30.9964 45.932 30.5775C48.038 30.1586 50.221 30.3736 52.2048 31.1953C54.1886 32.0171 55.8842 33.4086 57.0772 35.194C58.2702 36.9794 58.9069 39.0785 58.9069 41.2258C58.9031 44.104 57.7581 46.8633 55.7228 48.8986C53.6876 50.9338 50.9283 52.0789 48.0501 52.0827ZM48.0501 31.7971C46.1862 31.7971 44.3642 32.3498 42.8144 33.3853C41.2646 34.4208 40.0567 35.8926 39.3435 37.6146C38.6302 39.3366 38.4436 41.2315 38.8072 43.0595C39.1708 44.8876 40.0684 46.5668 41.3863 47.8847C42.7043 49.2027 44.3835 50.1002 46.2115 50.4639C48.0396 50.8275 49.9344 50.6409 51.6564 49.9276C53.3784 49.2143 54.8503 48.0064 55.8858 46.4567C56.9213 44.9069 57.474 43.0849 57.474 41.221C57.4689 38.7236 56.4743 36.33 54.7079 34.5645C52.9415 32.7991 50.5475 31.8056 48.0501 31.8018V31.7971Z" fill="#312783"/>
<path d="M47.133 45.7537C46.9448 45.7532 46.7614 45.6949 46.6076 45.5866L42.944 43.0216C42.7882 42.9127 42.6821 42.7463 42.6489 42.5591C42.6158 42.3719 42.6584 42.1791 42.7673 42.0233C42.8762 41.8675 43.0426 41.7614 43.2298 41.7282C43.4171 41.6951 43.6098 41.7377 43.7656 41.8466L47.0183 44.125L52.3345 37.0367C52.391 36.9614 52.4617 36.898 52.5427 36.8501C52.6236 36.8022 52.7132 36.7706 52.8064 36.7573C52.8995 36.744 52.9944 36.7492 53.0855 36.7725C53.1767 36.7959 53.2623 36.837 53.3376 36.8934C53.4129 36.9499 53.4763 37.0206 53.5242 37.1016C53.5722 37.1825 53.6037 37.2721 53.617 37.3653C53.6303 37.4584 53.6251 37.5533 53.6018 37.6444C53.5784 37.7355 53.5373 37.8212 53.4809 37.8965L47.8686 45.3812C47.7835 45.4964 47.6727 45.5901 47.545 45.6548C47.4173 45.7195 47.2762 45.7534 47.133 45.7537Z" fill="white"/>
</svg>
