<svg width="36" height="36" viewBox="0 0 36 36" fill="none" xmlns="http://www.w3.org/2000/svg">
<path d="M9 11.25H18V13.5H9V11.25ZM9 6.75H22.5V9H9V6.75ZM9 2.25H22.5V4.5H9V2.25Z" fill="#312783"/>
<path d="M5.29988 31.5L11.6348 20.2545L19.998 27.5557C20.2508 27.7807 20.5511 27.9457 20.8765 28.0386C21.202 28.1314 21.5441 28.1496 21.8776 28.0919C22.211 28.0341 22.5272 27.9019 22.8024 27.7051C23.0777 27.5083 23.305 27.2519 23.4675 26.955L31.3088 15.2516L29.4401 13.9984L21.5651 25.7524L21.4864 25.8682L13.122 18.567C12.8693 18.3433 12.5695 18.1793 12.2449 18.087C11.9203 17.9946 11.579 17.9764 11.2464 18.0337C10.9138 18.0909 10.5983 18.2221 10.3232 18.4176C10.0481 18.6131 9.82043 18.868 9.657 19.1632L4.5 28.3309V2.25H2.25V31.5C2.2506 32.0966 2.48784 32.6685 2.90967 33.0903C3.3315 33.5122 3.90345 33.7494 4.5 33.75H33.75V31.5H5.29988Z" fill="#312783"/>
</svg>
