<svg width="36" height="34" viewBox="0 0 36 34" fill="none" xmlns="http://www.w3.org/2000/svg">
<path d="M6.51625 0.00744629L4.75625 1.76495L7.375 4.38245L9.1325 2.62495L6.515 0.00744629H6.51625ZM29.485 0.00744629L26.8663 2.62495L28.625 4.38245L31.2425 1.7662L29.4837 0.00744629H29.485ZM18 0.787446C17.5875 0.792446 17.17 0.816197 16.75 0.867447C16.7375 0.867447 16.725 0.864947 16.7125 0.867447C11.6425 1.4487 7.6075 5.54495 6.90625 10.5924C6.34625 14.6549 8.02125 18.3387 10.8125 20.7112C11.9543 21.6856 12.7265 23.0228 13 24.4987V31.9987H15.85C16.285 32.7449 17.0788 33.2487 18 33.2487C18.9212 33.2487 19.715 32.7449 20.15 31.9987H23V26.9987H23.1175V25.5137C23.1175 23.6812 24.07 21.8337 25.6175 20.3974C27.6875 18.3249 29.25 15.3812 29.25 11.9999C29.25 5.82495 24.1675 0.729946 18 0.787446ZM18 3.28745C22.8312 3.21995 26.75 7.17495 26.75 11.9999C26.75 14.6174 25.5375 16.9224 23.8587 18.5999L23.8988 18.6399C22.2305 20.1783 21.1517 22.2509 20.8487 24.4999H15.3812C15.1062 22.3574 14.1875 20.2837 12.4513 18.7962C10.2425 16.9212 8.92625 14.0962 9.36625 10.9062C9.9125 6.9687 13.1075 3.80245 17.0225 3.3687C17.3457 3.32363 17.6712 3.29692 17.9975 3.2887L18 3.28745ZM0.5 11.9999V14.4999H4.25V11.9999H0.5ZM31.75 11.9999V14.4999H35.5V11.9999H31.75ZM7.375 22.1174L4.7575 24.7337L6.51625 26.4924L9.13125 23.8749L7.375 22.1174ZM28.625 22.1174L26.8675 23.8749L29.4837 26.4924L31.2425 24.7337L28.625 22.1174ZM15.5 26.9999H20.5V29.4999H15.5V26.9999Z" fill="#312783"/>
</svg>
