<svg width="77" height="56" viewBox="0 0 77 56" fill="none" xmlns="http://www.w3.org/2000/svg">
<path d="M20.5828 50.6785L22.3822 54.1747L23.1316 53.789L21.2681 50.1685" fill="#6657E2"/>
<path opacity="0.2" d="M21.465 50.8569L22.2857 52.4529L21.4799 52.7275L20.7797 51.3678L21.465 50.8569Z" fill="#0B053C"/>
<path d="M23.3205 53.8501L22.1971 54.4282L20.3016 50.7451L20.6763 50.5518L22.3786 53.861L22.7534 53.6678L20.9861 50.235L21.3608 50.0417L23.3205 53.8501Z" fill="#090053"/>
<path d="M18.9552 52.938L36.3016 44.0079C36.6416 43.8329 36.9438 43.5926 37.191 43.3008C37.4382 43.009 37.6254 42.6714 37.7421 42.3072C37.8588 41.943 37.9026 41.5595 37.871 41.1784C37.8394 40.7973 37.733 40.4261 37.558 40.0861L22.295 10.4331C22.12 10.0931 21.8797 9.79084 21.5879 9.54368C21.2961 9.29652 20.9585 9.10926 20.5943 8.99259C20.2301 8.87592 19.8465 8.83212 19.4654 8.86371C19.0843 8.89529 18.7132 9.00164 18.3732 9.17667L1.02684 18.1045C0.784304 18.2294 0.601321 18.4456 0.518137 18.7054C0.434952 18.9652 0.458378 19.2474 0.583262 19.49L17.5698 52.4945C17.6947 52.737 17.9108 52.92 18.1706 53.0032C18.4305 53.0864 18.7127 53.0629 18.9552 52.938Z" fill="#E8F0F9"/>
<path d="M18.4378 9.30167L1.09144 18.2287C0.93941 18.3068 0.809275 18.4216 0.712831 18.5628C0.616386 18.7039 0.55668 18.8668 0.539124 19.0368C0.611888 18.9664 0.694665 18.9071 0.784772 18.8608L18.1311 9.933C18.4711 9.75797 18.8423 9.65163 19.2234 9.62004C19.6045 9.58846 19.9881 9.63225 20.3522 9.74892C20.7164 9.86559 21.054 10.0528 21.3458 10.3C21.6376 10.5472 21.8779 10.8494 22.0529 11.1894L37.3159 40.8456C37.4959 41.1946 37.6031 41.5766 37.6311 41.9683C37.6591 42.36 37.6072 42.7534 37.4787 43.1245C37.7565 42.6949 37.9161 42.1996 37.9413 41.6887C37.9666 41.1777 37.8567 40.6691 37.6226 40.2142L22.3596 10.5581C22.1846 10.2181 21.9443 9.91584 21.6525 9.66868C21.3607 9.42152 21.0231 9.23426 20.6589 9.11759C20.2947 9.00092 19.9111 8.95712 19.5301 8.98871C19.1489 9.02029 18.7778 9.12664 18.4378 9.30167Z" fill="white"/>
<path d="M1.79951 17.8641L1.34107 18.0988C1.22105 18.161 1.11444 18.2461 1.02735 18.3495C0.940249 18.4528 0.874366 18.5723 0.833464 18.7011C0.792561 18.8299 0.77744 18.9655 0.788964 19.1002C0.800489 19.2348 0.838433 19.3659 0.900629 19.4859L17.8832 52.4904C17.945 52.6105 18.0299 52.7173 18.1329 52.8047C18.236 52.8921 18.3553 52.9583 18.4839 52.9995C18.6126 53.0408 18.7481 53.0563 18.8828 53.0452C19.0174 53.0341 19.1486 52.9965 19.2687 52.9347L19.7271 52.7L1.79951 17.8641Z" fill="#D9D5FD"/>
<path d="M36.4962 44.2284L19.1459 53.1555C18.8535 53.3056 18.5135 53.3336 18.2005 53.2333C17.8875 53.1329 17.6271 52.9125 17.4764 52.6204L0.489916 19.6167C0.339793 19.3243 0.311823 18.9843 0.412147 18.6713C0.512472 18.3583 0.732892 18.0979 1.02502 17.9472L18.3714 9.01938C19.1083 8.6422 19.9646 8.57235 20.7528 8.82513C21.5411 9.07791 22.197 9.63273 22.5771 10.3681L37.8402 40.0243C38.2172 40.7604 38.2875 41.6159 38.0356 42.4037C37.7838 43.1915 37.2303 43.8475 36.4962 44.2284ZM1.21826 18.3219C1.02543 18.4215 0.879977 18.5934 0.813826 18.8001C0.747676 19.0068 0.766235 19.2312 0.86543 19.4242L17.8511 52.4279C17.9507 52.6208 18.1226 52.7662 18.3293 52.8324C18.536 52.8985 18.7604 52.88 18.9534 52.7808L36.2998 43.8514C36.9361 43.5229 37.4162 42.9554 37.6347 42.2735C37.8532 41.5915 37.7924 40.8507 37.4655 40.2136L22.2024 10.5598C21.8739 9.92344 21.3065 9.44337 20.6245 9.22485C19.9425 9.00633 19.2018 9.0672 18.5646 9.39411L1.21826 18.3219Z" fill="#090053"/>
<path opacity="0.2" d="M25.4655 23.7458L23.3704 21.6679L19.9994 18.3235L19.9251 18.25C19.7873 18.1133 19.6009 18.037 19.4068 18.0377C19.2127 18.0385 19.0269 18.1162 18.8901 18.2539L18.8166 18.3282L8.42815 28.8003L8.35461 28.8786C8.21797 29.0164 8.14164 29.2028 8.14237 29.3969C8.1431 29.5909 8.22085 29.7768 8.35852 29.9136L11.1287 32.6619L13.8246 35.3319L13.9028 35.4054C14.0406 35.5421 14.2271 35.6184 14.4211 35.6177C14.6152 35.617 14.801 35.5392 14.9378 35.4015L25.4733 24.7769C25.6083 24.6387 25.6831 24.4528 25.6817 24.2597C25.6802 24.0666 25.6025 23.8819 25.4655 23.7458Z" fill="#463E3B"/>
<path d="M19.9812 17.6036L8.11741 27.5726C7.92026 27.7383 7.89473 28.0324 8.06039 28.2295L13.4224 34.6106C13.588 34.8078 13.8822 34.8333 14.0793 34.6676L25.9431 24.6986C26.1403 24.5329 26.1658 24.2388 26.0001 24.0417L20.6381 17.6606C20.4725 17.4634 20.1784 17.4379 19.9812 17.6036Z" fill="white"/>
<path opacity="0.2" d="M17.2379 32.0125L14.3645 34.4283C14.2803 34.4993 14.1828 34.553 14.0778 34.5863C13.9728 34.6195 13.8623 34.6318 13.7525 34.6222C13.6428 34.6127 13.536 34.5816 13.4383 34.5308C13.3406 34.4799 13.2539 34.4102 13.1832 34.3258L8.29759 28.5116C8.27898 28.4899 8.26198 28.4669 8.24673 28.4427C9.23246 28.6493 10.3027 28.6321 11.3126 28.5671C11.8501 28.5319 12.3922 28.4889 12.9258 28.5531C14.3191 28.722 15.538 29.6201 16.3993 30.7263C16.7127 31.132 16.9932 31.5621 17.2379 32.0125Z" fill="#DED6D3"/>
<path d="M14.243 34.7762C14.0528 34.8731 13.8354 34.9027 13.6262 34.86C13.417 34.8174 13.2285 34.7051 13.0914 34.5415L8.07051 28.5669C7.99068 28.4721 7.93033 28.3624 7.8929 28.2442C7.85547 28.126 7.8417 28.0016 7.85238 27.8781C7.86306 27.7546 7.89798 27.6344 7.95514 27.5244C8.0123 27.4144 8.09058 27.3167 8.18551 27.237L19.6426 17.6105C19.7372 17.5301 19.8468 17.4693 19.965 17.4315C20.0833 17.3937 20.2079 17.3798 20.3315 17.3905C20.4552 17.4011 20.5756 17.4363 20.6856 17.4938C20.7956 17.5513 20.8931 17.6301 20.9725 17.7255L25.9934 23.6993C26.0733 23.7942 26.1336 23.9038 26.171 24.022C26.2085 24.1402 26.2222 24.2646 26.2116 24.3881C26.2009 24.5116 26.166 24.6318 26.1088 24.7418C26.0516 24.8519 25.9734 24.9495 25.8784 25.0293L14.4198 34.6565C14.3655 34.7029 14.3062 34.743 14.243 34.7762ZM20.0103 17.871C19.9756 17.889 19.943 17.9108 19.9133 17.936L8.45697 27.5616C8.35126 27.6507 8.28521 27.7781 8.27333 27.9158C8.26145 28.0536 8.30471 28.1904 8.39361 28.2962L13.4177 34.27C13.5067 34.3757 13.6341 34.4418 13.7718 34.4537C13.9096 34.4655 14.0464 34.4223 14.1523 34.3334L25.6054 24.7054C25.7111 24.6163 25.7772 24.4889 25.7891 24.3512C25.8009 24.2135 25.7577 24.0767 25.6688 23.9708L20.6479 17.997C20.5718 17.9066 20.4673 17.8447 20.3515 17.8214C20.2357 17.7981 20.1154 17.8147 20.0103 17.8687V17.871Z" fill="#090053"/>
<path opacity="0.2" d="M16.1435 11.0721C16.0287 10.849 15.8301 10.6807 15.5912 10.6041C15.3524 10.5275 15.0929 10.549 14.8699 10.6637L14.1791 11.0196C13.9835 11.1212 13.8296 11.2878 13.7439 11.4908C13.6582 11.6938 13.6461 11.9204 13.7097 12.1313C13.7168 12.2633 13.7517 12.3924 13.8122 12.51L31.3862 46.6613C31.4431 46.7721 31.5213 46.8705 31.6163 46.951C31.7113 47.0315 31.8213 47.0924 31.9399 47.1303C32.0585 47.1681 32.1835 47.1822 32.3076 47.1717C32.4316 47.1612 32.5524 47.1262 32.6629 47.0689L33.3537 46.713C33.5736 46.542 33.7296 46.3021 33.7966 46.0318C33.8635 45.7614 33.8376 45.4764 33.723 45.2226L16.1435 11.0721Z" fill="#463E3B"/>
<path d="M15.5091 10.18L14.9109 10.4878C14.421 10.7399 14.2283 11.3413 14.4804 11.8311L32.0075 45.8915C32.2596 46.3813 32.861 46.5741 33.3509 46.322L33.9491 46.0141C34.4389 45.7621 34.6317 45.1607 34.3796 44.6708L16.8524 10.6105C16.6004 10.1207 15.9989 9.9279 15.5091 10.18Z" fill="#938D35"/>
<path d="M15.6815 10.3296L34.0246 45.9705C34.0155 45.9763 34.0061 45.9815 33.9964 45.9861L33.6506 46.1645L15.3052 10.5189L15.5939 10.3703C15.6221 10.3557 15.6513 10.3421 15.6815 10.3296Z" fill="#DAE23B"/>
<path d="M14.3904 10.7339L14.5149 10.6698L32.9556 46.5054L32.8311 46.5695L14.3904 10.7339Z" fill="#463E3B"/>
<path d="M14.8289 10.6663L14.9535 10.6022L33.3942 46.4378L33.2697 46.5018L14.8289 10.6663Z" fill="#463E3B"/>
<path d="M15.2024 10.473L15.3269 10.4089L33.7676 46.2445L33.6431 46.3086L15.2024 10.473Z" fill="#463E3B"/>
<path d="M15.5776 10.2806L15.7022 10.2166L34.1429 46.0521L34.0183 46.1162L15.5776 10.2806Z" fill="#463E3B"/>
<path d="M15.9525 10.0884L16.0771 10.0243L34.5178 45.8599L34.3933 45.9239L15.9525 10.0884Z" fill="#463E3B"/>
<path d="M34.0713 46.2654L33.3805 46.6214C33.1078 46.7614 32.7908 46.7874 32.4989 46.6938C32.207 46.6003 31.9642 46.3947 31.8237 46.1223L14.2434 11.9709C14.1034 11.6982 14.0774 11.3811 14.171 11.0892C14.2645 10.7974 14.4701 10.5545 14.7425 10.4141L15.4333 10.0581C15.706 9.91815 16.0231 9.89208 16.315 9.98566C16.6069 10.0792 16.8497 10.2848 16.9902 10.5572L34.5665 44.7117C34.7058 44.9836 34.7319 45.2996 34.6391 45.5906C34.5464 45.8817 34.3422 46.1243 34.0713 46.2654ZM14.935 10.7888C14.7623 10.878 14.632 11.0319 14.5725 11.2169C14.513 11.4019 14.5291 11.603 14.6174 11.7761L32.1937 45.9298C32.2831 46.1029 32.4375 46.2335 32.623 46.2929C32.8086 46.3523 33.0101 46.3357 33.1834 46.2467L33.8742 45.8907C34.0473 45.8014 34.1779 45.647 34.2373 45.4614C34.2967 45.2759 34.2801 45.0743 34.191 44.9011L16.6154 10.7497C16.5261 10.5766 16.3717 10.446 16.1861 10.3866C16.0006 10.3272 15.7991 10.3438 15.6258 10.4329L14.935 10.7888Z" fill="#090053"/>
<path d="M63.2121 1.30725H27.6518C26.5574 1.30725 25.6702 2.19445 25.6702 3.28887V53.3487C25.6702 54.4431 26.5574 55.3303 27.6518 55.3303H63.2121C64.3066 55.3303 65.1938 54.4431 65.1938 53.3487V3.28887C65.1938 2.19445 64.3066 1.30725 63.2121 1.30725Z" fill="#006633"/>
<path d="M65.1938 35.1199V52.0962C65.1938 53.883 64.3465 55.3311 63.3013 55.3311H27.5626C26.5174 55.3311 25.6702 53.883 25.6702 52.0962V42.2773C28.0797 44.9826 30.8226 46.8077 33.6358 47.9413C37.0326 49.3119 40.5397 49.7117 44.0289 49.7704C48.2002 49.8416 52.4435 49.4128 56.3708 47.0119C59.9718 44.8097 63.3091 40.7627 65.1938 35.1199Z" fill="#07361F"/>
<path d="M39.9604 1.44336C36.2373 2.51122 31.0654 1.48091 27.8516 5.40502C26.3261 7.26616 25.9514 10.8742 25.7057 13.8588L25.7104 5.50516C25.7104 4.43494 25.7315 3.26694 26.1368 2.45411C26.639 1.44257 27.5152 1.36512 28.2882 1.36591C32.0855 1.37138 36.2373 0.667295 39.9604 1.44336Z" fill="#35B776"/>
<path d="M63.1748 1.37134H27.6144C26.52 1.37134 25.6328 2.25854 25.6328 3.35295V53.4128C25.6328 54.5072 26.52 55.3944 27.6144 55.3944H63.1748C64.2692 55.3944 65.1564 54.5072 65.1564 53.4128V3.35295C65.1564 2.25854 64.2692 1.37134 63.1748 1.37134Z" stroke="#090053" stroke-miterlimit="10"/>
<path d="M60.2562 4.86755H30.6486C29.9633 4.86755 29.4078 5.42306 29.4078 6.10831V50.1427C29.4078 50.828 29.9633 51.3835 30.6486 51.3835H60.2562C60.9415 51.3835 61.497 50.828 61.497 50.1427V6.10831C61.497 5.42306 60.9415 4.86755 60.2562 4.86755Z" fill="white"/>
<path d="M61.4577 6.18715V15.2182H29.3693V6.18715C29.3693 5.49401 29.8285 4.93544 30.3957 4.93544H60.4352C60.9985 4.93231 61.4577 5.49401 61.4577 6.18715Z" fill="#614EFF"/>
<path d="M60.2177 4.79004H30.6101C29.9248 4.79004 29.3693 5.34555 29.3693 6.0308V50.4016C29.3693 51.0868 29.9248 51.6424 30.6101 51.6424H60.2177C60.903 51.6424 61.4585 51.0868 61.4585 50.4016V6.0308C61.4585 5.34555 60.903 4.79004 60.2177 4.79004Z" stroke="#090053" stroke-miterlimit="10"/>
<path d="M34.9064 10.9495H55.8678V12.7613H34.9064V10.9495Z" fill="white"/>
<path d="M44.5085 24.4482H34.2531V24.0172H44.5085V24.4482Z" fill="#C8FFE3"/>
<path d="M56.5737 25.3964H34.2541V24.9653H56.5737V25.3964Z" fill="#C8FFE3"/>
<path d="M44.5085 26.3445H34.2531V25.9134H44.5085V26.3445Z" fill="#C8FFE3"/>
<path d="M56.5737 27.292H34.2541V26.8609H56.5737V27.292Z" fill="#C8FFE3"/>
<path d="M44.5085 28.2408H34.2531V27.8098H44.5085V28.2408Z" fill="#C8FFE3"/>
<path d="M56.5737 29.1882H34.2541V28.7572H56.5737V29.1882Z" fill="#C8FFE3"/>
<path d="M59.9057 7.76831H52.2069V6.86239H59.9057V7.76831Z" fill="#79FFBC"/>
<path d="M51.1447 7.76831H43.4459V6.86239H51.1447V7.76831Z" fill="#79FFBC"/>
<path d="M31.795 8.1884C32.2772 8.1884 32.668 7.79751 32.668 7.31533C32.668 6.83315 32.2772 6.44226 31.795 6.44226C31.3128 6.44226 30.9219 6.83315 30.9219 7.31533C30.9219 7.79751 31.3128 8.1884 31.795 8.1884Z" fill="#79FFBC"/>
<path d="M37.3262 21.5661C38.3981 21.5661 39.2671 20.6971 39.2671 19.6251C39.2671 18.5532 38.3981 17.6842 37.3262 17.6842C36.2542 17.6842 35.3853 18.5532 35.3853 19.6251C35.3853 20.6971 36.2542 21.5661 37.3262 21.5661Z" fill="#312783"/>
<path d="M54.2761 17.8783H52.9196C52.2758 17.8783 51.7539 18.4002 51.7539 19.044V20.4005C51.7539 21.0443 52.2758 21.5661 52.9196 21.5661H54.2761C54.9199 21.5661 55.4418 21.0443 55.4418 20.4005V19.044C55.4418 18.4002 54.9199 17.8783 54.2761 17.8783Z" fill="#867BDA"/>
<path d="M45.1884 18.1551C45.2154 18.1062 45.2551 18.0654 45.3032 18.037C45.3514 18.0086 45.4063 17.9937 45.4622 17.9937C45.5181 17.9937 45.5729 18.0086 45.6211 18.037C45.6692 18.0654 45.7089 18.1062 45.736 18.1551L46.584 19.6235L47.432 21.0919C47.4596 21.1396 47.4741 21.1938 47.474 21.2489C47.4739 21.304 47.4592 21.3581 47.4315 21.4057C47.4038 21.4534 47.364 21.4928 47.3162 21.5201C47.2683 21.5475 47.2141 21.5617 47.159 21.5613H43.7661C43.711 21.5617 43.6568 21.5475 43.6089 21.5201C43.5611 21.4928 43.5213 21.4534 43.4936 21.4057C43.4659 21.3581 43.4512 21.304 43.4511 21.2489C43.4511 21.1938 43.4655 21.1396 43.4931 21.0919L44.3411 19.6235L45.1884 18.1551Z" fill="#79FFBC"/>
<path d="M74.9458 14.9775L69.5268 13.0174C68.6544 12.7018 67.6914 13.1533 67.3758 14.0256L54.3278 50.0997C54.0122 50.9721 54.4636 51.9351 55.336 52.2507L60.755 54.2107C61.6274 54.5263 62.5904 54.0749 62.906 53.2025L75.954 17.1284C76.2696 16.256 75.8182 15.293 74.9458 14.9775Z" fill="#E8F0F9"/>
<path d="M75.3085 14.9054L74.0404 14.4532C74.3628 14.5684 74.6264 14.8069 74.7731 15.1163C74.9198 15.4256 74.9376 15.7806 74.8227 16.1032L61.6703 52.9848C61.5552 53.3073 61.3167 53.5708 61.0073 53.7175C60.6979 53.8642 60.343 53.8821 60.0204 53.7671L61.2886 54.2193C61.6111 54.3343 61.9661 54.3164 62.2755 54.1697C62.5848 54.023 62.8233 53.7595 62.9385 53.437L76.0908 16.5577C76.1481 16.3978 76.1733 16.2283 76.1649 16.0587C76.1566 15.8891 76.1149 15.7228 76.0422 15.5693C75.9696 15.4159 75.8674 15.2783 75.7415 15.1643C75.6156 15.0504 75.4684 14.9624 75.3085 14.9054Z" fill="#BCD9EA"/>
<path opacity="0.2" d="M75.3087 14.9054L69.1463 12.7079C68.8238 12.5929 68.4688 12.6108 68.1594 12.7575C67.85 12.9042 67.6116 13.1677 67.4964 13.4902L66.9942 14.8984C67.1093 14.5759 67.3478 14.3124 67.6572 14.1657C67.9666 14.019 68.3215 14.0011 68.6441 14.116L74.8064 16.3136C75.1289 16.4287 75.3924 16.6672 75.5391 16.9766C75.6858 17.286 75.7037 17.6409 75.5887 17.9635L76.091 16.5553C76.2059 16.2328 76.1881 15.8778 76.0414 15.5684C75.8947 15.259 75.6311 15.0205 75.3087 14.9054Z" fill="#463E3B"/>
<path d="M73.772 18.171L73.9228 17.7481L75.3317 18.2506L75.1808 18.6735L73.772 18.171Z" fill="#090053"/>
<path d="M73.3701 19.2986L73.5209 18.8756L74.9298 19.3781L74.7789 19.8011L73.3701 19.2986Z" fill="#090053"/>
<path d="M72.9674 20.4258L73.1182 20.0028L74.5271 20.5053L74.3762 20.9283L72.9674 20.4258Z" fill="#090053"/>
<path d="M71.4137 21.2618L71.5664 20.8397L74.3785 21.8569L74.2258 22.279L71.4137 21.2618Z" fill="#090053"/>
<path d="M72.3978 22.4685L72.5486 22.0456L73.9575 22.5481L73.8066 22.971L72.3978 22.4685Z" fill="#090053"/>
<path d="M71.9955 23.5961L72.1464 23.1731L73.5552 23.6756L73.4044 24.0986L71.9955 23.5961Z" fill="#090053"/>
<path d="M71.5943 24.7235L71.7452 24.3006L73.154 24.8031L73.0032 25.226L71.5943 24.7235Z" fill="#090053"/>
<path d="M70.0262 25.5741L70.1789 25.152L72.991 26.1691L72.8383 26.5912L70.0262 25.5741Z" fill="#090053"/>
<path d="M71.024 26.7661L71.1748 26.3432L72.5837 26.8457L72.4328 27.2686L71.024 26.7661Z" fill="#090053"/>
<path d="M70.6217 27.8936L70.7726 27.4706L72.1814 27.9731L72.0306 28.3961L70.6217 27.8936Z" fill="#090053"/>
<path d="M70.2198 29.0209L70.3706 28.5979L71.7795 29.1004L71.6287 29.5234L70.2198 29.0209Z" fill="#090053"/>
<path d="M68.4093 29.6453L68.5601 29.2223L71.3778 30.2273L71.227 30.6503L68.4093 29.6453Z" fill="#090053"/>
<path d="M69.3682 30.9635L69.5191 30.5405L70.9279 31.0431L70.7771 31.466L69.3682 30.9635Z" fill="#090053"/>
<path d="M68.9662 32.0911L69.1171 31.6681L70.526 32.1706L70.3751 32.5936L68.9662 32.0911Z" fill="#090053"/>
<path d="M68.5643 33.2177L68.7152 32.7947L70.124 33.2972L69.9732 33.7202L68.5643 33.2177Z" fill="#090053"/>
<path d="M66.9681 34.0988L67.1208 33.6766L69.9329 34.6938L69.7802 35.1159L66.9681 34.0988Z" fill="#090053"/>
<path d="M67.853 35.2108L68.0039 34.7879L69.4127 35.2904L69.2619 35.7133L67.853 35.2108Z" fill="#090053"/>
<path d="M67.4515 36.3376L67.6023 35.9147L69.0112 36.4172L68.8603 36.8402L67.4515 36.3376Z" fill="#090053"/>
<path d="M67.0491 37.4652L67.2 37.0423L68.6089 37.5448L68.458 37.9677L67.0491 37.4652Z" fill="#090053"/>
<path d="M65.44 38.3599L65.5927 37.9378L68.4048 38.9549L68.2521 39.377L65.44 38.3599Z" fill="#090053"/>
<path d="M66.4792 39.5085L66.6301 39.0856L68.0389 39.5881L67.8881 40.011L66.4792 39.5085Z" fill="#090053"/>
<path d="M66.0776 40.6359L66.2285 40.2129L67.6374 40.7154L67.4865 41.1384L66.0776 40.6359Z" fill="#090053"/>
<path d="M65.675 41.7627L65.8258 41.3397L67.2347 41.8422L67.0838 42.2652L65.675 41.7627Z" fill="#090053"/>
<path d="M64.0514 42.6722L64.2041 42.2501L67.0162 43.2673L66.8635 43.6894L64.0514 42.6722Z" fill="#090053"/>
<path d="M64.9644 43.756L65.1152 43.333L66.5241 43.8355L66.3732 44.2585L64.9644 43.756Z" fill="#090053"/>
<path d="M64.5625 44.8833L64.7133 44.4603L66.1222 44.9629L65.9713 45.3858L64.5625 44.8833Z" fill="#090053"/>
<path d="M64.1606 46.0109L64.3114 45.5879L65.7203 46.0904L65.5694 46.5134L64.1606 46.0109Z" fill="#090053"/>
<path d="M62.3496 46.635L62.5005 46.2121L65.3182 47.2171L65.1674 47.64L62.3496 46.635Z" fill="#090053"/>
<path d="M63.4503 48.0037L63.6012 47.5807L65.01 48.0832L64.8592 48.5062L63.4503 48.0037Z" fill="#090053"/>
<path d="M63.0477 49.1309L63.1985 48.7079L64.6074 49.2104L64.4565 49.6334L63.0477 49.1309Z" fill="#090053"/>
<path d="M62.6454 50.2576L62.7962 49.8346L64.2051 50.3371L64.0542 50.7601L62.6454 50.2576Z" fill="#090053"/>
<path d="M60.8345 50.8826L60.9854 50.4596L63.8031 51.4646L63.6522 51.8876L60.8345 50.8826Z" fill="#090053"/>
<path d="M56.2862 52.2781L70.2073 13.2477L70.4887 13.3481L56.5676 52.3785L56.2862 52.2781Z" fill="white"/>
<path d="M54.6649 51.6979L54.2425 51.547L67.9612 13.0803C68.0012 12.9682 68.0841 12.8765 68.1916 12.8255C68.2991 12.7745 68.4225 12.7682 68.5347 12.8081L54.6649 51.6979Z" fill="white"/>
<path d="M54.6662 51.7002L68.5369 12.8114L68.9598 12.9622L55.0892 51.8511L54.6662 51.7002Z" fill="white"/>
<path d="M55.0881 51.8503L68.9588 12.9615L69.3817 13.1124L55.5111 52.0012L55.0881 51.8503Z" fill="white"/>
<path d="M59.566 51.5426C59.6908 51.1926 59.5083 50.8077 59.1583 50.6829C58.8084 50.5581 58.4235 50.7406 58.2986 51.0905C58.1738 51.4405 58.3563 51.8254 58.7063 51.9503C59.0563 52.0751 59.4412 51.8926 59.566 51.5426Z" fill="white"/>
<path d="M58.6295 52.1593C58.4624 52.1 58.3166 51.9924 58.2106 51.8502C58.1046 51.708 58.0431 51.5376 58.0338 51.3605C58.0246 51.1834 58.0681 51.0075 58.1588 50.8551C58.2494 50.7026 58.3832 50.5805 58.5433 50.5041C58.7033 50.4277 58.8824 50.4004 59.058 50.4257C59.2335 50.451 59.3976 50.5278 59.5296 50.6463C59.6615 50.7648 59.7554 50.9198 59.7993 51.0916C59.8432 51.2634 59.8353 51.4444 59.7764 51.6117C59.6969 51.8364 59.5314 52.0203 59.3163 52.123C59.1012 52.2257 58.8542 52.2388 58.6295 52.1593ZM59.0817 50.892C58.998 50.8622 58.9074 50.8578 58.8212 50.8795C58.7351 50.9012 58.6573 50.9479 58.5977 51.0138C58.5382 51.0797 58.4995 51.1618 58.4866 51.2497C58.4736 51.3376 58.4871 51.4273 58.5252 51.5075C58.5633 51.5878 58.6243 51.6549 58.7006 51.7005C58.7768 51.746 58.8649 51.7679 58.9536 51.7634C59.0423 51.7589 59.1277 51.7282 59.199 51.6752C59.2702 51.6221 59.3241 51.5491 59.3539 51.4654C59.3938 51.3533 59.3875 51.2299 59.3365 51.1224C59.2854 51.0148 59.1938 50.932 59.0817 50.892Z" fill="#090053"/>
<path d="M72.1896 15.7009C72.3145 15.3509 72.1319 14.966 71.782 14.8412C71.432 14.7164 71.0471 14.8989 70.9222 15.2489C70.7974 15.5989 70.9799 15.9838 71.3299 16.1086C71.6799 16.2334 72.0648 16.0509 72.1896 15.7009Z" fill="white"/>
<path d="M71.2521 16.3191C71.0849 16.2598 70.9392 16.1522 70.8331 16.01C70.7271 15.8678 70.6656 15.6974 70.6564 15.5203C70.6472 15.3432 70.6906 15.1673 70.7813 15.0149C70.872 14.8624 71.0058 14.7403 71.1659 14.6639C71.3259 14.5874 71.505 14.5602 71.6806 14.5855C71.8561 14.6108 72.0202 14.6876 72.1521 14.8061C72.2841 14.9246 72.3779 15.0796 72.4219 15.2514C72.4658 15.4232 72.4578 15.6042 72.3989 15.7715C72.3194 15.9962 72.1539 16.1801 71.9389 16.2828C71.7238 16.3855 71.4768 16.3985 71.2521 16.3191ZM71.7042 15.051C71.6206 15.0212 71.5299 15.0168 71.4438 15.0385C71.3576 15.0602 71.2799 15.1069 71.2203 15.1728C71.1607 15.2387 71.122 15.3208 71.1091 15.4087C71.0962 15.4966 71.1096 15.5863 71.1477 15.6665C71.1858 15.7468 71.2469 15.8139 71.3231 15.8595C71.3994 15.905 71.4875 15.9269 71.5762 15.9224C71.6649 15.9179 71.7503 15.8872 71.8215 15.8342C71.8928 15.7811 71.9467 15.7081 71.9765 15.6244C72.0164 15.5123 72.0101 15.3889 71.959 15.2814C71.908 15.1738 71.8163 15.091 71.7042 15.051Z" fill="#090053"/>
<path d="M61.4621 54.5988L54.8906 52.2518C54.5664 52.1356 54.3015 51.8956 54.154 51.5844C54.0065 51.2732 53.9883 50.9163 54.1036 50.5917L67.403 13.304C67.5192 12.9799 67.7592 12.715 68.0704 12.5674C68.3816 12.4199 68.7386 12.4018 69.0631 12.517L75.6346 14.864C75.9588 14.9802 76.2236 15.2202 76.3712 15.5314C76.5187 15.8426 76.5368 16.1995 76.4216 16.5241L63.1222 53.8118C63.006 54.1359 62.766 54.4008 62.4548 54.5484C62.1436 54.6959 61.7866 54.714 61.4621 54.5988ZM68.9121 12.9434C68.6996 12.8679 68.4659 12.8797 68.2621 12.9764C68.0584 13.073 67.9013 13.2466 67.8255 13.4589L54.526 50.7466C54.4513 50.9589 54.4636 51.1922 54.5604 51.3954C54.6571 51.5986 54.8304 51.7552 55.0424 51.8309L61.6138 54.1779C61.8263 54.2534 62.0601 54.2416 62.2638 54.1449C62.4675 54.0482 62.6246 53.8747 62.7005 53.6623L75.9999 16.3746C76.0755 16.1622 76.0636 15.9284 75.9669 15.7247C75.8703 15.5209 75.6967 15.3639 75.4844 15.288L68.9121 12.9434Z" fill="#090053"/>
<path opacity="0.1" d="M67.382 26.7254C67.4137 26.1318 67.5263 25.5454 67.7169 24.9824C67.8604 24.5207 68.0883 24.0897 68.3889 23.7111C68.6968 23.3251 69.1241 23.0521 69.6038 22.9351L69.6351 23.0814C69.1881 23.1916 68.7903 23.4469 68.5039 23.8073C68.2151 24.1719 67.9963 24.5867 67.8585 25.0309C67.6724 25.581 67.5624 26.154 67.5315 26.734L67.382 26.7254Z" fill="black"/>
<path opacity="0.1" d="M62.6445 28.3615C62.5398 28.3242 62.4383 28.2786 62.3409 28.2253L62.4129 28.0939C63.4096 28.6415 64.7864 28.2574 65.3599 27.2772C65.5265 26.9924 65.6446 26.6443 65.7315 26.1819C65.8778 25.3996 65.866 24.7002 65.6955 24.0994C65.4921 23.3836 65.0493 22.7945 64.4806 22.4831L64.5525 22.3517C65.1565 22.6818 65.6259 23.3038 65.8394 24.0587C66.0163 24.6846 66.0295 25.4051 65.8786 26.2093C65.7886 26.6896 65.665 27.0534 65.4874 27.3538C64.9327 28.2997 63.6693 28.7229 62.6445 28.3615Z" fill="black"/>
<path opacity="0.1" d="M62.9209 26.6589L62.9349 26.5103C63.5389 26.569 64.1515 26.0988 64.3001 25.4628C64.4362 24.8776 64.1898 24.1931 63.686 23.7581L63.7838 23.6447C64.3314 24.114 64.595 24.8596 64.4464 25.4972C64.2813 26.2028 63.5976 26.7246 62.9209 26.6589Z" fill="black"/>
<path opacity="0.1" d="M57.2431 44.3777C57.1362 44.3398 57.0351 44.2871 56.9427 44.2213L57.0295 44.0992C57.3127 44.3019 57.6749 44.3543 58.0747 44.2518C58.947 44.028 59.8787 43.1166 60.449 41.9299C60.7064 41.394 60.9255 40.7626 61.1391 39.9428C61.4974 38.5643 61.6609 37.3611 61.6249 36.3738C61.5826 35.2004 61.2486 34.3038 60.7088 33.9189L60.7956 33.7969C61.3737 34.2092 61.7297 35.1464 61.7743 36.3684C61.8103 37.3729 61.6452 38.5878 61.2838 39.9803C61.0679 40.8096 60.8457 41.4495 60.5844 41.9948C59.9953 43.2191 59.0268 44.1642 58.1123 44.3989C57.827 44.4794 57.5241 44.472 57.2431 44.3777Z" fill="black"/>
<path opacity="0.1" d="M57.9859 41.426L57.9742 41.2766C58.6164 41.225 59.434 40.2236 59.7586 39.0861C60.0606 38.0316 59.9644 36.9058 59.5192 36.2846L59.6405 36.197C60.1185 36.8636 60.221 38.0136 59.9026 39.1268C59.556 40.3378 58.6962 41.3674 57.9859 41.426Z" fill="black"/>
<path opacity="0.1" d="M68.2807 37.196C67.6768 36.8659 67.2074 36.2439 66.9938 35.489C66.817 34.8632 66.8037 34.1426 66.9547 33.3384C67.0447 32.8581 67.1683 32.4943 67.3459 32.1939C67.9584 31.1471 69.4292 30.7388 70.4939 31.3216L70.4219 31.453C69.426 30.9054 68.0484 31.2895 67.4749 32.2698C67.3083 32.5545 67.1902 32.9027 67.1033 33.365C66.957 34.1473 66.9688 34.8467 67.1393 35.4475C67.3427 36.1634 67.7855 36.7525 68.3543 37.0638L68.2807 37.196Z" fill="black"/>
<path opacity="0.1" d="M69.0501 35.8989C68.5025 35.4295 68.2388 34.684 68.3875 34.0464C68.5525 33.3423 69.2363 32.8181 69.913 32.8839L69.8989 33.0325C69.295 32.9738 68.6824 33.444 68.5338 34.08C68.3976 34.6652 68.6441 35.3497 69.1479 35.7847L69.0501 35.8989Z" fill="black"/>
<path opacity="0.1" d="M62.884 51.9475C62.0305 51.4781 61.3671 50.6011 61.0644 49.5341C60.814 48.6508 60.7953 47.6244 61.0096 46.483C61.1371 45.8016 61.3124 45.2868 61.5572 44.862C62.4225 43.3842 64.4987 42.8085 66.0016 43.6307L65.9296 43.7621C64.4956 42.9798 62.5124 43.5274 61.6863 44.9356C61.4469 45.3447 61.2772 45.8439 61.1528 46.508C60.9431 47.626 60.9603 48.6297 61.2044 49.4902C61.4962 50.519 62.133 51.3678 62.9513 51.813L62.884 51.9475Z" fill="black"/>
<path opacity="0.1" d="M63.9836 50.1028C63.2161 49.4401 62.8406 48.3918 63.0495 47.4937C63.2842 46.5017 64.241 45.7726 65.1899 45.861L65.1758 46.0097C64.2988 45.9244 63.4109 46.6058 63.1958 47.5274C62.9986 48.3723 63.3522 49.3611 64.0814 49.9885L63.9836 50.1028Z" fill="black"/>
<path d="M55.7425 51.1307L69.0604 13.7915L69.4834 13.9423L56.1654 51.2816L55.7425 51.1307Z" fill="#090053"/>
<path opacity="0.1" d="M63.0568 39.8677C62.8839 39.392 62.6656 38.8006 62.6836 38.2013C62.6953 37.7319 62.8401 37.2821 62.9879 36.8471C63.0662 36.6015 63.153 36.348 63.2109 36.0953C63.3622 35.3841 63.3213 34.6455 63.0924 33.9553C62.8635 33.2652 62.4547 32.6486 61.9083 32.1689L62.0053 32.0554C62.5722 32.5531 62.9961 33.1929 63.2336 33.9089C63.4711 34.6248 63.5135 35.3912 63.3564 36.129C63.2969 36.3887 63.2125 36.6461 63.1295 36.8948C62.9887 37.3196 62.844 37.7554 62.833 38.206C62.8189 38.7763 63.0286 39.3537 63.1968 39.8176L63.0568 39.8677Z" fill="black"/>
<path opacity="0.1" d="M68.6941 21.3893C68.5212 20.9136 68.3029 20.3222 68.3209 19.7229C68.3326 19.2535 68.4774 18.8037 68.6252 18.3687C68.7035 18.1231 68.7903 17.8696 68.8482 17.6169C68.9995 16.9057 68.9586 16.1671 68.7297 15.4769C68.5008 14.7868 68.092 14.1702 67.5456 13.6905L67.6426 13.577C68.2095 14.0747 68.6334 14.7145 68.8709 15.4305C69.1084 16.1464 69.1507 16.9128 68.9937 17.6506C68.9342 17.9103 68.8497 18.1677 68.7668 18.4165C68.626 18.8413 68.4813 19.277 68.4703 19.7276C68.4562 20.2979 68.6659 20.8753 68.8341 21.3392L68.6941 21.3893Z" fill="black"/>
<path opacity="0.1" d="M72.891 24.316C72.7181 23.8404 72.4998 23.2489 72.5178 22.6497C72.5295 22.1803 72.6743 21.7305 72.8221 21.2955C72.9004 21.0498 72.9872 20.7964 73.0451 20.5437C73.1964 19.8325 73.1555 19.0938 72.9266 18.4037C72.6977 17.7136 72.2889 17.0969 71.7425 16.6172L71.8395 16.5038C72.4064 17.0015 72.8303 17.6413 73.0678 18.3572C73.3053 19.0732 73.3476 19.8395 73.1906 20.5773C73.1311 20.8371 73.0467 21.0944 72.9637 21.3432C72.8229 21.768 72.6782 22.2038 72.6672 22.6544C72.6531 23.2247 72.8628 23.802 73.031 24.266L72.891 24.316Z" fill="black"/>
<path opacity="0.1" d="M57.2787 52.855L57.1527 52.7768C57.4367 52.3301 57.4062 51.7598 57.3765 51.2121C57.3687 51.069 57.3608 50.9258 57.3585 50.785C57.3606 50.3034 57.3954 49.8224 57.4625 49.3455C57.5729 48.4286 57.6777 47.5618 57.3428 46.7545C57.1011 46.1716 56.6388 45.6897 56.2273 45.2845L56.3321 45.1781C56.7553 45.5935 57.2286 46.0887 57.4813 46.6974C57.8318 47.5415 57.716 48.4678 57.612 49.3635C57.5444 49.8331 57.5085 50.3067 57.5048 50.7811C57.5048 50.9195 57.515 51.0604 57.522 51.202C57.5564 51.7754 57.5885 52.3676 57.2787 52.855Z" fill="black"/>
</svg>
