<svg width="40" height="40" viewBox="0 0 40 40" fill="none" xmlns="http://www.w3.org/2000/svg">
<path d="M35 20V27.5H5V7.5H13.75V5H5C4.33696 5 3.70107 5.26339 3.23223 5.73223C2.76339 6.20107 2.5 6.83696 2.5 7.5V27.5C2.5 28.163 2.76339 28.7989 3.23223 29.2678C3.70107 29.7366 4.33696 30 5 30H15V35H10V37.5H30V35H25V30H35C35.663 30 36.2989 29.7366 36.7678 29.2678C37.2366 28.7989 37.5 28.163 37.5 27.5V20H35ZM22.5 35H17.5V30H22.5V35Z" fill="#312783"/>
<path d="M22.5 22.5H22.4875C22.2182 22.4972 21.9569 22.4075 21.7427 22.2442C21.5285 22.0809 21.3728 21.8527 21.2987 21.5938L19.0575 13.75H13.75V11.25H20C20.2717 11.2499 20.536 11.3382 20.753 11.5018C20.97 11.6653 21.1278 11.895 21.2025 12.1563L22.545 16.8563L26.3062 4.63127C26.3874 4.37758 26.5464 4.1559 26.7607 3.99771C26.975 3.83952 27.2337 3.75285 27.5 3.75002C27.7634 3.74606 28.021 3.82709 28.2347 3.98111C28.4484 4.13512 28.6067 4.35391 28.6862 4.60502L30.9 11.25H37.5V13.75H30C29.7375 13.7501 29.4817 13.6675 29.2688 13.5141C29.0559 13.3606 28.8967 13.144 28.8138 12.895L27.5475 9.09502L23.695 21.6175C23.6164 21.8731 23.4579 22.0967 23.2428 22.2555C23.0277 22.4144 22.7674 22.5001 22.5 22.5Z" fill="#312783"/>
</svg>
