<svg width="67" height="62" viewBox="0 0 67 62" fill="none" xmlns="http://www.w3.org/2000/svg">
<path d="M2.33187 36.2562L26.0102 59.9345C26.4789 60.4024 27.1142 60.6653 27.7766 60.6653C28.439 60.6653 29.0743 60.4024 29.543 59.9345L30.0738 59.4037L42.5652 46.9124L49.8739 39.6036L53.0039 36.4736C54.3979 35.0828 55.9581 33.7975 57.0676 32.151C58.3464 30.2774 58.3464 28.3943 58.5159 26.2298L58.9059 21.3445L59.7756 10.4741L60.0281 7.30252C60.2871 4.10215 57.8413 1.67229 54.6217 1.96004L37.2546 3.50427C35.4578 3.66413 33.6067 3.60978 31.861 4.14371C29.8404 4.74478 28.7118 6.18031 27.2763 7.61585L20.4822 14.3971L5.51626 29.3631L2.77308 32.1062L2.24555 32.637C1.77756 33.1057 1.51472 33.741 1.51472 34.4034C1.51472 35.0658 1.77756 35.7011 2.24555 36.1698L2.33187 36.2562Z" fill="#3AC27E"/>
<path d="M55.6569 12.2549V12.5202C55.601 13.7222 55.1517 14.8725 54.3781 15.7942C53.8935 16.3856 53.2836 16.8622 52.5925 17.1894C51.9014 17.5166 51.1463 17.6863 50.3816 17.6863C49.617 17.6863 48.8618 17.5166 48.1707 17.1894C47.4796 16.8622 46.8698 16.3856 46.3851 15.7942C45.6116 14.8725 45.1622 13.7222 45.1063 12.5202C45.1063 12.4339 45.1063 12.3444 45.1063 12.2549C45.1063 12.1654 45.1063 12.0343 45.1063 11.9352C45.1538 10.5703 45.7294 9.27732 46.7118 8.32864C47.6941 7.37996 49.0064 6.84973 50.372 6.84973C51.7376 6.84973 53.0499 7.37996 54.0323 8.32864C55.0146 9.27732 55.5902 10.5703 55.6378 11.9352C55.6506 12.0375 55.6569 12.144 55.6569 12.2549Z" fill="#006633"/>
<path d="M50.382 18.0706C49.5406 18.061 48.7094 17.8855 47.936 17.554C47.1626 17.2226 46.4622 16.7418 45.875 16.1391C45.2878 15.5365 44.8253 14.8238 44.5141 14.0421C44.2028 13.2604 44.0489 12.4249 44.0611 11.5836C44.0342 10.7366 44.1777 9.89282 44.4833 9.10241C44.7888 8.312 45.2501 7.59105 45.8397 6.9824C46.4293 6.37374 47.1352 5.88978 47.9155 5.55928C48.6958 5.22878 49.5345 5.05847 50.382 5.05847C51.2294 5.05847 52.0681 5.22878 52.8484 5.55928C53.6287 5.88978 54.3346 6.37374 54.9242 6.9824C55.5138 7.59105 55.9751 8.312 56.2806 9.10241C56.5862 9.89282 56.7297 10.7366 56.7028 11.5836C56.715 12.4249 56.5611 13.2604 56.2498 14.0421C55.9386 14.8238 55.4761 15.5365 54.8889 16.1391C54.3017 16.7418 53.6013 17.2226 52.8279 17.554C52.0545 17.8855 51.2233 18.061 50.382 18.0706ZM50.382 7.20023C49.2405 7.22292 48.1546 7.69689 47.3619 8.51841C46.5691 9.33993 46.1341 10.4421 46.1521 11.5836C46.1299 12.1529 46.223 12.7208 46.4256 13.2533C46.6282 13.7858 46.9362 14.2719 47.3311 14.6825C47.7261 15.0932 48.1999 15.4198 48.7241 15.643C49.2483 15.8661 49.8122 15.9811 50.382 15.9811C50.9517 15.9811 51.5156 15.8661 52.0398 15.643C52.564 15.4198 53.0378 15.0932 53.4328 14.6825C53.8277 14.2719 54.1358 13.7858 54.3383 13.2533C54.5409 12.7208 54.634 12.1529 54.6118 11.5836C54.6298 10.4421 54.1948 9.33993 53.4021 8.51841C52.6093 7.69689 51.5234 7.22292 50.382 7.20023Z" fill="#312783"/>
<path opacity="0.5" d="M32.7074 3.44031L35.62 4.71278L4.03188 36.2561L1.93773 34.162L32.7074 3.44031Z" fill="#006633"/>
<path d="M34.6295 10.2503C34.4914 10.2486 34.3549 10.2195 34.2282 10.1646C34.1014 10.1097 33.9868 10.0302 33.891 9.9306L33.0597 9.09933C32.8638 8.90303 32.754 8.63696 32.7543 8.35965C32.7546 8.08234 32.865 7.81651 33.0613 7.62063C33.2576 7.42476 33.5237 7.31489 33.801 7.31519C34.0783 7.31549 34.3441 7.42593 34.54 7.62223L35.3713 8.4535C35.5172 8.59971 35.6165 8.78586 35.6568 8.98848C35.697 9.19109 35.6763 9.40108 35.5973 9.59194C35.5183 9.7828 35.3845 9.94598 35.2128 10.0609C35.0412 10.1758 34.8393 10.2372 34.6327 10.2375L34.6295 10.2503Z" fill="#312783"/>
<path d="M49.4675 25.0884C49.3294 25.0868 49.1929 25.0576 49.0661 25.0027C48.9393 24.9479 48.8247 24.8683 48.729 24.7687L47.0185 23.0582C46.9144 22.9629 46.8306 22.8475 46.7723 22.7189C46.714 22.5903 46.6824 22.4513 46.6793 22.3102C46.6762 22.169 46.7017 22.0287 46.7543 21.8977C46.8068 21.7667 46.8854 21.6477 46.9852 21.5479C47.085 21.4481 47.2041 21.3695 47.3351 21.3169C47.4661 21.2643 47.6064 21.2388 47.7475 21.2419C47.8886 21.245 48.0277 21.2767 48.1562 21.335C48.2848 21.3933 48.4002 21.477 48.4956 21.5811L50.2061 23.2916C50.352 23.4378 50.4513 23.624 50.4915 23.8266C50.5318 24.0292 50.5111 24.2392 50.4321 24.4301C50.353 24.6209 50.2193 24.7841 50.0476 24.899C49.8759 25.0139 49.6741 25.0754 49.4675 25.0757V25.0884ZM44.5215 20.1424C44.3833 20.1407 44.2469 20.1116 44.1201 20.0567C43.9933 20.0018 43.8787 19.9223 43.7829 19.8227L42.0724 18.1122C41.8906 17.9136 41.7924 17.6524 41.7983 17.3832C41.8042 17.1139 41.9138 16.8573 42.1042 16.6669C42.2947 16.4765 42.5513 16.3669 42.8205 16.361C43.0898 16.355 43.3509 16.4532 43.5495 16.6351L45.26 18.3456C45.4059 18.4918 45.5053 18.678 45.5455 18.8806C45.5857 19.0832 45.565 19.2932 45.486 19.484C45.407 19.6749 45.2732 19.8381 45.1016 19.953C44.9299 20.0679 44.728 20.1293 44.5215 20.1296V20.1424ZM39.5754 15.1964C39.4373 15.1947 39.3009 15.1656 39.1741 15.1107C39.0473 15.0558 38.9327 14.9762 38.8369 14.8767L37.1264 13.1822C37.0223 13.0868 36.9386 12.9714 36.8803 12.8428C36.822 12.7143 36.7903 12.5752 36.7872 12.4341C36.7841 12.293 36.8096 12.1526 36.8622 12.0216C36.9148 11.8906 36.9933 11.7716 37.0932 11.6718C37.193 11.572 37.312 11.4934 37.443 11.4408C37.574 11.3883 37.7143 11.3627 37.8554 11.3659C37.9966 11.369 38.1356 11.4006 38.2642 11.4589C38.3927 11.5172 38.5082 11.6009 38.6035 11.7051L40.314 13.4155C40.4599 13.5618 40.5593 13.7479 40.5995 13.9505C40.6397 14.1531 40.619 14.3631 40.54 14.554C40.461 14.7448 40.3272 14.908 40.1555 15.0229C39.9839 15.1378 39.782 15.1993 39.5754 15.1996V15.1964Z" fill="#312783"/>
<path d="M53.5341 29.168C53.396 29.1663 53.2596 29.1372 53.1328 29.0823C53.006 29.0274 52.8914 28.9478 52.7956 28.8483L51.9643 28.017C51.8602 27.9217 51.7765 27.8062 51.7182 27.6777C51.6599 27.5491 51.6282 27.4101 51.6251 27.2689C51.622 27.1278 51.6475 26.9875 51.7001 26.8565C51.7527 26.7255 51.8313 26.6065 51.9311 26.5067C52.0309 26.4068 52.1499 26.3283 52.2809 26.2757C52.4119 26.2231 52.5522 26.1976 52.6933 26.2007C52.8345 26.2038 52.9735 26.2355 53.1021 26.2938C53.2307 26.352 53.3461 26.4358 53.4414 26.5399L54.2727 27.3712C54.4231 27.5166 54.5263 27.7039 54.5691 27.9087C54.6119 28.1135 54.5923 28.3265 54.5127 28.52C54.4332 28.7136 54.2974 28.8788 54.1229 28.9943C53.9485 29.1098 53.7434 29.1703 53.5341 29.168Z" fill="#312783"/>
<path d="M56.1113 15.2987C53.0868 15.2987 50.1326 13.9655 47.4374 12.741C46.9546 12.5236 46.4782 12.3094 46.0178 12.1015C45.768 11.9884 45.5726 11.7815 45.4739 11.5256C45.3751 11.2697 45.3809 10.9852 45.49 10.7335C45.599 10.4819 45.8026 10.2831 46.0569 10.1802C46.3111 10.0772 46.5957 10.0783 46.8491 10.1832C47.3223 10.3879 47.8082 10.6053 48.2974 10.8227C51.7696 12.3893 55.3568 14.0199 58.7042 12.7154L64.6638 10.3943C64.7928 10.3381 64.9319 10.3085 65.0727 10.3074C65.2134 10.3063 65.353 10.3336 65.4829 10.3877C65.6129 10.4418 65.7306 10.5216 65.8289 10.6223C65.9273 10.723 66.0043 10.8425 66.0554 10.9737C66.1064 11.1049 66.1305 11.245 66.126 11.3857C66.1216 11.5264 66.0888 11.6647 66.0296 11.7925C65.9704 11.9202 65.8861 12.0346 65.7816 12.1289C65.6771 12.2233 65.5546 12.2955 65.4215 12.3413L59.462 14.6849C58.393 15.0963 57.2567 15.3045 56.1113 15.2987Z" fill="#312783"/>
<path d="M19.9283 28.3369C26.511 28.3369 31.8474 22.9919 31.8474 16.3986C31.8474 9.80527 26.511 4.46033 19.9283 4.46033C13.3456 4.46033 8.00924 9.80527 8.00924 16.3986C8.00924 22.9919 13.3456 28.3369 19.9283 28.3369Z" fill="#6D5CF1"/>
<path d="M20.616 39.5779C20.4108 39.5764 20.2105 39.5145 20.0402 39.3999C19.8699 39.2853 19.737 39.1231 19.6583 38.9336C19.5795 38.744 19.5583 38.5354 19.5973 38.3339C19.6363 38.1324 19.7337 37.9468 19.8775 37.8003L28.1646 29.4876C28.3604 29.2913 28.6263 29.1808 28.9036 29.1805C29.1809 29.1802 29.447 29.2901 29.6433 29.486C29.8396 29.6819 29.95 29.9477 29.9503 30.225C29.9506 30.5023 29.8407 30.7684 29.6449 30.9647L21.3546 39.271C21.2577 39.3682 21.1427 39.4454 21.0159 39.4981C20.8892 39.5507 20.7533 39.5779 20.616 39.5779Z" fill="#312783"/>
<path d="M24.1075 43.063C23.9009 43.0627 23.6991 43.0012 23.5274 42.8863C23.3557 42.7714 23.2219 42.6082 23.1429 42.4174C23.0639 42.2265 23.0432 42.0165 23.0834 41.8139C23.1237 41.6113 23.223 41.4251 23.3689 41.2789L37.1616 27.4767C37.2585 27.3795 37.3737 27.3024 37.5005 27.2497C37.6273 27.197 37.7633 27.1698 37.9006 27.1697C38.0379 27.1695 38.1739 27.1964 38.3008 27.2488C38.4277 27.3012 38.5431 27.3781 38.6403 27.4751C38.7375 27.5721 38.8146 27.6873 38.8673 27.8141C38.92 27.9409 38.9472 28.0768 38.9473 28.2141C38.9475 28.3515 38.9206 28.4874 38.8681 28.6144C38.8157 28.7413 38.7388 28.8566 38.6419 28.9538L24.846 42.756C24.7492 42.8533 24.6341 42.9305 24.5074 42.9832C24.3806 43.0358 24.2447 43.063 24.1075 43.063Z" fill="#312783"/>
<path d="M27.5956 46.551C27.389 46.5507 27.1871 46.4893 27.0155 46.3744C26.8438 46.2595 26.71 46.0963 26.631 45.9054C26.552 45.7146 26.5313 45.5046 26.5715 45.302C26.6118 45.0993 26.7111 44.9132 26.857 44.767L40.6496 30.9648C40.7466 30.8676 40.8618 30.7904 40.9886 30.7377C41.1154 30.6851 41.2514 30.6579 41.3887 30.6577C41.526 30.6576 41.662 30.6845 41.7889 30.7369C41.9158 30.7893 42.0311 30.8662 42.1283 30.9632C42.2255 31.0602 42.3027 31.1753 42.3554 31.3021C42.408 31.4289 42.4352 31.5649 42.4354 31.7022C42.4355 31.8395 42.4086 31.9755 42.3562 32.1024C42.3038 32.2293 42.2269 32.3447 42.1299 32.4419L28.3373 46.2441C28.2401 46.3417 28.1245 46.4191 27.9972 46.4718C27.8699 46.5245 27.7334 46.5514 27.5956 46.551Z" fill="#312783"/>
<path d="M57.662 28.9954C58.0413 29.3749 58.2544 29.8895 58.2544 30.4261C58.2544 30.9627 58.0413 31.4773 57.662 31.8568L28.2959 61.1238L26.8668 59.6915L57.662 28.9954Z" fill="#006633"/>
<g opacity="0.7">
<path d="M18.2467 47.7948C18.0443 47.7953 17.8495 47.7174 17.7032 47.5774L15.4076 45.3681C15.3333 45.2967 15.2738 45.2114 15.2324 45.117C15.1911 45.0227 15.1687 44.9211 15.1667 44.818C15.1625 44.61 15.2411 44.4088 15.3852 44.2587C15.5294 44.1086 15.7273 44.0219 15.9353 44.0177C16.1434 44.0135 16.3446 44.0922 16.4947 44.2363L18.7902 46.4328C18.9033 46.541 18.9814 46.6807 19.0144 46.8337C19.0473 46.9868 19.0337 47.1462 18.9752 47.2914C18.9167 47.4366 18.816 47.5609 18.6862 47.6484C18.5563 47.7358 18.4033 47.7824 18.2467 47.782V47.7948Z" fill="white"/>
<path d="M21.4151 50.8448C21.2122 50.8448 21.0172 50.7657 20.8716 50.6242L19.6311 49.4285C19.4815 49.2843 19.3952 49.0866 19.3913 48.8789C19.3874 48.6711 19.4662 48.4703 19.6103 48.3207C19.7545 48.171 19.9522 48.0847 20.1599 48.0808C20.3677 48.0769 20.5685 48.1557 20.7182 48.2999L21.9587 49.4956C22.0718 49.6039 22.1498 49.7435 22.1828 49.8966C22.2158 50.0496 22.2021 50.209 22.1436 50.3542C22.0851 50.4994 21.9845 50.6238 21.8546 50.7112C21.7248 50.7987 21.5717 50.8452 21.4151 50.8448Z" fill="white"/>
</g>
<path opacity="0.7" d="M14.1096 43.0182C14.4953 42.6174 14.483 41.9798 14.0823 41.5942C13.6815 41.2085 13.0439 41.2207 12.6583 41.6215C12.2726 42.0223 12.2848 42.6598 12.6856 43.0455C13.0864 43.4312 13.7239 43.4189 14.1096 43.0182Z" fill="white"/>
<path d="M27.6019 61.5363C27.1364 61.5381 26.6751 61.4475 26.2448 61.2697C25.8145 61.0919 25.4238 60.8304 25.0954 60.5004L1.32753 36.7326C0.665677 36.0675 0.294117 35.1674 0.294117 34.2292C0.294117 33.2909 0.665677 32.3908 1.32753 31.7258L26.3614 6.69187C26.5788 6.47766 26.7867 6.26025 27.0009 6.05244C28.1838 4.80874 29.4147 3.53626 31.3874 2.95118C32.7458 2.5997 34.1409 2.40975 35.5437 2.38528C36.0425 2.3565 36.5029 2.33092 36.9889 2.28936L54.3527 0.741926C55.2315 0.645086 56.1209 0.744246 56.9567 1.03227C57.7926 1.3203 58.5543 1.79002 59.1869 2.40766C59.8072 3.03187 60.2819 3.78546 60.5771 4.61453C60.8722 5.44359 60.9805 6.32763 60.8942 7.20342L59.3787 26.1307C59.3595 26.3481 59.3467 26.5655 59.3307 26.7702C59.1837 28.7556 59.0462 30.6291 57.7577 32.5443C56.8417 33.8074 55.7899 34.9664 54.6213 36.0004C54.2696 36.3201 53.9051 36.6814 53.5662 37.0203L45.9473 44.6392C45.852 44.7433 45.7366 44.827 45.608 44.8853C45.4795 44.9436 45.3404 44.9753 45.1993 44.9784C45.0581 44.9815 44.9179 44.956 44.7868 44.9034C44.6558 44.8508 44.5368 44.7722 44.437 44.6724C44.3372 44.5726 44.2586 44.4536 44.206 44.3226C44.1535 44.1916 44.1279 44.0513 44.1311 43.9102C44.1342 43.769 44.1658 43.63 44.2241 43.5014C44.2824 43.3728 44.3661 43.2574 44.4702 43.1621L52.0859 35.5624C52.4472 35.2043 52.8181 34.8494 53.1794 34.5041C54.2472 33.4906 55.2543 32.5315 56.0217 31.3933C57 29.9418 57.1087 28.4838 57.243 26.6359C57.259 26.4185 57.2749 26.1979 57.2941 25.9741L58.8 7.04996C58.8623 6.47536 58.7966 5.8941 58.6075 5.34793C58.4185 4.80176 58.1108 4.30425 57.7066 3.89115C57.2885 3.48959 56.7868 3.18558 56.2373 3.00095C55.6878 2.81631 55.1043 2.75564 54.5286 2.82329L37.1615 4.37072C36.6532 4.41548 36.1416 4.44426 35.646 4.47303C34.407 4.49143 33.1742 4.65344 31.9725 4.95581C30.5274 5.38743 29.581 6.36256 28.4844 7.49437C28.2702 7.71497 28.0527 7.93877 27.8449 8.16258L2.81102 33.1965C2.53867 33.4692 2.38569 33.8389 2.38569 34.2244C2.38569 34.6098 2.53867 34.9795 2.81102 35.2523L26.5724 59.0201C26.8452 59.2924 27.2149 59.4454 27.6003 59.4454C27.9858 59.4454 28.3555 59.2924 28.6282 59.0201L29.159 58.4894C30.5465 57.1018 31.6176 56.0979 32.6567 55.1259C33.6958 54.154 34.7412 53.1724 36.1032 51.8072C36.3019 51.6254 36.563 51.5272 36.8323 51.5331C37.1015 51.539 37.3581 51.6486 37.5485 51.8391C37.739 52.0295 37.8486 52.2861 37.8545 52.5553C37.8604 52.8246 37.7622 53.0857 37.5803 53.2843C36.1928 54.6719 35.1217 55.6758 34.0858 56.6478C33.0499 57.6197 32.0013 58.6013 30.6393 59.9664L30.1085 60.5004C29.7795 60.8295 29.3886 61.0904 28.9585 61.2682C28.5284 61.446 28.0674 61.5371 27.6019 61.5363Z" fill="#312783"/>
<path d="M18.0099 26.3577C24.6033 26.3577 29.9482 21.0128 29.9482 14.4195C29.9482 7.82614 24.6033 2.4812 18.0099 2.4812C11.4166 2.4812 6.07167 7.82614 6.07167 14.4195C6.07167 21.0128 11.4166 26.3577 18.0099 26.3577Z" fill="#51C78C"/>
<path opacity="0.5" d="M29.891 14.0741C29.8905 15.804 29.514 17.5132 28.7877 19.0833C28.0613 20.6534 27.0024 22.0469 25.6842 23.1672C24.366 24.2876 22.8201 25.1081 21.1535 25.5719C19.4868 26.0357 17.7393 26.1317 16.0319 25.8534C14.3245 25.575 12.6979 24.9289 11.2649 23.9598C9.83187 22.9907 8.62659 21.7217 7.7325 20.2407C6.83841 18.7597 6.27688 17.102 6.08678 15.3825C5.89668 13.663 6.08255 11.9228 6.63154 10.2822C7.61307 15.7974 12.687 20.7626 17.9527 20.7626C23.2185 20.7626 28.0271 16.7725 29.274 10.2822C29.6841 11.5043 29.8925 12.785 29.891 14.0741Z" fill="#006633"/>
<path d="M29.7891 13.892C29.7891 15.4597 29.4803 17.0121 28.8804 18.4606C28.2804 19.909 27.401 21.225 26.2925 22.3336C25.1839 23.4422 23.8678 24.3215 22.4194 24.9215C20.971 25.5215 19.4186 25.8302 17.8508 25.8302C16.2831 25.8302 14.7307 25.5215 13.2823 24.9215C11.8339 24.3215 10.5178 23.4422 9.40922 22.3336C8.30065 21.225 7.42129 19.909 6.82133 18.4606C6.22138 17.0121 5.91259 15.4597 5.91259 13.892C5.9131 13.3713 5.94727 12.8512 6.0149 12.335C6.40371 15.1965 7.81656 17.82 9.99166 19.7196C12.1668 21.6191 14.9567 22.6658 17.8445 22.6658C20.7322 22.6658 23.5221 21.6191 25.6973 19.7196C27.8724 17.82 29.2852 15.1965 29.674 12.335C29.7459 12.8509 29.7843 13.371 29.7891 13.892Z" fill="#006633"/>
<path d="M12.8949 13.0318V11.1135C12.8723 10.8579 12.908 10.6004 12.9994 10.3606C13.0908 10.1208 13.2354 9.90487 13.4225 9.72913C13.8328 9.41744 14.3402 9.26113 14.8548 9.28792C15.3654 9.2652 15.8681 9.41997 16.2775 9.72593C16.4684 9.89941 16.6167 10.1145 16.711 10.3546C16.8053 10.5947 16.8429 10.8533 16.8211 11.1103V13.0286C16.8433 13.2854 16.8062 13.5438 16.7125 13.7839C16.6188 14.0239 16.471 14.2392 16.2807 14.413C15.8684 14.7232 15.3606 14.8793 14.8452 14.8542C14.3299 14.8827 13.8213 14.7275 13.4097 14.4162C13.2249 14.2393 13.0827 14.0228 12.9935 13.783C12.9044 13.5433 12.8707 13.2865 12.8949 13.0318ZM14.1898 13.0318C14.1799 13.1207 14.1906 13.2107 14.2211 13.2949C14.2516 13.379 14.3011 13.4549 14.3658 13.5168C14.4304 13.5786 14.5085 13.6247 14.5938 13.6515C14.6792 13.6783 14.7696 13.6851 14.858 13.6712C15.312 13.6712 15.539 13.4581 15.539 13.0318V11.1135C15.539 10.6872 15.312 10.4741 14.858 10.4741C14.7696 10.4602 14.6792 10.467 14.5938 10.4938C14.5085 10.5206 14.4304 10.5667 14.3658 10.6286C14.3011 10.6904 14.2516 10.7664 14.2211 10.8505C14.1906 10.9346 14.1799 11.0246 14.1898 11.1135V13.0318ZM14.906 19.0649C14.9084 18.9756 14.9314 18.8881 14.9731 18.8091L19.6154 9.06731C19.6619 8.96039 19.7403 8.87045 19.8399 8.80979C19.9395 8.74913 20.0554 8.72071 20.1717 8.72841C20.372 8.72908 20.5656 8.80041 20.7184 8.92983C20.7967 8.99006 20.8599 9.06758 20.9032 9.15633C20.9464 9.24508 20.9685 9.34265 20.9678 9.44138C20.9704 9.52942 20.9529 9.6169 20.9166 9.69716L16.2616 19.439C16.209 19.5495 16.1239 19.6413 16.0175 19.7019C15.9112 19.7625 15.7888 19.789 15.6669 19.7779C15.5664 19.7807 15.4665 19.7625 15.3735 19.7245C15.2804 19.6865 15.1963 19.6296 15.1266 19.5573C15.0584 19.4937 15.0037 19.4171 14.9658 19.3319C14.9279 19.2468 14.9076 19.1549 14.906 19.0617V19.0649ZM19.0015 17.3704V15.4521C18.9789 15.1964 19.0146 14.939 19.106 14.6992C19.1974 14.4594 19.342 14.2434 19.5291 14.0677C19.9394 13.756 20.4468 13.5997 20.9614 13.6265C21.4774 13.6 21.9864 13.755 22.4001 14.0645C22.591 14.238 22.7393 14.4531 22.8336 14.6932C22.9279 14.9333 22.9655 15.1919 22.9437 15.4489V17.3672C22.9659 17.6239 22.9288 17.8824 22.835 18.1224C22.7413 18.3625 22.5936 18.5778 22.4033 18.7516C21.9909 19.0615 21.4831 19.2176 20.9678 19.1928C20.4525 19.2212 19.9439 19.066 19.5323 18.7548C19.3447 18.5793 19.1994 18.3635 19.1075 18.1237C19.0155 17.8839 18.9793 17.6263 19.0015 17.3704ZM20.2964 17.3704C20.2865 17.4593 20.2972 17.5493 20.3277 17.6334C20.3582 17.7175 20.4077 17.7935 20.4724 17.8553C20.537 17.9172 20.6151 17.9633 20.7004 17.9901C20.7858 18.0169 20.8762 18.0236 20.9646 18.0098C21.4186 18.0098 21.6456 17.7967 21.6456 17.3704V15.4521C21.6456 15.0258 21.4186 14.8126 20.9646 14.8126C20.8762 14.7988 20.7858 14.8056 20.7004 14.8324C20.6151 14.8591 20.537 14.9053 20.4724 14.9671C20.4077 15.029 20.3582 15.1049 20.3277 15.189C20.2972 15.2731 20.2865 15.3632 20.2964 15.4521V17.3704Z" fill="#312783"/>
<path d="M17.876 26.9299C15.3086 26.9267 12.7998 26.1625 10.6666 24.7337C8.53352 23.305 6.87185 21.2759 5.89168 18.903C4.91152 16.5301 4.65687 13.9198 5.15991 11.4022C5.66295 8.88454 6.90111 6.57256 8.71787 4.75848C10.5346 2.9444 12.8484 1.70966 15.3668 1.21033C17.8852 0.711006 20.4951 0.969516 22.8665 1.95318C25.238 2.93685 27.2646 4.60151 28.6902 6.73675C30.1158 8.87199 30.8764 11.3819 30.8757 13.9493C30.8706 17.3938 29.4988 20.6954 27.0614 23.1291C24.624 25.5629 21.3204 26.9299 17.876 26.9299ZM17.876 3.05655C15.7223 3.05971 13.6179 3.70125 11.8287 4.90008C10.0394 6.09892 8.64578 7.80124 7.82378 9.79191C7.00178 11.7826 6.78835 13.9723 7.21045 16.0842C7.63256 18.1961 8.67125 20.1355 10.1953 21.6573C11.7193 23.1791 13.6602 24.215 15.7728 24.634C17.8853 25.053 20.0747 24.8363 22.0642 24.0114C24.0536 23.1865 25.7539 21.7903 26.9501 19.9994C28.1463 18.2084 28.7848 16.103 28.7848 13.9493C28.7814 11.0587 27.6305 8.28758 25.5849 6.24507C23.5394 4.20255 20.7667 3.0557 17.876 3.05655Z" fill="#312783"/>
<path d="M39.4543 51.0272C39.2489 51.027 39.0481 50.9662 38.877 50.8525C38.7059 50.7388 38.5721 50.5772 38.4922 50.3879C38.4124 50.1986 38.3902 49.99 38.4282 49.7881C38.4663 49.5863 38.5629 49.4001 38.7062 49.2528L40.0394 47.8844C40.2355 47.6993 40.4956 47.5972 40.7653 47.5994C41.0349 47.6016 41.2933 47.7078 41.4865 47.896C41.6796 48.0842 41.7926 48.3398 41.8017 48.6093C41.8109 48.8788 41.7156 49.1414 41.5357 49.3423L40.2024 50.7107C40.1053 50.8109 39.989 50.8905 39.8605 50.9449C39.732 50.9992 39.5938 51.0272 39.4543 51.0272Z" fill="#312783"/>
<path d="M43.1017 47.2831C42.8956 47.2835 42.694 47.2229 42.5222 47.1091C42.3505 46.9952 42.2162 46.8331 42.1362 46.6432C42.0563 46.4532 42.0343 46.2439 42.0729 46.0415C42.1116 45.8391 42.2092 45.6526 42.3535 45.5055L42.4079 45.4479C42.5038 45.3497 42.6182 45.2713 42.7444 45.2172C42.8706 45.1632 43.0063 45.1345 43.1436 45.1329C43.2809 45.1313 43.4172 45.1567 43.5447 45.2077C43.6722 45.2588 43.7883 45.3344 43.8866 45.4303C43.9848 45.5263 44.0632 45.6406 44.1173 45.7669C44.1713 45.8931 44.2 46.0287 44.2016 46.166C44.2033 46.3034 44.1778 46.4396 44.1268 46.5671C44.0757 46.6946 44.0001 46.8108 43.9042 46.909L43.8498 46.9666C43.7526 47.0667 43.6364 47.1464 43.5078 47.2007C43.3793 47.2551 43.2412 47.2831 43.1017 47.2831Z" fill="#312783"/>
</svg>
