<svg width="73" height="48" viewBox="0 0 73 48" fill="none" xmlns="http://www.w3.org/2000/svg">
<path d="M63.7023 23.7787L63.7286 25.5325C63.7342 25.5769 63.7559 25.6178 63.7895 25.6475C63.8231 25.6771 63.8664 25.6934 63.9113 25.6934C63.9561 25.6934 63.9994 25.6771 64.033 25.6475C64.0666 25.6178 64.0883 25.5769 64.094 25.5325L64.0676 23.7787C64.062 23.7342 64.0403 23.6933 64.0067 23.6637C63.9731 23.634 63.9298 23.6177 63.885 23.6177C63.8401 23.6177 63.7968 23.634 63.7632 23.6637C63.7296 23.6933 63.7079 23.7342 63.7023 23.7787Z" fill="white"/>
<path d="M62.4718 20.6892H63.9099L63.7287 20.508V21.8175C63.7343 21.862 63.756 21.9029 63.7896 21.9325C63.8232 21.9621 63.8665 21.9785 63.9114 21.9785C63.9562 21.9785 63.9995 21.9621 64.0331 21.9325C64.0667 21.9029 64.0884 21.862 64.094 21.8175V20.508C64.0933 20.4602 64.074 20.4145 64.0401 20.3807C64.0063 20.3469 63.9606 20.3275 63.9128 20.3268H62.4747C62.4302 20.3324 62.3894 20.3541 62.3597 20.3877C62.3301 20.4213 62.3137 20.4646 62.3137 20.5095C62.3137 20.5543 62.3301 20.5976 62.3597 20.6312C62.3894 20.6649 62.4302 20.6865 62.4747 20.6922L62.4718 20.6892Z" fill="white"/>
<path opacity="0.12" d="M61.3084 6.68518H24.4205C18.3829 6.68518 13.4885 11.5796 13.4885 17.6171C13.4885 23.6546 18.3829 28.549 24.4205 28.549H61.3084C67.3459 28.549 72.2403 23.6546 72.2403 17.6171C72.2403 11.5796 67.3459 6.68518 61.3084 6.68518Z" fill="#AAAAAA"/>
<path opacity="0.5" d="M62.4336 4.38477H16.2185C14.651 4.38477 13.3802 5.65548 13.3802 7.22297V44.7364C13.3802 46.3039 14.651 47.5746 16.2185 47.5746H62.4336C64.0011 47.5746 65.2718 46.3039 65.2718 44.7364V7.22297C65.2718 5.65548 64.0011 4.38477 62.4336 4.38477Z" fill="#AAAAAA"/>
<path d="M5.6987 38.3643C6.3073 38.3643 6.80066 37.871 6.80066 37.2624C6.80066 36.6538 6.3073 36.1604 5.6987 36.1604C5.09011 36.1604 4.59674 36.6538 4.59674 37.2624C4.59674 37.871 5.09011 38.3643 5.6987 38.3643Z" fill="#9FE791"/>
<path opacity="0.12" d="M46.6935 18.1052H11.5594C5.52183 18.1052 0.627441 22.9996 0.627441 29.0371C0.627441 35.0747 5.52183 39.9691 11.5594 39.9691H46.6935C52.7311 39.9691 57.6254 35.0747 57.6254 29.0371C57.6254 22.9996 52.7311 18.1052 46.6935 18.1052Z" fill="#AAAAAA"/>
<path d="M6.16043 7.97419C6.76903 7.97419 7.26239 7.48082 7.26239 6.87223C7.26239 6.26363 6.76903 5.77026 6.16043 5.77026C5.55184 5.77026 5.05847 6.26363 5.05847 6.87223C5.05847 7.48082 5.55184 7.97419 6.16043 7.97419Z" fill="#2BC3F7"/>
<g opacity="0.15">
<path d="M68.3526 38.4722L66.2627 40.2055C66.0985 40.3699 66.0062 40.5928 66.0062 40.8252C66.0062 41.0576 66.0985 41.2804 66.2627 41.4449C66.4296 41.6042 66.6515 41.6932 66.8823 41.6932C67.1132 41.6932 67.3351 41.6042 67.502 41.4449L69.5919 39.7115C69.7562 39.5471 69.8484 39.3242 69.8484 39.0919C69.8484 38.8595 69.7562 38.6366 69.5919 38.4722C69.425 38.3128 69.2031 38.2239 68.9723 38.2239C68.7415 38.2239 68.5195 38.3128 68.3526 38.4722Z" fill="#32CAF8"/>
<path d="M69.4137 40.3841L67.6803 38.2942C67.5159 38.13 67.2931 38.0377 67.0607 38.0377C66.8283 38.0377 66.6054 38.13 66.441 38.2942C66.2816 38.4611 66.1927 38.683 66.1927 38.9138C66.1927 39.1446 66.2816 39.3666 66.441 39.5335L68.1743 41.6234C68.3387 41.7876 68.5616 41.8799 68.794 41.8799C69.0264 41.8799 69.2493 41.7876 69.4137 41.6234C69.5731 41.4565 69.662 41.2346 69.662 41.0038C69.662 40.773 69.5731 40.551 69.4137 40.3841Z" fill="#32CAF8"/>
</g>
<path d="M58.8531 9.36253L58.8794 11.1689C58.885 11.2134 58.9067 11.2543 58.9403 11.2839C58.974 11.3136 59.0173 11.3299 59.0621 11.3299C59.1069 11.3299 59.1502 11.3136 59.1838 11.2839C59.2175 11.2543 59.2391 11.2134 59.2448 11.1689L59.2185 9.36253C59.2128 9.31806 59.1912 9.27717 59.1575 9.24753C59.1239 9.21789 59.0806 9.20154 59.0358 9.20154C58.9909 9.20154 58.9477 9.21789 58.914 9.24753C58.8804 9.27717 58.8587 9.31806 58.8531 9.36253Z" fill="white"/>
<path d="M57.5818 6.17373H59.0637L58.8825 5.9925V7.34C58.8881 7.38447 58.9098 7.42536 58.9434 7.455C58.9771 7.48464 59.0204 7.50099 59.0652 7.50099C59.11 7.50099 59.1533 7.48464 59.1869 7.455C59.2206 7.42536 59.2422 7.38447 59.2479 7.34V5.9925C59.2471 5.94468 59.2278 5.89902 59.194 5.86519C59.1601 5.83137 59.1145 5.81203 59.0666 5.81128H57.5847C57.5402 5.81692 57.4993 5.83858 57.4697 5.87221C57.4401 5.90585 57.4237 5.94914 57.4237 5.99397C57.4237 6.03879 57.4401 6.08208 57.4697 6.11572C57.4993 6.14935 57.5402 6.17101 57.5847 6.17665L57.5818 6.17373Z" fill="white"/>
<path d="M8.97821 1.46179H61.621V44.6517H8.97821V1.46179Z" fill="#E6F4FF"/>
<path d="M8.84692 2.0465V2.49371C8.84692 2.58984 8.88511 2.68203 8.95308 2.75C9.02105 2.81798 9.11325 2.85616 9.20937 2.85616H61.2588C61.3064 2.85616 61.3535 2.84679 61.3975 2.82857C61.4415 2.81036 61.4814 2.78366 61.5151 2.75C61.5487 2.71635 61.5754 2.67639 61.5936 2.63242C61.6119 2.58844 61.6212 2.54131 61.6212 2.49371C61.6212 2.34928 61.5927 2.20626 61.5372 2.07289C61.4818 1.93952 61.4005 1.81843 61.2981 1.71657C61.1957 1.61471 61.0742 1.53409 60.9405 1.47935C60.8069 1.42461 60.6637 1.39683 60.5193 1.3976L9.20937 1.6899C9.11425 1.68988 9.02293 1.72727 8.95513 1.79398C8.88732 1.86069 8.84846 1.95139 8.84692 2.0465Z" fill="white"/>
<path d="M8.82935 37.0549H61.1944V44.6605H8.82935V37.0549Z" fill="#B3C9E8"/>
<path d="M11.1151 12.4494H24.6835L22.8859 9.75146H12.9156L11.1151 12.4494Z" fill="#006633"/>
<path opacity="0.15" d="M24.6806 12.4551H38.2491L36.4485 9.75427H26.4782L24.6806 12.4551Z" fill="#6262A0"/>
<path d="M45.6413 1H53.0452" stroke="#312783" stroke-miterlimit="10" stroke-linecap="round"/>
<path d="M55.3835 1H60.8407C61.0682 1.00376 61.2854 1.09582 61.4463 1.25672C61.6072 1.41762 61.6992 1.63476 61.703 1.86228V44.1022C61.6992 44.3297 61.6072 44.5468 61.4463 44.7077C61.2854 44.8686 61.0682 44.9607 60.8407 44.9645H9.48404C9.25653 44.9607 9.03938 44.8686 8.87848 44.7077C8.71758 44.5468 8.62553 44.3297 8.62177 44.1022V1.86228C8.62553 1.63476 8.71758 1.41762 8.87848 1.25672C9.03938 1.09582 9.25653 1.00376 9.48404 1H42.5137" stroke="#312783" stroke-miterlimit="10" stroke-linecap="round"/>
<path d="M20.6413 7.77546C21.3225 7.77546 21.8748 7.22321 21.8748 6.54197C21.8748 5.86073 21.3225 5.30847 20.6413 5.30847C19.96 5.30847 19.4078 5.86073 19.4078 6.54197C19.4078 7.22321 19.96 7.77546 20.6413 7.77546Z" fill="#25C83A"/>
<path d="M16.6364 7.77546C17.3177 7.77546 17.8699 7.22321 17.8699 6.54197C17.8699 5.86073 17.3177 5.30847 16.6364 5.30847C15.9552 5.30847 15.403 5.86073 15.403 6.54197C15.403 7.22321 15.9552 7.77546 16.6364 7.77546Z" fill="#FFB82A"/>
<path d="M12.6351 7.77546C13.3163 7.77546 13.8686 7.22321 13.8686 6.54197C13.8686 5.86073 13.3163 5.30847 12.6351 5.30847C11.9539 5.30847 11.4016 5.86073 11.4016 6.54197C11.4016 7.22321 11.9539 7.77546 12.6351 7.77546Z" fill="#FF5750"/>
<path opacity="0.15" d="M20.7959 6.39292C21.0023 6.39351 21.2053 6.44602 21.3861 6.54562C21.5669 6.64523 21.7198 6.78872 21.8306 6.9629C21.8641 6.85292 21.8818 6.73877 21.8832 6.62383C21.8845 6.43159 21.8407 6.24173 21.7556 6.06939C21.6704 5.89705 21.5461 5.747 21.3926 5.63122C21.2391 5.51545 21.0607 5.43714 20.8716 5.40257C20.6825 5.36799 20.4879 5.37809 20.3034 5.43206C20.1189 5.48603 19.9496 5.58239 19.8089 5.71343C19.6683 5.84448 19.5602 6.00659 19.4933 6.18682C19.4264 6.36705 19.4026 6.56043 19.4237 6.7515C19.4449 6.94258 19.5104 7.12608 19.615 7.28735C19.6876 7.03 19.8422 6.80339 20.0553 6.64195C20.2685 6.48051 20.5285 6.39307 20.7959 6.39292Z" fill="white"/>
<path opacity="0.15" d="M16.8208 6.39292C17.0273 6.39351 17.2303 6.44602 17.4111 6.54562C17.5919 6.64523 17.7448 6.78872 17.8556 6.9629C17.889 6.85292 17.9067 6.73877 17.9082 6.62383C17.9094 6.43159 17.8657 6.24173 17.7805 6.06939C17.6953 5.89705 17.571 5.747 17.4176 5.63122C17.2641 5.51545 17.0857 5.43714 16.8966 5.40257C16.7075 5.36799 16.5129 5.37809 16.3284 5.43206C16.1439 5.48603 15.9746 5.58239 15.8339 5.71343C15.6932 5.84448 15.5852 6.00659 15.5183 6.18682C15.4514 6.36705 15.4276 6.56043 15.4487 6.7515C15.4698 6.94258 15.5353 7.12608 15.64 7.28735C15.7125 7.03 15.8671 6.80339 16.0803 6.64195C16.2934 6.48051 16.5535 6.39307 16.8208 6.39292Z" fill="white"/>
<path opacity="0.15" d="M12.8047 6.39292C13.0111 6.39351 13.2141 6.44602 13.3949 6.54562C13.5757 6.64523 13.7286 6.78872 13.8394 6.9629C13.8728 6.85292 13.8906 6.73877 13.892 6.62383C13.8932 6.43159 13.8495 6.24173 13.7643 6.06939C13.6792 5.89705 13.5549 5.747 13.4014 5.63122C13.2479 5.51545 13.0695 5.43714 12.8804 5.40257C12.6913 5.36799 12.4967 5.37809 12.3122 5.43206C12.1277 5.48603 11.9584 5.58239 11.8177 5.71343C11.6771 5.84448 11.569 6.00659 11.5021 6.18682C11.4352 6.36705 11.4114 6.56043 11.4325 6.7515C11.4536 6.94258 11.5191 7.12608 11.6238 7.28735C11.6964 7.03 11.851 6.80339 12.0641 6.64195C12.2773 6.48051 12.5373 6.39307 12.8047 6.39292Z" fill="white"/>
<path d="M32.5844 12.4902H56.1641C56.4089 12.4902 56.6514 12.5385 56.8777 12.6322C57.104 12.7259 57.3095 12.8633 57.4827 13.0364C57.6559 13.2096 57.7932 13.4152 57.887 13.6414C57.9807 13.8677 58.0289 14.1102 58.0289 14.3551V39.1624C58.0289 39.657 57.8324 40.1313 57.4827 40.481C57.133 40.8308 56.6586 41.0272 56.1641 41.0272H12.98C12.4854 41.0272 12.0111 40.8308 11.6614 40.481C11.3116 40.1313 11.1152 39.657 11.1152 39.1624V14.3551C11.1152 13.8605 11.3116 13.3862 11.6614 13.0364C12.0111 12.6867 12.4854 12.4902 12.98 12.4902H20.3079" fill="white"/>
<path d="M32.5844 12.4902H56.1641C56.4089 12.4902 56.6514 12.5385 56.8777 12.6322C57.104 12.7259 57.3095 12.8633 57.4827 13.0364C57.6559 13.2096 57.7932 13.4152 57.887 13.6414C57.9807 13.8677 58.0289 14.1102 58.0289 14.3551V39.1624C58.0289 39.657 57.8324 40.1313 57.4827 40.481C57.133 40.8308 56.6586 41.0272 56.1641 41.0272H12.98C12.4854 41.0272 12.0111 40.8308 11.6614 40.481C11.3116 40.1313 11.1152 39.657 11.1152 39.1624V14.3551C11.1152 13.8605 11.3116 13.3862 11.6614 13.0364C12.0111 12.6867 12.4854 12.4902 12.98 12.4902H20.3079" stroke="#312783" stroke-miterlimit="10" stroke-linecap="round"/>
<path d="M23.231 12.4902H29.4686H23.231Z" fill="white"/>
<path d="M23.231 12.4902H29.4686" stroke="#312783" stroke-miterlimit="10" stroke-linecap="round"/>
<path d="M33.2799 24.9858C30.0647 28.2011 30.0647 29.6801 30.9766 30.595C31.8886 31.5099 33.3647 31.5216 36.58 28.2946C39.7953 25.0677 43.5747 19.818 42.6598 18.906C41.7449 17.9941 36.5069 21.753 33.2799 24.9858Z" fill="#8686BA"/>
<path d="M24.7798 34.4243C25.835 35.4795 29.9681 35.7776 31.9732 33.7724C32.186 33.5579 32.368 33.315 32.514 33.0505C29.3776 32.9569 27.7232 31.9134 26.9048 31.1096C26.5453 32.1648 26.1974 33.486 24.7798 34.4243Z" fill="#CEEAFF"/>
<path d="M32.2247 29.353C31.0701 28.1838 28.951 28.4469 27.811 29.5985C27.3933 30.022 27.0827 30.5391 26.9049 31.1068C27.7233 31.9106 29.3281 34.3864 32.5141 33.0476C33.1718 31.8755 33.1659 30.2913 32.2247 29.353Z" fill="#8686BA"/>
<path d="M26.9049 31.1068C26.9049 31.1068 28.8048 30.7472 29.711 32.0801C30.6171 33.413 32.517 33.0476 32.517 33.0476L30.0588 34.4068L27.5977 32.615L26.9049 31.1068Z" fill="#CEEAFF"/>
</svg>
