<svg width="113" height="88" viewBox="0 0 113 88" fill="none" xmlns="http://www.w3.org/2000/svg">
<g filter="url(#filter0_d_123_6021)">
<rect x="4.5" width="100.116" height="79.6886" rx="8" fill="#7DBBF4"/>
</g>
<path d="M50.9463 57.9833H57.9406V79.0265H50.9463V57.9833Z" fill="#0B4870"/>
<path d="M38.709 76.5229H70.1777V79.9473H38.709V76.5229Z" fill="#0E538C"/>
<path d="M82.3979 62.4897L26.3749 62.4897L26.3749 30.0264L82.3979 30.0264V62.4897Z" fill="#CCE9FF"/>
<path d="M24.7889 70.1604H84.0923C84.3947 70.1604 84.64 69.9174 84.64 69.6179V28.5033C84.64 28.2038 84.3947 27.9608 84.0923 27.9608H24.7889C24.4865 27.9608 24.2412 28.2038 24.2412 28.5033V69.6236C24.2412 69.923 24.4865 70.1604 24.7889 70.1604Z" fill="#0E538C"/>
<path d="M28.8167 32.4419H79.8649V35.5498H28.8167V32.4419Z" fill="#2A94F4"/>
<path d="M28.8167 35.55H79.8649V54.7173H28.8167V35.55Z" fill="#F7F7F7"/>
<path d="M27.3391 46.936H50.9236V60.1079H27.3391V46.936Z" fill="#31A1F4"/>
<path d="M27.3391 45.6307H51.2658V46.9361H27.3391V45.6307Z" fill="#D3D3D3"/>
<path d="M38.1558 48.6538H47.3751V48.8121H38.1558V48.6538ZM28.406 48.0662H49.3719V48.2244H28.406V48.0662ZM28.406 48.6538H37.6253V48.8121H28.406V48.6538ZM47.8201 48.6538H49.3719V48.8121H47.8201V48.6538Z" fill="white"/>
<path d="M39.6172 50.1426H30.3979V49.9844H39.6172V50.1426Z" fill="white"/>
<path d="M49.3674 50.7339H28.4016V50.5757H49.3674V50.7339Z" fill="white"/>
<path d="M49.3682 50.1426H40.1489V49.9844H49.3682V50.1426Z" fill="white"/>
<path d="M29.9514 50.1426H28.3997V49.9844H29.9514V50.1426Z" fill="white"/>
<path d="M28.406 49.2416H49.3719V49.3998H28.406V49.2416ZM38.1558 51.937H47.3751V52.0952H38.1558V51.937ZM28.406 51.3493H49.3719V51.5075H28.406V51.3493ZM28.406 51.937H37.6253V52.0952H28.406V51.937ZM47.8201 51.937H49.3719V52.0952H47.8201V51.937Z" fill="white"/>
<path d="M39.6172 53.4307H30.3979V53.2724H39.6172V53.4307Z" fill="white"/>
<path d="M49.3674 54.0164H28.4016V53.8581H49.3674V54.0164Z" fill="white"/>
<path d="M49.3682 53.4307H40.1489V53.2724H49.3682V53.4307Z" fill="white"/>
<path d="M29.9514 53.4307H28.3997V53.2724H29.9514V53.4307Z" fill="white"/>
<path d="M28.406 52.5244H49.3719V52.6826H28.406V52.5244Z" fill="white"/>
<path d="M50.3928 46.936H51.26V60.1079H50.3928V46.936Z" fill="#ADCFE0"/>
<path d="M53.0171 41.0874H79.8648V44.1953H53.0171V41.0874Z" fill="#31A1F4"/>
<path d="M53.0171 44.1956H79.8648V60.1023H53.0171V44.1956Z" fill="#F7F7F7"/>
<path d="M51.1002 47.1227H50.5526C50.4613 47.1227 50.3928 47.1961 50.3928 47.2809V47.9081C50.3928 47.9985 50.467 48.0663 50.5526 48.0663H51.1002C51.1915 48.0663 51.26 47.9929 51.26 47.9081V47.2809C51.2657 47.1961 51.1915 47.1227 51.1002 47.1227Z" fill="#E9F8FF"/>
<path d="M80.7908 58.1179L83.9554 54.0161L94.6595 62.1181L91.4949 66.2199L80.7908 58.1179Z" fill="#FFBE55"/>
<path opacity="0.08" d="M80.7908 58.1179L83.9554 54.0161L94.6595 62.1181L91.4949 66.2199L80.7908 58.1179Z" fill="black"/>
<path d="M111.881 76.8063L110.32 78.8271C109.313 80.1361 107.421 80.3897 106.1 79.3834L89.1257 66.5389L94.3459 59.7812L111.32 72.6257C112.641 73.6238 112.889 75.4973 111.881 76.8063Z" fill="#FFBE55"/>
<path d="M85.1505 40.5402C85.1505 52.5776 75.288 62.401 63.0413 62.401C50.7946 62.401 40.9321 52.5776 40.9321 40.5402C40.9321 28.5028 50.7946 18.6794 63.0413 18.6794C75.288 18.6794 85.1505 28.5028 85.1505 40.5402Z" stroke="#FFBE55" stroke-width="8"/>
<defs>
<filter id="filter0_d_123_6021" x="0.5" y="0" width="108.116" height="87.6886" filterUnits="userSpaceOnUse" color-interpolation-filters="sRGB">
<feFlood flood-opacity="0" result="BackgroundImageFix"/>
<feColorMatrix in="SourceAlpha" type="matrix" values="0 0 0 0 0 0 0 0 0 0 0 0 0 0 0 0 0 0 127 0" result="hardAlpha"/>
<feOffset dy="4"/>
<feGaussianBlur stdDeviation="2"/>
<feComposite in2="hardAlpha" operator="out"/>
<feColorMatrix type="matrix" values="0 0 0 0 0 0 0 0 0 0 0 0 0 0 0 0 0 0 0.25 0"/>
<feBlend mode="normal" in2="BackgroundImageFix" result="effect1_dropShadow_123_6021"/>
<feBlend mode="normal" in="SourceGraphic" in2="effect1_dropShadow_123_6021" result="shape"/>
</filter>
</defs>
</svg>
