<svg width="42" height="42" viewBox="0 0 42 42" fill="none" xmlns="http://www.w3.org/2000/svg">
<path d="M39.375 37.5375L35.7 33.8625C36.3563 32.8125 36.75 31.5 36.75 30.1875C36.75 26.5125 33.8625 23.625 30.1875 23.625C26.5125 23.625 23.625 26.5125 23.625 30.1875C23.625 33.8625 26.5125 36.75 30.1875 36.75C31.5 36.75 32.8125 36.3563 33.8625 35.7L37.5375 39.375L39.375 37.5375ZM26.25 30.1875C26.25 27.9563 27.9562 26.25 30.1875 26.25C32.4188 26.25 34.125 27.9563 34.125 30.1875C34.125 32.4188 32.4188 34.125 30.1875 34.125C27.9562 34.125 26.25 32.4188 26.25 30.1875ZM10.5 21H23.625V23.625H10.5V21ZM10.5 13.125H26.25V15.75H10.5V13.125Z" fill="#312783"/>
<path d="M18.375 36.3563L11.55 32.6812C7.6125 30.7125 5.25 26.6437 5.25 22.3125V5.25H31.5V19.6875H34.125V5.25C34.125 3.80625 32.9438 2.625 31.5 2.625H5.25C3.80625 2.625 2.625 3.80625 2.625 5.25V22.3125C2.625 27.6938 5.5125 32.55 10.2375 35.0438L18.375 39.375V36.3563Z" fill="#312783"/>
</svg>
