<svg width="40" height="40" viewBox="0 0 40 40" fill="none" xmlns="http://www.w3.org/2000/svg">
<path d="M35.3058 6.66663H4.69409C3.94252 6.66663 3.33325 7.27589 3.33325 8.02746V31.9725C3.33325 32.724 3.94252 33.3333 4.69409 33.3333H35.3058C36.0573 33.3333 36.6666 32.724 36.6666 31.9725V8.02746C36.6666 7.27589 36.0573 6.66663 35.3058 6.66663Z" stroke="#312783" stroke-width="2"/>
<path d="M13.3333 15.79C11.6666 13.3334 8.74825 14.9484 8.95742 17.4734C9.16658 20 12.4999 20 12.7074 22.5267C12.9166 25.0517 9.99992 26.6667 8.33325 24.2092M21.6666 15H18.3333V25.8334H21.6666M18.3333 20.8334H21.6666" stroke="#312783" stroke-width="2" stroke-linecap="round" stroke-linejoin="round"/>
<path d="M31.6665 17.5C31.6665 16.1193 30.5472 15 29.1665 15C27.7858 15 26.6665 16.1193 26.6665 17.5V23.3333C26.6665 24.714 27.7858 25.8333 29.1665 25.8333C30.5472 25.8333 31.6665 24.714 31.6665 23.3333V17.5Z" stroke="#312783" stroke-width="2" stroke-linecap="round" stroke-linejoin="round"/>
</svg>
