<svg width="40" height="40" viewBox="0 0 40 40" fill="none" xmlns="http://www.w3.org/2000/svg">
<path d="M35 21.25V27.5H5V7.5H17.5V5H5C4.33696 5 3.70107 5.26339 3.23223 5.73223C2.76339 6.20107 2.5 6.83696 2.5 7.5V27.5C2.5 28.163 2.76339 28.7989 3.23223 29.2678C3.70107 29.7366 4.33696 30 5 30H15V35H10V37.5H30V35H25V30H35C35.663 30 36.2989 29.7366 36.7678 29.2678C37.2366 28.7989 37.5 28.163 37.5 27.5V21.25H35ZM22.5 35H17.5V30H22.5V35Z" fill="#312783"/>
<path d="M37.5 12.5V10H34.8738C34.7125 9.21753 34.4019 8.47351 33.9587 7.80875L35.8212 5.94625L34.0538 4.17875L32.1912 6.04125C31.5265 5.59814 30.7825 5.28746 30 5.12625V2.5H27.5V5.12625C26.7175 5.28746 25.9735 5.59814 25.3087 6.04125L23.4462 4.17875L21.6788 5.94625L23.5413 7.80875C23.0981 8.47351 22.7875 9.21753 22.6262 10H20V12.5H22.6262C22.7875 13.2825 23.0981 14.0265 23.5413 14.6912L21.6788 16.5538L23.4462 18.3212L25.3087 16.4587C25.9735 16.9019 26.7175 17.2125 27.5 17.3738V20H30V17.3738C30.7825 17.2125 31.5265 16.9019 32.1912 16.4587L34.0538 18.3212L35.8212 16.5538L33.9587 14.6912C34.4019 14.0265 34.7125 13.2825 34.8738 12.5H37.5ZM28.75 15C28.0083 15 27.2833 14.7801 26.6666 14.368C26.0499 13.956 25.5693 13.3703 25.2855 12.6851C25.0016 11.9998 24.9274 11.2458 25.0721 10.5184C25.2167 9.79098 25.5739 9.1228 26.0983 8.59835C26.6228 8.0739 27.291 7.71675 28.0184 7.57206C28.7458 7.42736 29.4998 7.50162 30.1851 7.78545C30.8703 8.06928 31.456 8.54993 31.868 9.16661C32.2801 9.7833 32.5 10.5083 32.5 11.25C32.499 12.2443 32.1036 13.1975 31.4006 13.9006C30.6975 14.6036 29.7443 14.999 28.75 15Z" fill="#312783"/>
</svg>
