<svg width="48" height="48" viewBox="0 0 48 48" fill="none" xmlns="http://www.w3.org/2000/svg">
<path d="M25.5 42V33H22.5V42H7.5V45H40.5V42H25.5Z" fill="#312783"/>
<path d="M13.5 25.5C14.3284 25.5 15 24.8284 15 24C15 23.1716 14.3284 22.5 13.5 22.5C12.6716 22.5 12 23.1716 12 24C12 24.8284 12.6716 25.5 13.5 25.5Z" fill="#312783"/>
<path d="M39 30H9C8.20459 29.9992 7.44199 29.6829 6.87956 29.1204C6.31712 28.558 6.00079 27.7954 6 27V21C6.00079 20.2046 6.31712 19.442 6.87956 18.8796C7.44199 18.3171 8.20459 18.0008 9 18H39C39.7954 18.0008 40.558 18.3171 41.1204 18.8796C41.6829 19.442 41.9992 20.2046 42 21V27C41.9992 27.7954 41.6829 28.558 41.1204 29.1204C40.558 29.6829 39.7954 29.9992 39 30ZM9 21V27H39V21H9Z" fill="#312783"/>
<path d="M13.5 10.5C14.3284 10.5 15 9.82843 15 9C15 8.17157 14.3284 7.5 13.5 7.5C12.6716 7.5 12 8.17157 12 9C12 9.82843 12.6716 10.5 13.5 10.5Z" fill="#312783"/>
<path d="M39 15H9C8.20459 14.9992 7.44199 14.6829 6.87956 14.1204C6.31712 13.558 6.00079 12.7954 6 12V6C6.00079 5.20459 6.31712 4.44199 6.87956 3.87956C7.44199 3.31712 8.20459 3.00079 9 3H39C39.7954 3.00079 40.558 3.31712 41.1204 3.87956C41.6829 4.44199 41.9992 5.20459 42 6V12C41.9992 12.7954 41.6829 13.558 41.1204 14.1204C40.558 14.6829 39.7954 14.9992 39 15ZM9 6V12H39V6H9Z" fill="#312783"/>
</svg>
