<svg width="64" height="59" viewBox="0 0 64 59" fill="none" xmlns="http://www.w3.org/2000/svg">
<path d="M33.2363 53.366V53.5953C33.1768 54.7988 32.6568 55.9334 31.7839 56.7642C30.9111 57.5949 29.7522 58.0583 28.5472 58.0583C27.3421 58.0583 26.1833 57.5949 25.3104 56.7642C24.4375 55.9334 23.9175 54.7988 23.858 53.5953C23.858 53.5208 23.858 53.4434 23.858 53.366C23.858 53.2886 23.858 53.1739 23.858 53.0794C23.9303 51.8855 24.4556 50.7643 25.3265 49.9446C26.1974 49.1249 27.3483 48.6685 28.5443 48.6685C29.7403 48.6685 30.8912 49.1249 31.7621 49.9446C32.633 50.7643 33.1583 51.8855 33.2306 53.0794C33.2344 53.1749 33.2363 53.2704 33.2363 53.366Z" fill="#006633"/>
<path d="M51.6837 53.366V53.5953C51.6241 54.7988 51.1041 55.9334 50.2313 56.7642C49.3584 57.5949 48.1995 58.0583 46.9945 58.0583C45.7895 58.0583 44.6306 57.5949 43.7577 56.7642C42.8848 55.9334 42.3648 54.7988 42.3053 53.5953C42.3053 53.5208 42.3053 53.4434 42.3053 53.366C42.3053 53.2886 42.3053 53.1739 42.3053 53.0794C42.3777 51.8855 42.9029 50.7643 43.7738 49.9446C44.6447 49.1249 45.7956 48.6685 46.9916 48.6685C48.1876 48.6685 49.3385 49.1249 50.2094 49.9446C51.0803 50.7643 51.6056 51.8855 51.6779 53.0794C51.6818 53.1749 51.6837 53.2704 51.6837 53.366Z" fill="#006633"/>
<path d="M33.2364 53.8303C33.1872 54.8731 32.7896 55.8693 32.1071 56.6593H24.9931C24.3106 55.8693 23.9129 54.8731 23.8638 53.8303H33.2364Z" fill="#01361C"/>
<path d="M51.6779 53.8303C51.6288 54.8731 51.2311 55.8693 50.5486 56.6593H43.4289C42.7464 55.8693 42.3487 54.8731 42.2996 53.8303H51.6779Z" fill="#01361C"/>
<path d="M13.8634 32.9153C13.7163 32.9117 13.5762 32.8516 13.4722 32.7476C13.3681 32.6435 13.3081 32.5035 13.3044 32.3564V30.0032C13.3146 29.8622 13.3777 29.7303 13.4811 29.6341C13.5846 29.5378 13.7206 29.4843 13.8619 29.4843C14.0032 29.4843 14.1393 29.5378 14.2427 29.6341C14.3462 29.7303 14.4093 29.8622 14.4194 30.0032V32.3564C14.4158 32.503 14.3562 32.6426 14.2527 32.7466C14.1493 32.8506 14.01 32.9109 13.8634 32.9153Z" fill="white"/>
<path d="M13.8634 28.5902C13.7163 28.5866 13.5762 28.5265 13.4722 28.4225C13.3681 28.3184 13.3081 28.1784 13.3044 28.0313V26.7587C13.3146 26.6177 13.3777 26.4858 13.4811 26.3896C13.5846 26.2933 13.7206 26.2397 13.8619 26.2397C14.0032 26.2397 14.1393 26.2933 14.2427 26.3896C14.3462 26.4858 14.4093 26.6177 14.4194 26.7587V28.0313C14.4158 28.1779 14.3562 28.3175 14.2527 28.4215C14.1493 28.5255 14.01 28.5858 13.8634 28.5902Z" fill="white"/>
<path d="M62.6412 13.0808L59.2017 46.0628C59.1353 46.7014 58.8351 47.2929 58.3589 47.7235C57.8827 48.1542 57.2642 48.3937 56.6221 48.3959H19.1631L8.58661 13.0808H62.6412Z" fill="#006633"/>
<path d="M28.553 58.4222C27.439 58.4222 26.3501 58.0919 25.4239 57.473C24.4977 56.8541 23.7758 55.9745 23.3495 54.9454C22.9232 53.9162 22.8117 52.7838 23.029 51.6912C23.2463 50.5987 23.7827 49.5951 24.5704 48.8075C25.3581 48.0198 26.3616 47.4834 27.4542 47.2661C28.5467 47.0487 29.6792 47.1603 30.7083 47.5866C31.7374 48.0128 32.6171 48.7347 33.2359 49.661C33.8548 50.5872 34.1851 51.6761 34.1851 52.79C34.1836 54.2833 33.5897 55.715 32.5338 56.7709C31.4779 57.8268 30.0462 58.4207 28.553 58.4222ZM28.553 49.0324C27.8098 49.0324 27.0833 49.2528 26.4653 49.6656C25.8474 50.0785 25.3658 50.6654 25.0813 51.352C24.7969 52.0387 24.7225 52.7942 24.8675 53.5231C25.0125 54.252 25.3704 54.9216 25.8959 55.4471C26.4214 55.9726 27.091 56.3305 27.8199 56.4755C28.5488 56.6205 29.3043 56.546 29.991 56.2616C30.6776 55.9772 31.2644 55.4956 31.6773 54.8777C32.0902 54.2597 32.3106 53.5332 32.3106 52.79C32.3099 51.7937 31.9137 50.8383 31.2092 50.1338C30.5047 49.4293 29.5493 49.0331 28.553 49.0324Z" fill="#312783"/>
<path d="M46.9946 58.4222C45.8806 58.4222 44.7917 58.0919 43.8655 57.473C42.9393 56.8541 42.2174 55.9745 41.7911 54.9454C41.3648 53.9162 41.2533 52.7838 41.4706 51.6912C41.6879 50.5987 42.2243 49.5951 43.012 48.8075C43.7997 48.0198 44.8032 47.4834 45.8958 47.2661C46.9883 47.0487 48.1207 47.1603 49.1499 47.5866C50.179 48.0128 51.0587 48.7347 51.6775 49.661C52.2964 50.5872 52.6267 51.6761 52.6267 52.79C52.6252 54.2833 52.0313 55.715 50.9754 56.7709C49.9195 57.8268 48.4878 58.4207 46.9946 58.4222ZM46.9946 49.0324C46.2514 49.0324 45.5249 49.2528 44.9069 49.6656C44.289 50.0785 43.8073 50.6654 43.5229 51.352C43.2385 52.0387 43.1641 52.7942 43.3091 53.5231C43.4541 54.252 43.812 54.9216 44.3375 55.4471C44.863 55.9726 45.5326 56.3305 46.2615 56.4755C46.9904 56.6205 47.7459 56.546 48.4325 56.2616C49.1192 55.9772 49.706 55.4956 50.1189 54.8777C50.5318 54.2597 50.7522 53.5332 50.7522 52.79C50.7514 51.7937 50.3553 50.8383 49.6508 50.1338C48.9462 49.4293 47.9909 49.0331 46.9946 49.0324Z" fill="#312783"/>
<path d="M8.1252 13.6483H1.2118C0.963222 13.6483 0.724825 13.5496 0.549054 13.3738C0.373283 13.198 0.274536 12.9596 0.274536 12.7111C0.274536 12.4625 0.373283 12.2241 0.549054 12.0483C0.724825 11.8726 0.963222 11.7738 1.2118 11.7738H8.1252C8.37377 11.7738 8.61217 11.8726 8.78794 12.0483C8.96371 12.2241 9.06246 12.4625 9.06246 12.7111C9.06246 12.9596 8.96371 13.198 8.78794 13.3738C8.61217 13.5496 8.37377 13.6483 8.1252 13.6483Z" fill="#312783"/>
<path d="M9.56695 17.8275H4.09242C3.84384 17.8275 3.60544 17.7288 3.42967 17.553C3.2539 17.3772 3.15515 17.1388 3.15515 16.8903C3.15515 16.6417 3.2539 16.4033 3.42967 16.2275C3.60544 16.0517 3.84384 15.953 4.09242 15.953H9.56695C9.81553 15.953 10.0539 16.0517 10.2297 16.2275C10.4055 16.4033 10.5042 16.6417 10.5042 16.8903C10.5042 17.1388 10.4055 17.3772 10.2297 17.553C10.0539 17.7288 9.81553 17.8275 9.56695 17.8275Z" fill="#312783"/>
<path d="M10.4297 22.0036H6.39692C6.14834 22.0036 5.90994 21.9048 5.73417 21.729C5.5584 21.5533 5.45966 21.3149 5.45966 21.0663C5.45966 20.8177 5.5584 20.5793 5.73417 20.4035C5.90994 20.2278 6.14834 20.129 6.39692 20.129H10.4297C10.6783 20.129 10.9167 20.2278 11.0925 20.4035C11.2683 20.5793 11.367 20.8177 11.367 21.0663C11.367 21.3149 11.2683 21.5533 11.0925 21.729C10.9167 21.9048 10.6783 22.0036 10.4297 22.0036Z" fill="#312783"/>
<path opacity="0.7" d="M17.4118 27.6757C17.2052 27.6757 17.0044 27.6074 16.8406 27.4815C16.6768 27.3555 16.5592 27.1789 16.5061 26.9792L15.715 23.9955C15.6547 23.7564 15.691 23.5033 15.816 23.2908C15.941 23.0783 16.1447 22.9237 16.383 22.8603C16.6213 22.797 16.8749 22.8301 17.0889 22.9524C17.3029 23.0748 17.4602 23.2765 17.5265 23.5139L18.3319 26.4977C18.3688 26.6365 18.3733 26.7819 18.3451 26.9227C18.3169 27.0635 18.2567 27.1959 18.1691 27.3098C18.0816 27.4236 17.9691 27.5158 17.8403 27.5793C17.7114 27.6427 17.5698 27.6757 17.4262 27.6757H17.4118Z" fill="white"/>
<path opacity="0.7" d="M15.4859 21.0175C15.2792 21.0175 15.0784 20.9492 14.9146 20.8232C14.7508 20.6973 14.6332 20.5207 14.5801 20.321L14.1531 18.7045C14.0927 18.4654 14.129 18.2122 14.2541 17.9998C14.3791 17.7873 14.5828 17.6326 14.8211 17.5693C15.0593 17.506 15.3129 17.5391 15.527 17.6614C15.741 17.7837 15.8982 17.9855 15.9645 18.2229L16.3916 19.851C16.4285 19.9897 16.433 20.1351 16.4048 20.2759C16.3766 20.4167 16.3164 20.5492 16.2288 20.663C16.1413 20.7768 16.0288 20.869 15.9 20.9325C15.7712 20.996 15.6295 21.029 15.4859 21.029V21.0175Z" fill="white"/>
<path d="M18.5297 44.7673H58.597V47.1693H18.5297V44.7673Z" fill="#01361C"/>
<path d="M56.3699 49.0438H21.307C20.4847 49.0475 19.6834 48.7839 19.0238 48.2929C18.3642 47.8018 17.882 47.1097 17.6497 46.3209L7.68659 13.0724L5.78626 6.65196C5.71557 6.41364 5.74244 6.157 5.86096 5.9385C5.97949 5.71999 6.17996 5.55752 6.41827 5.48683C6.65659 5.41613 6.91323 5.443 7.13173 5.56152C7.35024 5.68005 7.51271 5.88052 7.5834 6.11883L9.48373 12.5364L19.4468 45.7849C19.5649 46.1869 19.8105 46.5396 20.1466 46.7898C20.4826 47.04 20.8909 47.1742 21.3099 47.1721H56.3699C56.8505 47.1725 57.3142 46.9945 57.6711 46.6725C58.028 46.3506 58.2527 45.9076 58.3017 45.4295L59.3278 36.0282C59.3594 35.7849 59.4851 35.5637 59.6779 35.4121C59.8707 35.2604 60.1152 35.1904 60.3591 35.217C60.6029 35.2437 60.8266 35.3648 60.9821 35.5545C61.1376 35.7442 61.2126 35.9873 61.1909 36.2317L60.1791 45.6272C60.0816 46.568 59.6376 47.4388 58.9336 48.0704C58.2295 48.7019 57.3156 49.0488 56.3699 49.0438Z" fill="#312783"/>
<path d="M61.3458 25.7182H61.2426C60.9956 25.6909 60.7695 25.5665 60.6142 25.3724C60.4588 25.1784 60.3869 24.9306 60.4143 24.6835L61.3802 15.8755C61.4075 15.6052 61.3777 15.3321 61.2929 15.0739C61.208 14.8158 61.07 14.5783 60.8877 14.3768C60.7054 14.1753 60.4828 14.0143 60.2344 13.9041C59.986 13.794 59.7172 13.7372 59.4455 13.7373H16.9619C16.7133 13.7373 16.4749 13.6386 16.2992 13.4628C16.1234 13.287 16.0247 13.0486 16.0247 12.8001C16.0247 12.5515 16.1234 12.3131 16.2992 12.1373C16.4749 11.9615 16.7133 11.8628 16.9619 11.8628H59.4455C59.9803 11.8627 60.5091 11.975 60.9977 12.1924C61.4863 12.4097 61.9238 12.7273 62.2818 13.1245C62.6399 13.5217 62.9105 13.9897 63.0761 14.4982C63.2417 15.0067 63.2987 15.5443 63.2433 16.0762L62.2774 24.8899C62.2506 25.1182 62.141 25.3287 61.9693 25.4814C61.7975 25.6341 61.5756 25.7184 61.3458 25.7182Z" fill="#312783"/>
<path d="M38.6966 27.7389C45.0761 27.7389 50.2476 22.5584 50.2476 16.1679C50.2476 9.77734 45.0761 4.5968 38.6966 4.5968C32.3172 4.5968 27.1456 9.77734 27.1456 16.1679C27.1456 22.5584 32.3172 27.7389 38.6966 27.7389Z" fill="#01361C"/>
<path d="M38.7883 24.8439C45.1788 24.8439 50.3593 19.6633 50.3593 13.2728C50.3593 6.88232 45.1788 1.70178 38.7883 1.70178C32.3978 1.70178 27.2172 6.88232 27.2172 13.2728C27.2172 19.6633 32.3978 24.8439 38.7883 24.8439Z" fill="white"/>
<path opacity="0.5" d="M50.5487 13.1841C50.5475 14.8603 50.1821 16.5164 49.4777 18.0375C48.7734 19.5587 47.747 20.9086 46.4695 21.994C45.192 23.0793 43.694 23.8741 42.079 24.3234C40.4641 24.7727 38.7708 24.8658 37.1163 24.5961C35.4619 24.3265 33.8857 23.7006 32.497 22.7618C31.1083 21.8229 29.9402 20.5936 29.0734 19.1587C28.2067 17.7239 27.662 16.1179 27.4771 14.4519C27.2923 12.7858 27.4716 11.0994 28.0027 9.50952C28.9515 14.8551 33.8728 19.6675 38.9776 19.6675C44.0824 19.6675 48.7429 15.7981 49.9525 9.50952C50.3493 10.6939 50.5506 11.935 50.5487 13.1841Z" fill="#D9F0FF"/>
<path d="M50.4482 13.0064C50.4482 16.0753 49.2291 19.0184 47.0591 21.1884C44.8891 23.3584 41.946 24.5775 38.8771 24.5775C35.8083 24.5775 32.8652 23.3584 30.6952 21.1884C28.5252 19.0184 27.3061 16.0753 27.3061 13.0064C27.3061 12.5023 27.3386 11.9987 27.4035 11.4988C27.7674 14.2844 29.1322 16.8425 31.2434 18.6959C33.3545 20.5492 36.0679 21.5712 38.8771 21.5712C41.6864 21.5712 44.3997 20.5492 46.5109 18.6959C48.6221 16.8425 49.9869 14.2844 50.3507 11.4988C50.4156 11.9987 50.4482 12.5023 50.4482 13.0064Z" fill="#D9F0FF"/>
<path d="M38.6823 25.6636C36.2084 25.6636 33.79 24.93 31.733 23.5556C29.676 22.1811 28.0728 20.2276 27.1261 17.942C26.1794 15.6564 25.9317 13.1414 26.4143 10.715C26.8969 8.28867 28.0882 6.0599 29.8376 4.31058C31.5869 2.56126 33.8156 1.36996 36.242 0.887322C38.6684 0.404686 41.1834 0.652392 43.469 1.59912C45.7546 2.54584 47.7081 4.14906 49.0826 6.20605C50.457 8.26303 51.1906 10.6814 51.1906 13.1553C51.1868 16.4715 49.8677 19.6509 47.5228 21.9958C45.1779 24.3408 41.9985 25.6598 38.6823 25.6636ZM38.6823 2.52151C36.5791 2.52151 34.5232 3.14517 32.7745 4.31362C31.0257 5.48208 29.6628 7.14285 28.8579 9.08592C28.0531 11.029 27.8425 13.1671 28.2528 15.2298C28.6631 17.2926 29.6759 19.1874 31.163 20.6745C32.6502 22.1617 34.545 23.1744 36.6077 23.5848C38.6705 23.9951 40.8086 23.7845 42.7516 22.9796C44.6947 22.1748 46.3555 20.8118 47.5239 19.0631C48.6924 17.3144 49.3161 15.2585 49.3161 13.1553C49.313 10.336 48.1917 7.63299 46.1981 5.63942C44.2046 3.64586 41.5016 2.52454 38.6823 2.52151Z" fill="#312783"/>
<path opacity="0.7" d="M18.5296 30.8803C19.0472 30.8803 19.4669 30.4606 19.4669 29.943C19.4669 29.4254 19.0472 29.0057 18.5296 29.0057C18.012 29.0057 17.5923 29.4254 17.5923 29.943C17.5923 30.4606 18.012 30.8803 18.5296 30.8803Z" fill="white"/>
<path d="M36.1427 13.161C36.1371 12.995 36.1865 12.8318 36.2832 12.6967C36.3242 12.6378 36.3792 12.59 36.4432 12.5575C36.5072 12.525 36.5783 12.5088 36.6501 12.5104H38.0029V11.126C38.0055 11.0523 38.0252 10.9803 38.0605 10.9156C38.0959 10.8509 38.1458 10.7953 38.2064 10.7534C38.3418 10.6444 38.5113 10.5865 38.6851 10.59C38.8603 10.5832 39.0318 10.6414 39.1666 10.7534C39.2241 10.7973 39.271 10.8536 39.3037 10.9181C39.3365 10.9826 39.3543 11.0537 39.3558 11.126V12.5104H40.6886C40.7602 12.5129 40.8304 12.5315 40.8939 12.5647C40.9574 12.5979 41.0126 12.645 41.0555 12.7024C41.1645 12.83 41.2227 12.9933 41.2189 13.161C41.2254 13.3282 41.1691 13.4918 41.0612 13.6196C41.0165 13.6756 40.9598 13.7208 40.8953 13.752C40.8309 13.7833 40.7602 13.7997 40.6886 13.8002H39.3501V15.1989C39.3519 15.2721 39.3362 15.3446 39.3043 15.4104C39.2724 15.4762 39.2252 15.5334 39.1666 15.5773C39.0253 15.6791 38.8534 15.7297 38.6794 15.7206C38.5057 15.727 38.3346 15.6767 38.1921 15.5773C38.1307 15.5354 38.0808 15.4788 38.0467 15.4128C38.0127 15.3467 37.9957 15.2732 37.9972 15.1989V13.8002H36.6443C36.5737 13.8024 36.5035 13.7876 36.4397 13.7572C36.3759 13.7268 36.3203 13.6816 36.2774 13.6254C36.1805 13.4907 36.133 13.3267 36.1427 13.161Z" fill="#312783"/>
<path d="M60.5431 33.5172H60.4657C60.343 33.5074 60.2234 33.4736 60.1138 33.4176C60.0041 33.3616 59.9066 33.2845 59.8268 33.1909C59.7469 33.0972 59.6863 32.9887 59.6484 32.8715C59.6105 32.7544 59.596 32.631 59.6058 32.5083L59.7434 30.7885C59.7635 30.5407 59.8813 30.311 60.0708 30.1501C60.2603 29.9891 60.5059 29.9099 60.7538 29.9301C61.0016 29.9502 61.2312 30.068 61.3922 30.2575C61.5532 30.447 61.6323 30.6926 61.6122 30.9404L61.4746 32.6602C61.4546 32.8936 61.3478 33.1111 61.1754 33.2697C61.003 33.4283 60.7774 33.5166 60.5431 33.5172Z" fill="#312783"/>
<path d="M60.9244 28.8453H60.847C60.7243 28.8355 60.6047 28.8016 60.4951 28.7457C60.3855 28.6897 60.288 28.6126 60.2081 28.5189C60.1283 28.4252 60.0677 28.3167 60.0297 28.1996C59.9918 28.0825 59.9774 27.9591 59.9872 27.8364V27.7647C59.997 27.642 60.0308 27.5224 60.0868 27.4128C60.1428 27.3032 60.2199 27.2057 60.3135 27.1258C60.4072 27.046 60.5157 26.9853 60.6328 26.9474C60.7499 26.9095 60.8734 26.895 60.9961 26.9048C61.1188 26.9146 61.2384 26.9485 61.348 27.0045C61.4576 27.0605 61.5551 27.1375 61.635 27.2312C61.7148 27.3249 61.7754 27.4334 61.8134 27.5505C61.8513 27.6676 61.8657 27.791 61.856 27.9137V27.9854C61.8366 28.2193 61.7301 28.4375 61.5576 28.5967C61.3851 28.7559 61.1592 28.8446 60.9244 28.8453Z" fill="#312783"/>
</svg>
