<svg width="40" height="40" viewBox="0 0 40 40" fill="none" xmlns="http://www.w3.org/2000/svg">
<path d="M6.66675 11.6666H33.3334" stroke="#312783" stroke-width="2"/>
<path d="M9.02499 9.16663L7.25832 10.9341C7.18084 11.0115 7.11937 11.1034 7.07744 11.2046C7.0355 11.3058 7.01392 11.4142 7.01392 11.5237C7.01392 11.6332 7.0355 11.7417 7.07744 11.8428C7.11937 11.944 7.18084 12.0359 7.25832 12.1133L9.02582 13.88M30.975 13.8808L32.7425 12.1125C32.8987 11.9562 32.9865 11.7443 32.9865 11.5233C32.9865 11.3023 32.8987 11.0904 32.7425 10.9341L30.975 9.16663" stroke="#312783" stroke-width="2" stroke-linecap="round"/>
<path d="M11.6667 21.25C11.6667 21.8025 11.4473 22.3324 11.0566 22.7231C10.6659 23.1138 10.1359 23.3333 9.58341 23.3333C9.03088 23.3333 8.50098 23.1138 8.11028 22.7231C7.71957 22.3324 7.50008 21.8025 7.50008 21.25C7.50008 20.6974 7.71957 20.1675 8.11028 19.7768C8.50098 19.3861 9.03088 19.1666 9.58341 19.1666C10.1359 19.1666 10.6659 19.3861 11.0566 19.7768C11.4473 20.1675 11.6667 20.6974 11.6667 21.25V21.25ZM4.16675 28.5558C4.16675 27.9116 4.75758 27.2258 6.02175 26.6491C7.21508 26.1058 8.66008 25.8333 9.58341 25.8333C10.5067 25.8333 11.9517 26.105 13.1451 26.65C14.4084 27.225 15.0001 27.9108 15.0001 28.555V30.8333H4.16675V28.5558V28.5558ZM32.5001 21.25C32.5001 21.8025 32.2806 22.3324 31.8899 22.7231C31.4992 23.1138 30.9693 23.3333 30.4167 23.3333C29.8642 23.3333 29.3343 23.1138 28.9436 22.7231C28.5529 22.3324 28.3334 21.8025 28.3334 21.25C28.3334 20.6974 28.5529 20.1675 28.9436 19.7768C29.3343 19.3861 29.8642 19.1666 30.4167 19.1666C30.9693 19.1666 31.4992 19.3861 31.8899 19.7768C32.2806 20.1675 32.5001 20.6974 32.5001 21.25V21.25ZM25.0001 28.5558C25.0001 27.9116 25.5909 27.2258 26.8551 26.6491C28.0484 26.1058 29.4934 25.8333 30.4167 25.8333C31.3401 25.8333 32.7851 26.105 33.9784 26.65C35.2417 27.225 35.8334 27.9108 35.8334 28.555V30.8333H25.0001V28.5558V28.5558Z" stroke="#312783" stroke-width="2"/>
</svg>
