<svg width="45" height="45" viewBox="0 0 45 45" fill="none" xmlns="http://www.w3.org/2000/svg">
<path d="M29.4694 4.6322C29.5237 4.45566 29.5427 4.27015 29.5253 4.08626C29.5079 3.90238 29.4544 3.72372 29.368 3.5605C29.2815 3.39727 29.1638 3.25266 29.0214 3.13494C28.8791 3.01722 28.715 2.92869 28.5384 2.87439C28.3619 2.8201 28.1764 2.80111 27.9925 2.81851C27.8086 2.83591 27.63 2.88936 27.4667 2.97581C27.3035 3.06225 27.1589 3.18 27.0412 3.32233C26.9235 3.46466 26.8349 3.62878 26.7806 3.80533L15.5306 40.3678C15.421 40.7244 15.4575 41.1099 15.632 41.4395C15.8066 41.7692 16.105 42.016 16.4616 42.1256C16.8181 42.2353 17.2036 42.1988 17.5333 42.0242C17.8629 41.8496 18.1097 41.5513 18.2194 41.1947L29.4694 4.6322ZM13.6519 11.6606C13.7828 11.7913 13.8867 11.9465 13.9576 12.1173C14.0285 12.2881 14.065 12.4713 14.065 12.6563C14.065 12.8412 14.0285 13.0244 13.9576 13.1952C13.8867 13.3661 13.7828 13.5213 13.6519 13.6519L4.80095 22.5L13.6519 31.3481C13.9159 31.6122 14.0643 31.9703 14.0643 32.3438C14.0643 32.7172 13.9159 33.0753 13.6519 33.3394C13.3878 33.6035 13.0297 33.7518 12.6563 33.7518C12.2828 33.7518 11.9247 33.6035 11.6606 33.3394L1.81689 23.4956C1.68593 23.365 1.58203 23.2098 1.51113 23.039C1.44024 22.8681 1.40375 22.685 1.40375 22.5C1.40375 22.315 1.44024 22.1319 1.51113 21.961C1.58203 21.7902 1.68593 21.635 1.81689 21.5044L11.6606 11.6606C11.7913 11.5297 11.9464 11.4258 12.1173 11.3549C12.2881 11.284 12.4713 11.2475 12.6563 11.2475C12.8412 11.2475 13.0244 11.284 13.1952 11.3549C13.3661 11.4258 13.5213 11.5297 13.6519 11.6606ZM31.3481 11.6606C31.2172 11.7913 31.1133 11.9465 31.0424 12.1173C30.9715 12.2881 30.935 12.4713 30.935 12.6563C30.935 12.8412 30.9715 13.0244 31.0424 13.1952C31.1133 13.3661 31.2172 13.5213 31.3481 13.6519L40.1991 22.5L31.3481 31.3481C31.2174 31.4789 31.1137 31.6341 31.0429 31.8049C30.9722 31.9758 30.9357 32.1589 30.9357 32.3438C30.9357 32.5287 30.9722 32.7118 31.0429 32.8826C31.1137 33.0534 31.2174 33.2086 31.3481 33.3394C31.4789 33.4701 31.6341 33.5739 31.8049 33.6446C31.9758 33.7154 32.1589 33.7518 32.3438 33.7518C32.5287 33.7518 32.7118 33.7154 32.8826 33.6446C33.0534 33.5739 33.2086 33.4701 33.3394 33.3394L43.1831 23.4956C43.3141 23.365 43.418 23.2098 43.4889 23.039C43.5598 22.8681 43.5963 22.685 43.5963 22.5C43.5963 22.315 43.5598 22.1319 43.4889 21.961C43.418 21.7902 43.3141 21.635 43.1831 21.5044L33.3394 11.6606C33.2088 11.5297 33.0536 11.4258 32.8827 11.3549C32.7119 11.284 32.5287 11.2475 32.3438 11.2475C32.1588 11.2475 31.9756 11.284 31.8048 11.3549C31.6339 11.4258 31.4788 11.5297 31.3481 11.6606Z" fill="#312783"/>
</svg>
