<svg width="45" height="45" viewBox="0 0 45 45" fill="none" xmlns="http://www.w3.org/2000/svg">
<path d="M38.0962 7.46631L23.1636 2.37744C22.9834 2.31592 22.7417 2.28516 22.5 2.28516C22.2583 2.28516 22.0166 2.31592 21.8364 2.37744L6.90381 7.46631C6.53906 7.58935 6.24023 8.01123 6.24023 8.39795V29.5972C6.24023 29.9839 6.49072 30.4937 6.79395 30.7353L21.9419 42.5391C22.0957 42.6577 22.2935 42.7192 22.4956 42.7192C22.6978 42.7192 22.8999 42.6577 23.0493 42.5391L38.1973 30.7353C38.5005 30.498 38.751 29.9883 38.751 29.5972V8.39795C38.7598 8.01123 38.4609 7.59375 38.0962 7.46631ZM35.5957 28.7534L22.5 38.9575L9.4043 28.7534V9.9624L22.5 5.49756L35.5957 9.9624V28.7534ZM17.7056 23.2383L14.2998 26.644C14.2344 26.7101 14.1977 26.7993 14.1977 26.8923C14.1977 26.9853 14.2344 27.0745 14.2998 27.1406L15.7939 28.6348C15.9302 28.771 16.1543 28.771 16.2905 28.6348L19.6963 25.229C22.144 26.7715 25.4136 26.477 27.5449 24.3457C30.019 21.8716 30.019 17.8638 27.5449 15.3896C25.0708 12.9155 21.063 12.9155 18.5889 15.3896C16.4575 17.521 16.1631 20.7949 17.7056 23.2383ZM20.5796 17.3804C21.9551 16.0049 24.1831 16.0049 25.5542 17.3804C26.9297 18.7559 26.9297 20.9839 25.5542 22.355C24.1787 23.7305 21.9507 23.7305 20.5796 22.355C19.2085 20.9795 19.2041 18.7559 20.5796 17.3804Z" fill="#312783"/>
</svg>
