<svg width="40" height="40" viewBox="0 0 40 40" fill="none" xmlns="http://www.w3.org/2000/svg">
<g clip-path="url(#clip0_48_14281)">
<path d="M5 25H12.5C13.163 25 13.7989 25.2634 14.2678 25.7322C14.7366 26.2011 15 26.837 15 27.5V35C15 35.663 14.7366 36.2989 14.2678 36.7678C13.7989 37.2366 13.163 37.5 12.5 37.5H5C4.33696 37.5 3.70107 37.2366 3.23223 36.7678C2.76339 36.2989 2.5 35.663 2.5 35V27.5C2.5 26.837 2.76339 26.2011 3.23223 25.7322C3.70107 25.2634 4.33696 25 5 25ZM27.5 2.5H35C35.663 2.5 36.2989 2.76339 36.7678 3.23223C37.2366 3.70107 37.5 4.33696 37.5 5V12.5C37.5 13.163 37.2366 13.7989 36.7678 14.2678C36.2989 14.7366 35.663 15 35 15H27.5C26.837 15 26.2011 14.7366 25.7322 14.2678C25.2634 13.7989 25 13.163 25 12.5V5C25 4.33696 25.2634 3.70107 25.7322 3.23223C26.2011 2.76339 26.837 2.5 27.5 2.5ZM27.5 25C26.837 25 26.2011 25.2634 25.7322 25.7322C25.2634 26.2011 25 26.837 25 27.5V35C25 35.663 25.2634 36.2989 25.7322 36.7678C26.2011 37.2366 26.837 37.5 27.5 37.5H35C35.663 37.5 36.2989 37.2366 36.7678 36.7678C37.2366 36.2989 37.5 35.663 37.5 35V27.5C37.5 26.837 37.2366 26.2011 36.7678 25.7322C36.2989 25.2634 35.663 25 35 25H27.5ZM27.5 0C26.1739 0 24.9021 0.526784 23.9645 1.46447C23.0268 2.40215 22.5 3.67392 22.5 5V12.5C22.5 13.8261 23.0268 15.0979 23.9645 16.0355C24.9021 16.9732 26.1739 17.5 27.5 17.5H35C36.3261 17.5 37.5979 16.9732 38.5355 16.0355C39.4732 15.0979 40 13.8261 40 12.5V5C40 3.67392 39.4732 2.40215 38.5355 1.46447C37.5979 0.526784 36.3261 0 35 0L27.5 0ZM5 22.5C3.67392 22.5 2.40215 23.0268 1.46447 23.9645C0.526784 24.9021 0 26.1739 0 27.5L0 35C0 36.3261 0.526784 37.5979 1.46447 38.5355C2.40215 39.4732 3.67392 40 5 40H12.5C13.8261 40 15.0979 39.4732 16.0355 38.5355C16.9732 37.5979 17.5 36.3261 17.5 35V27.5C17.5 26.1739 16.9732 24.9021 16.0355 23.9645C15.0979 23.0268 13.8261 22.5 12.5 22.5H5ZM22.5 27.5C22.5 26.1739 23.0268 24.9021 23.9645 23.9645C24.9021 23.0268 26.1739 22.5 27.5 22.5H35C36.3261 22.5 37.5979 23.0268 38.5355 23.9645C39.4732 24.9021 40 26.1739 40 27.5V35C40 36.3261 39.4732 37.5979 38.5355 38.5355C37.5979 39.4732 36.3261 40 35 40H27.5C26.1739 40 24.9021 39.4732 23.9645 38.5355C23.0268 37.5979 22.5 36.3261 22.5 35V27.5ZM0 5C0 3.67392 0.526784 2.40215 1.46447 1.46447C2.40215 0.526784 3.67392 0 5 0L12.5 0C13.8261 0 15.0979 0.526784 16.0355 1.46447C16.9732 2.40215 17.5 3.67392 17.5 5V12.5C17.5 13.8261 16.9732 15.0979 16.0355 16.0355C15.0979 16.9732 13.8261 17.5 12.5 17.5H5C3.67392 17.5 2.40215 16.9732 1.46447 16.0355C0.526784 15.0979 0 13.8261 0 12.5V5ZM13.385 7.135C13.5012 7.01878 13.5934 6.88081 13.6563 6.72896C13.7192 6.57711 13.7516 6.41436 13.7516 6.25C13.7516 6.08564 13.7192 5.92289 13.6563 5.77104C13.5934 5.61919 13.5012 5.48122 13.385 5.365C13.2688 5.24878 13.1308 5.15659 12.979 5.09369C12.8271 5.03079 12.6644 4.99842 12.5 4.99842C12.3356 4.99842 12.1729 5.03079 12.021 5.09369C11.8692 5.15659 11.7312 5.24878 11.615 5.365L7.5 9.4825L5.885 7.865C5.76878 7.74878 5.63081 7.65659 5.47896 7.59369C5.32711 7.53079 5.16436 7.49842 5 7.49842C4.83564 7.49842 4.67289 7.53079 4.52104 7.59369C4.36919 7.65659 4.23122 7.74878 4.115 7.865C3.99878 7.98122 3.90659 8.11919 3.84369 8.27104C3.78079 8.42289 3.74842 8.58564 3.74842 8.75C3.74842 8.91436 3.78079 9.07711 3.84369 9.22896C3.90659 9.38081 3.99878 9.51878 4.115 9.635L6.615 12.135C6.73111 12.2514 6.86905 12.3438 7.02092 12.4068C7.17278 12.4698 7.33558 12.5022 7.5 12.5022C7.66442 12.5022 7.82722 12.4698 7.97908 12.4068C8.13095 12.3438 8.26889 12.2514 8.385 12.135L13.385 7.135Z" fill="#312783"/>
</g>
<defs>
<clipPath id="clip0_48_14281">
<rect width="40" height="40" fill="white"/>
</clipPath>
</defs>
</svg>
