<svg width="113" height="88" viewBox="0 0 113 88" fill="none" xmlns="http://www.w3.org/2000/svg">
<g filter="url(#filter0_d_316_2522)">
<rect x="4.5" y="6.10352e-05" width="100.116" height="79.6886" rx="8" fill="#7DBBF4"/>
</g>
<path d="M50.9473 57.9834H57.9416V79.0267H50.9473V57.9834Z" fill="#0B4870"/>
<path d="M38.7109 76.5231H70.1797V79.9474H38.7109V76.5231Z" fill="#0E538C"/>
<path d="M82.3984 62.4899L26.3754 62.4899L26.3754 30.0265L82.3984 30.0265V62.4899Z" fill="#CCE9FF"/>
<path d="M24.7899 70.1605H84.0933C84.3956 70.1605 84.6409 69.9176 84.6409 69.6181V28.5035C84.6409 28.204 84.3956 27.961 84.0933 27.961H24.7899C24.4875 27.961 24.2422 28.204 24.2422 28.5035V69.6237C24.2422 69.9232 24.4875 70.1605 24.7899 70.1605Z" fill="#0E538C"/>
<path d="M28.8164 32.4421H79.8647V35.55H28.8164V32.4421Z" fill="#2A94F4"/>
<path d="M28.8164 35.5502H79.8647V54.7174H28.8164V35.5502Z" fill="#F7F7F7"/>
<path d="M27.3398 46.9363H50.9243V60.1081H27.3398V46.9363Z" fill="#31A1F4"/>
<path d="M27.3398 45.631H51.2666V46.9363H27.3398V45.631Z" fill="#D3D3D3"/>
<path d="M38.1561 48.6541H47.3754V48.8123H38.1561V48.6541ZM28.4062 48.0664H49.3721V48.2246H28.4062V48.0664ZM28.4062 48.6541H37.6255V48.8123H28.4062V48.6541ZM47.8203 48.6541H49.3721V48.8123H47.8203V48.6541Z" fill="white"/>
<path d="M39.6172 50.1427H30.3979V49.9845H39.6172V50.1427Z" fill="white"/>
<path d="M49.3672 50.7341H28.4013V50.5759H49.3672V50.7341Z" fill="white"/>
<path d="M49.3691 50.1427H40.1499V49.9845H49.3691V50.1427Z" fill="white"/>
<path d="M29.9531 50.1427H28.4014V49.9845H29.9531V50.1427Z" fill="white"/>
<path d="M28.4062 49.2418H49.3721V49.4H28.4062V49.2418ZM38.1561 51.9372H47.3754V52.0954H38.1561V51.9372ZM28.4062 51.3495H49.3721V51.5077H28.4062V51.3495ZM28.4062 51.9372H37.6255V52.0954H28.4062V51.9372ZM47.8203 51.9372H49.3721V52.0954H47.8203V51.9372Z" fill="white"/>
<path d="M39.6172 53.4308H30.3979V53.2726H39.6172V53.4308Z" fill="white"/>
<path d="M49.3672 54.0165H28.4013V53.8583H49.3672V54.0165Z" fill="white"/>
<path d="M49.3691 53.4308H40.1499V53.2726H49.3691V53.4308Z" fill="white"/>
<path d="M29.9531 53.4308H28.4014V53.2726H29.9531V53.4308Z" fill="white"/>
<path d="M28.4062 52.5246H49.3721V52.6828H28.4062V52.5246Z" fill="white"/>
<path d="M50.3945 46.9363H51.2617V60.1081H50.3945V46.9363Z" fill="#ADCFE0"/>
<path d="M53.0176 41.0876H79.8653V44.1955H53.0176V41.0876Z" fill="#31A1F4"/>
<path d="M53.0176 44.1957H79.8653V60.1024H53.0176V44.1957Z" fill="#F7F7F7"/>
<path d="M51.102 47.1229H50.5543C50.463 47.1229 50.3945 47.1963 50.3945 47.2811V47.9083C50.3945 47.9987 50.4687 48.0665 50.5543 48.0665H51.102C51.1932 48.0665 51.2617 47.9931 51.2617 47.9083V47.2811C51.2674 47.1963 51.1932 47.1229 51.102 47.1229Z" fill="#E9F8FF"/>
<path d="M80.793 58.118L83.9576 54.0162L94.6617 62.1182L91.4971 66.22L80.793 58.118Z" fill="#FFBE55"/>
<path opacity="0.08" d="M80.793 58.118L83.9576 54.0162L94.6617 62.1182L91.4971 66.22L80.793 58.118Z" fill="black"/>
<path d="M111.883 76.8065L110.322 78.8273C109.314 80.1363 107.422 80.3899 106.101 79.3836L89.127 66.5391L94.3471 59.7814L111.321 72.6259C112.643 73.624 112.89 75.4975 111.883 76.8065Z" fill="#FFBE55"/>
<path d="M85.152 40.5403C85.152 52.5778 75.2895 62.4011 63.0428 62.4011C50.7961 62.4011 40.9336 52.5778 40.9336 40.5403C40.9336 28.5029 50.7961 18.6796 63.0428 18.6796C75.2895 18.6796 85.152 28.5029 85.152 40.5403Z" stroke="#FFBE55" stroke-width="8"/>
<defs>
<filter id="filter0_d_316_2522" x="0.5" y="6.10352e-05" width="108.115" height="87.6886" filterUnits="userSpaceOnUse" color-interpolation-filters="sRGB">
<feFlood flood-opacity="0" result="BackgroundImageFix"/>
<feColorMatrix in="SourceAlpha" type="matrix" values="0 0 0 0 0 0 0 0 0 0 0 0 0 0 0 0 0 0 127 0" result="hardAlpha"/>
<feOffset dy="4"/>
<feGaussianBlur stdDeviation="2"/>
<feComposite in2="hardAlpha" operator="out"/>
<feColorMatrix type="matrix" values="0 0 0 0 0 0 0 0 0 0 0 0 0 0 0 0 0 0 0.25 0"/>
<feBlend mode="normal" in2="BackgroundImageFix" result="effect1_dropShadow_316_2522"/>
<feBlend mode="normal" in="SourceGraphic" in2="effect1_dropShadow_316_2522" result="shape"/>
</filter>
</defs>
</svg>
